<svg width="176" height="36" viewBox="0 0 176 36" fill="none" xmlns="http://www.w3.org/2000/svg">
<g clip-path="url(#clip0_2012_65)">
<path d="M16.9412 16.2856C16.9412 26.2952 11.4434 31.1638 0 31.1262C0 31.1222 0 21.2342 0 1.46208C0 -0.292215 1.42214 -1.71436 3.17644 -1.71436H32.8235C33.7595 -1.71436 34.6009 -1.3095 35.1823 -0.665363C23.1617 -0.447465 16.9412 5.27625 16.9412 16.2856ZM36 1.44507V31.1092C36 32.8635 34.5779 34.2856 32.8236 34.2856H3.17644C2.24044 34.2856 1.39901 33.8808 0.817664 33.2367C12.8383 33.0188 19.0588 27.295 19.0588 16.2856C19.0588 6.2761 24.5566 1.40745 36 1.44507Z" fill="white"/>
</g>
<path d="M146.419 2.99902H152.301V18.9746C152.301 20.2858 152.48 21.4548 152.839 22.4814C153.198 23.4958 153.729 24.3555 154.435 25.0605C155.152 25.7656 156.036 26.3037 157.088 26.6748C158.139 27.0335 159.364 27.2129 160.762 27.2129C162.147 27.2129 163.366 27.0335 164.417 26.6748C165.481 26.3037 166.365 25.7656 167.07 25.0605C167.788 24.3555 168.326 23.4958 168.685 22.4814C169.043 21.4548 169.223 20.2858 169.223 18.9746V2.99902H175.104V19.6797C175.104 21.5846 174.783 23.3164 174.14 24.875C173.496 26.4336 172.562 27.7695 171.338 28.8828C170.113 29.9961 168.61 30.8558 166.829 31.4619C165.06 32.068 163.038 32.3711 160.762 32.3711C158.486 32.3711 156.457 32.068 154.676 31.4619C152.907 30.8558 151.41 29.9961 150.186 28.8828C148.961 27.7695 148.027 26.4336 147.384 24.875C146.741 23.3164 146.419 21.5846 146.419 19.6797V2.99902Z" fill="white"/>
<path d="M116.162 2.99902H130.913C133.14 2.99902 135.069 3.23405 136.702 3.7041C138.335 4.16178 139.689 4.82975 140.766 5.70801C141.842 6.58626 142.64 7.65625 143.159 8.91797C143.691 10.1797 143.957 11.6084 143.957 13.2041C143.957 14.2803 143.827 15.307 143.567 16.2842C143.308 17.249 142.906 18.1396 142.361 18.9561C141.829 19.7725 141.155 20.5023 140.339 21.1455C139.522 21.7764 138.564 22.3021 137.463 22.7227L143.771 32H136.572L131.117 23.7617H130.95L122.044 23.7432V32H116.162V2.99902ZM131.062 18.6592C132.175 18.6592 133.146 18.5293 133.975 18.2695C134.816 18.0098 135.515 17.6449 136.071 17.1748C136.64 16.7048 137.061 16.1357 137.333 15.4678C137.618 14.7874 137.76 14.0329 137.76 13.2041C137.76 11.5837 137.203 10.3343 136.09 9.45605C134.977 8.56543 133.3 8.12012 131.062 8.12012H122.044V18.6592H131.062Z" fill="white"/>
<path d="M82.9365 17.3232C82.9365 15.2575 83.3262 13.334 84.1055 11.5527C84.8848 9.75911 86.0104 8.20671 87.4824 6.89551C88.9668 5.57194 90.7728 4.53288 92.9004 3.77832C95.0404 3.02376 97.4587 2.64648 100.155 2.64648C102.518 2.64648 104.683 2.8877 106.649 3.37012C108.629 3.84017 110.465 4.5638 112.16 5.54102L109.451 9.99414C108.944 9.66016 108.356 9.36328 107.688 9.10352C107.033 8.84375 106.328 8.62728 105.573 8.4541C104.831 8.26855 104.058 8.1263 103.254 8.02734C102.462 7.92839 101.677 7.87891 100.897 7.87891C99.0173 7.87891 97.3411 8.11393 95.8691 8.58398C94.3971 9.04167 93.154 9.69108 92.1396 10.5322C91.1377 11.361 90.3708 12.3568 89.8389 13.5195C89.3193 14.6699 89.0596 15.9378 89.0596 17.3232C89.0596 18.7581 89.3317 20.0755 89.876 21.2754C90.4202 22.4753 91.2057 23.5143 92.2324 24.3926C93.2715 25.2585 94.5332 25.9388 96.0176 26.4336C97.5143 26.916 99.2028 27.1572 101.083 27.1572C101.937 27.1572 102.784 27.0954 103.625 26.9717C104.466 26.848 105.276 26.681 106.056 26.4707C106.847 26.248 107.608 25.9883 108.338 25.6914C109.068 25.3822 109.748 25.0482 110.379 24.6895L113.088 29.1426C111.505 30.1569 109.674 30.9548 107.596 31.5361C105.518 32.1051 103.31 32.3896 100.972 32.3896C97.9906 32.3896 95.3743 32.0062 93.123 31.2393C90.8717 30.46 88.9915 29.3962 87.4824 28.0479C85.9733 26.6872 84.8353 25.0915 84.0684 23.2607C83.3138 21.4176 82.9365 19.4385 82.9365 17.3232Z" fill="white"/>
<path d="M51.4736 23.3721C52.5251 23.9658 53.5889 24.5039 54.665 24.9863C55.7536 25.4564 56.8792 25.8584 58.042 26.1924C59.2048 26.514 60.4232 26.7614 61.6973 26.9346C62.9837 27.1077 64.3506 27.1943 65.7979 27.1943C67.542 27.1943 69.0264 27.083 70.251 26.8604C71.4756 26.6253 72.4714 26.3099 73.2383 25.9141C74.0176 25.5059 74.5804 25.0234 74.9268 24.4668C75.2855 23.9102 75.4648 23.304 75.4648 22.6484C75.4648 21.597 75.0257 20.7682 74.1475 20.1621C73.2692 19.5436 71.9147 19.2344 70.084 19.2344C69.2799 19.2344 68.4326 19.29 67.542 19.4014C66.6514 19.5003 65.7484 19.6117 64.833 19.7354C63.93 19.859 63.0332 19.9766 62.1426 20.0879C61.2643 20.1868 60.4355 20.2363 59.6562 20.2363C58.3574 20.2363 57.1081 20.0693 55.9082 19.7354C54.7207 19.4014 53.6631 18.9004 52.7354 18.2324C51.82 17.5645 51.0902 16.7295 50.5459 15.7275C50.0016 14.7256 49.7295 13.5566 49.7295 12.2207C49.7295 11.429 49.8346 10.6436 50.0449 9.86426C50.2676 9.08496 50.6139 8.34277 51.084 7.6377C51.5664 6.92025 52.1849 6.25846 52.9395 5.65234C53.694 5.03385 54.6032 4.50195 55.667 4.05664C56.7432 3.61133 57.9801 3.26497 59.3779 3.01758C60.7881 2.75781 62.39 2.62793 64.1836 2.62793C65.4824 2.62793 66.7874 2.70215 68.0986 2.85059C69.4098 2.98665 70.6839 3.18457 71.9209 3.44434C73.1702 3.7041 74.3701 4.01953 75.5205 4.39062C76.6709 4.74935 77.7409 5.15137 78.7305 5.59668L76.1514 10.3467C75.335 9.98796 74.4567 9.66016 73.5166 9.36328C72.5765 9.05404 71.5931 8.78809 70.5664 8.56543C69.5397 8.34277 68.4759 8.1696 67.375 8.0459C66.2865 7.90983 65.1732 7.8418 64.0352 7.8418C62.4147 7.8418 61.0788 7.95931 60.0273 8.19434C58.9883 8.42936 58.1595 8.73242 57.541 9.10352C56.9225 9.46224 56.4896 9.87044 56.2422 10.3281C56.0072 10.7734 55.8896 11.2188 55.8896 11.6641C55.8896 12.5299 56.2793 13.2412 57.0586 13.7979C57.8379 14.3421 59.0254 14.6143 60.6211 14.6143C61.2643 14.6143 62.0003 14.571 62.8291 14.4844C63.6702 14.3854 64.5485 14.2803 65.4639 14.1689C66.3916 14.0576 67.3317 13.9587 68.2842 13.8721C69.249 13.7731 70.1829 13.7236 71.0859 13.7236C72.793 13.7236 74.3021 13.9154 75.6133 14.2988C76.9368 14.6823 78.0439 15.2327 78.9346 15.9502C79.8252 16.6553 80.4993 17.515 80.957 18.5293C81.4147 19.5312 81.6436 20.6569 81.6436 21.9062C81.6436 23.5762 81.2539 25.0667 80.4746 26.3779C79.7077 27.6768 78.6068 28.7777 77.1719 29.6807C75.7493 30.5713 74.0299 31.2516 72.0137 31.7217C69.9974 32.1794 67.7523 32.4082 65.2783 32.4082C63.6455 32.4082 62.0498 32.3031 60.4912 32.0928C58.9326 31.8949 57.4359 31.6104 56.001 31.2393C54.5785 30.8558 53.2178 30.4043 51.9189 29.8848C50.6325 29.3529 49.4388 28.7715 48.3379 28.1406L51.4736 23.3721Z" fill="white"/>
<defs>
<clipPath id="clip0_2012_65">
<rect width="36" height="36" fill="white"/>
</clipPath>
</defs>
</svg>
