<svg width="179" height="48" viewBox="0 0 179 48" fill="none" xmlns="http://www.w3.org/2000/svg">
<g clip-path="url(#clip0_2012_79)">
<path d="M16.9412 22.2856C16.9412 32.2952 11.4434 37.1638 0 37.1262C0 37.1222 0 27.2342 0 7.46208C0 5.70779 1.42214 4.28564 3.17644 4.28564H32.8235C33.7595 4.28564 34.6009 4.6905 35.1823 5.33464C23.1617 5.55254 16.9412 11.2763 16.9412 22.2856ZM36 7.44507V37.1092C36 38.8635 34.5779 40.2856 32.8236 40.2856H3.17644C2.24044 40.2856 1.39901 39.8808 0.817664 39.2367C12.8383 39.0188 19.0588 33.295 19.0588 22.2856C19.0588 12.2761 24.5566 7.40745 36 7.44507Z" fill="white"/>
</g>
<path d="M51.4736 29.3721C52.5251 29.9658 53.5889 30.5039 54.665 30.9863C55.7536 31.4564 56.8792 31.8584 58.042 32.1924C59.2048 32.514 60.4232 32.7614 61.6973 32.9346C62.9837 33.1077 64.3506 33.1943 65.7979 33.1943C67.542 33.1943 69.0264 33.083 70.251 32.8604C71.4756 32.6253 72.4714 32.3099 73.2383 31.9141C74.0176 31.5059 74.5804 31.0234 74.9268 30.4668C75.2855 29.9102 75.4648 29.304 75.4648 28.6484C75.4648 27.597 75.0257 26.7682 74.1475 26.1621C73.2692 25.5436 71.9147 25.2344 70.084 25.2344C69.2799 25.2344 68.4326 25.29 67.542 25.4014C66.6514 25.5003 65.7484 25.6117 64.833 25.7354C63.93 25.859 63.0332 25.9766 62.1426 26.0879C61.2643 26.1868 60.4355 26.2363 59.6562 26.2363C58.3574 26.2363 57.1081 26.0693 55.9082 25.7354C54.7207 25.4014 53.6631 24.9004 52.7354 24.2324C51.82 23.5645 51.0902 22.7295 50.5459 21.7275C50.0016 20.7256 49.7295 19.5566 49.7295 18.2207C49.7295 17.429 49.8346 16.6436 50.0449 15.8643C50.2676 15.085 50.6139 14.3428 51.084 13.6377C51.5664 12.9202 52.1849 12.2585 52.9395 11.6523C53.694 11.0339 54.6032 10.502 55.667 10.0566C56.7432 9.61133 57.9801 9.26497 59.3779 9.01758C60.7881 8.75781 62.39 8.62793 64.1836 8.62793C65.4824 8.62793 66.7874 8.70215 68.0986 8.85059C69.4098 8.98665 70.6839 9.18457 71.9209 9.44434C73.1702 9.7041 74.3701 10.0195 75.5205 10.3906C76.6709 10.7493 77.7409 11.1514 78.7305 11.5967L76.1514 16.3467C75.335 15.988 74.4567 15.6602 73.5166 15.3633C72.5765 15.054 71.5931 14.7881 70.5664 14.5654C69.5397 14.3428 68.4759 14.1696 67.375 14.0459C66.2865 13.9098 65.1732 13.8418 64.0352 13.8418C62.4147 13.8418 61.0788 13.9593 60.0273 14.1943C58.9883 14.4294 58.1595 14.7324 57.541 15.1035C56.9225 15.4622 56.4896 15.8704 56.2422 16.3281C56.0072 16.7734 55.8896 17.2188 55.8896 17.6641C55.8896 18.5299 56.2793 19.2412 57.0586 19.7979C57.8379 20.3421 59.0254 20.6143 60.6211 20.6143C61.2643 20.6143 62.0003 20.571 62.8291 20.4844C63.6702 20.3854 64.5485 20.2803 65.4639 20.1689C66.3916 20.0576 67.3317 19.9587 68.2842 19.8721C69.249 19.7731 70.1829 19.7236 71.0859 19.7236C72.793 19.7236 74.3021 19.9154 75.6133 20.2988C76.9368 20.6823 78.0439 21.2327 78.9346 21.9502C79.8252 22.6553 80.4993 23.515 80.957 24.5293C81.4147 25.5312 81.6436 26.6569 81.6436 27.9062C81.6436 29.5762 81.2539 31.0667 80.4746 32.3779C79.7077 33.6768 78.6068 34.7777 77.1719 35.6807C75.7493 36.5713 74.0299 37.2516 72.0137 37.7217C69.9974 38.1794 67.7523 38.4082 65.2783 38.4082C63.6455 38.4082 62.0498 38.3031 60.4912 38.0928C58.9326 37.8949 57.4359 37.6104 56.001 37.2393C54.5785 36.8558 53.2178 36.4043 51.9189 35.8848C50.6325 35.3529 49.4388 34.7715 48.3379 34.1406L51.4736 29.3721ZM82.9364 23.3232C82.9364 21.2575 83.3261 19.334 84.1054 17.5527C84.8847 15.7591 86.0103 14.2067 87.4823 12.8955C88.9667 11.5719 90.7727 10.5329 92.9003 9.77832C95.0403 9.02376 97.4586 8.64648 100.155 8.64648C102.518 8.64648 104.683 8.8877 106.649 9.37012C108.629 9.84017 110.465 10.5638 112.16 11.541L109.451 15.9941C108.944 15.6602 108.356 15.3633 107.688 15.1035C107.033 14.8438 106.328 14.6273 105.573 14.4541C104.831 14.2686 104.058 14.1263 103.254 14.0273C102.462 13.9284 101.677 13.8789 100.897 13.8789C99.0172 13.8789 97.3411 14.1139 95.8691 14.584C94.3971 15.0417 93.1539 15.6911 92.1396 16.5322C91.1376 17.361 90.3707 18.3568 89.8388 19.5195C89.3193 20.6699 89.0595 21.9378 89.0595 23.3232C89.0595 24.7581 89.3316 26.0755 89.8759 27.2754C90.4202 28.4753 91.2057 29.5143 92.2323 30.3926C93.2714 31.2585 94.5331 31.9388 96.0175 32.4336C97.5142 32.916 99.2027 33.1572 101.083 33.1572C101.936 33.1572 102.784 33.0954 103.625 32.9717C104.466 32.848 105.276 32.681 106.056 32.4707C106.847 32.248 107.608 31.9883 108.338 31.6914C109.068 31.3822 109.748 31.0482 110.379 30.6895L113.088 35.1426C111.504 36.1569 109.674 36.9548 107.596 37.5361C105.518 38.1051 103.309 38.3896 100.972 38.3896C97.9905 38.3896 95.3743 38.0062 93.123 37.2393C90.8717 36.46 88.9915 35.3962 87.4823 34.0479C85.9732 32.6872 84.8352 31.0915 84.0683 29.2607C83.3137 27.4176 82.9364 25.4385 82.9364 23.3232ZM116.162 8.99902H130.913C133.139 8.99902 135.069 9.23405 136.702 9.7041C138.335 10.1618 139.689 10.8298 140.765 11.708C141.842 12.5863 142.639 13.6562 143.159 14.918C143.691 16.1797 143.957 17.6084 143.957 19.2041C143.957 20.2803 143.827 21.307 143.567 22.2842C143.307 23.249 142.905 24.1396 142.361 24.9561C141.829 25.7725 141.155 26.5023 140.339 27.1455C139.522 27.7764 138.564 28.3021 137.463 28.7227L143.771 38H136.572L131.117 29.7617H130.95L122.044 29.7432V38H116.162V8.99902ZM131.061 24.6592C132.175 24.6592 133.146 24.5293 133.974 24.2695C134.816 24.0098 135.514 23.6449 136.071 23.1748C136.64 22.7048 137.061 22.1357 137.333 21.4678C137.617 20.7874 137.76 20.0329 137.76 19.2041C137.76 17.5837 137.203 16.3343 136.09 15.4561C134.976 14.5654 133.3 14.1201 131.061 14.1201H122.044V24.6592H131.061ZM146.419 8.99902H152.301V24.9746C152.301 26.2858 152.48 27.4548 152.839 28.4814C153.197 29.4958 153.729 30.3555 154.434 31.0605C155.152 31.7656 156.036 32.3037 157.088 32.6748C158.139 33.0335 159.364 33.2129 160.761 33.2129C162.147 33.2129 163.365 33.0335 164.417 32.6748C165.481 32.3037 166.365 31.7656 167.07 31.0605C167.788 30.3555 168.326 29.4958 168.684 28.4814C169.043 27.4548 169.222 26.2858 169.222 24.9746V8.99902H175.104V25.6797C175.104 27.5846 174.783 29.3164 174.139 30.875C173.496 32.4336 172.562 33.7695 171.338 34.8828C170.113 35.9961 168.61 36.8558 166.829 37.4619C165.06 38.068 163.038 38.3711 160.761 38.3711C158.485 38.3711 156.457 38.068 154.676 37.4619C152.907 36.8558 151.41 35.9961 150.185 34.8828C148.961 33.7695 148.027 32.4336 147.384 30.875C146.74 29.3164 146.419 27.5846 146.419 25.6797V8.99902Z" fill="white"/>
<defs>
<clipPath id="clip0_2012_79">
<rect width="36" height="36" fill="white" transform="translate(0 6)"/>
</clipPath>
</defs>
</svg>
