<?xml version="1.0" encoding="UTF-8" standalone="no"?>
<!-- Created with Inkscape (http://www.inkscape.org/) -->

<svg
   width="394.50101mm"
   height="105mm"
   viewBox="0 0 394.50101 105"
   version="1.1"
   id="svg5"
   xml:space="preserve"
   inkscape:version="1.2.1 (9c6d41e410, 2022-07-14)"
   sodipodi:docname="pullhero_full.svg"
   xmlns:inkscape="http://www.inkscape.org/namespaces/inkscape"
   xmlns:sodipodi="http://sodipodi.sourceforge.net/DTD/sodipodi-0.dtd"
   xmlns="http://www.w3.org/2000/svg"
   xmlns:svg="http://www.w3.org/2000/svg"><sodipodi:namedview
     id="namedview7"
     pagecolor="#ffffff"
     bordercolor="#000000"
     borderopacity="0.25"
     inkscape:showpageshadow="2"
     inkscape:pageopacity="0.0"
     inkscape:pagecheckerboard="0"
     inkscape:deskcolor="#d1d1d1"
     inkscape:document-units="mm"
     showgrid="false"
     inkscape:zoom="0.32346812"
     inkscape:cx="743.50449"
     inkscape:cy="366.34213"
     inkscape:window-width="1450"
     inkscape:window-height="1243"
     inkscape:window-x="374"
     inkscape:window-y="111"
     inkscape:window-maximized="0"
     inkscape:current-layer="layer1" /><defs
     id="defs2" /><g
     inkscape:label="Layer 1"
     inkscape:groupmode="layer"
     id="layer1"><g
       id="g945"
       transform="translate(9.4860387e-5,-77.617395)"><g
         aria-label="PullHero"
         id="text342"
         style="font-weight:bold;font-size:27.2103px;font-family:'Courier New';-inkscape-font-specification:'Courier New Bold';stroke:#ffffff;stroke-width:0"
         transform="matrix(2.4452182,0,0,2.4452182,-492.27781,-2.7780997)"><path
           d="m 239.70704,57.218971 v 2.803405 h 2.75026 q 0.98319,0 1.39506,0.385302 0.42516,0.372016 0.42516,0.983185 0,0.597882 -0.42516,0.983184 -0.41187,0.372016 -1.39506,0.372016 h -5.8991 q -0.98319,0 -1.40835,-0.372016 -0.41187,-0.385302 -0.41187,-0.996471 0,-0.597882 0.42516,-0.969898 0.42516,-0.385302 1.39506,-0.385302 h 0.42516 V 49.36678 h -0.42516 q -0.98319,0 -1.40835,-0.372016 -0.41187,-0.385302 -0.41187,-0.996471 0,-0.611169 0.41187,-0.983185 0.42516,-0.385302 1.40835,-0.385302 l 6.27112,0.01329 q 2.76355,0 4.37119,1.514636 1.62092,1.50135 1.62092,3.667013 0,1.195766 -0.54473,2.258668 -0.41188,0.797177 -1.38178,1.581067 -0.95661,0.770604 -1.96637,1.169193 -0.99647,0.385302 -2.64397,0.385302 z m 0,-2.723687 h 2.5244 q 1.78036,0 2.81669,-0.797177 1.04962,-0.810463 1.04962,-1.939797 0,-0.956612 -0.85033,-1.674071 -0.83703,-0.717459 -2.40481,-0.717459 h -3.13557 z"
           id="path918" /><path
           d="m 263.39648,50.682121 v 9.340255 q 0.86361,0 1.27548,0.385302 0.41188,0.385302 0.41188,0.983185 0,0.597882 -0.42516,0.983184 -0.41188,0.372016 -1.39506,0.372016 h -2.59083 v -0.624455 q -1.16919,0.531451 -2.23209,0.797177 -1.0629,0.265725 -2.01951,0.265725 -1.34192,0 -2.3251,-0.558023 -0.98319,-0.57131 -1.5545,-1.567781 -0.41187,-0.717459 -0.41187,-1.793648 v -5.859249 h -0.46502 q -0.98319,0 -1.40835,-0.372016 -0.41187,-0.385302 -0.41187,-0.996471 0,-0.597883 0.41187,-0.969898 0.42516,-0.385303 1.40835,-0.385303 h 3.1887 v 8.104631 q 0,0.863608 0.41188,1.275483 0.42516,0.398588 1.28877,0.398588 0.82375,0 1.76707,-0.318871 0.95662,-0.332157 2.35167,-1.182478 v -5.553665 h -0.98318 q -0.98318,0 -1.40835,-0.372016 -0.41187,-0.385302 -0.41187,-0.996471 0,-0.597883 0.41187,-0.969898 0.42517,-0.385303 1.40835,-0.385303 z"
           id="path920" /><path
           d="m 275.30099,45.513759 v 14.508617 h 3.26842 q 0.98319,0 1.39506,0.385302 0.42516,0.372016 0.42516,0.983185 0,0.597882 -0.42516,0.983184 -0.41187,0.372016 -1.39506,0.372016 h -9.26053 q -0.98319,0 -1.40835,-0.372016 -0.41187,-0.385302 -0.41187,-0.996471 0,-0.597882 0.41187,-0.969898 0.42516,-0.385302 1.40835,-0.385302 h 3.26842 v -11.78493 h -2.19223 q -0.9699,0 -1.39506,-0.372016 -0.42516,-0.385302 -0.42516,-0.996471 0,-0.597882 0.41187,-0.969898 0.42516,-0.385302 1.40835,-0.385302 z"
           id="path922" /><path
           d="m 291.62983,45.513759 v 14.508617 h 3.26842 q 0.98319,0 1.39506,0.385302 0.42516,0.372016 0.42516,0.983185 0,0.597882 -0.42516,0.983184 -0.41187,0.372016 -1.39506,0.372016 h -9.26053 q -0.98319,0 -1.40835,-0.372016 -0.41187,-0.385302 -0.41187,-0.996471 0,-0.597882 0.41187,-0.969898 0.42516,-0.385302 1.40835,-0.385302 h 3.26842 v -11.78493 h -2.19224 q -0.96989,0 -1.39506,-0.372016 -0.42516,-0.385302 -0.42516,-0.996471 0,-0.597882 0.41188,-0.969898 0.42516,-0.385302 1.40834,-0.385302 z"
           id="path924" /><path
           d="m 309.57959,56.076351 h -5.81939 v 3.946025 h 0.42516 q 0.98319,0 1.39506,0.385302 0.42516,0.372016 0.42516,0.983185 0,0.597882 -0.42516,0.983184 -0.41187,0.372016 -1.39506,0.372016 h -3.33485 q -0.98319,0 -1.40835,-0.372016 -0.41187,-0.385302 -0.41187,-0.996471 0,-0.744031 0.65102,-1.155906 0.31887,-0.21258 1.3552,-0.199294 V 49.36678 q -0.71745,-0.06643 -1.08947,-0.438447 -0.35873,-0.372016 -0.35873,-0.93004 0,-0.611169 0.41187,-0.983185 0.42517,-0.385302 1.40835,-0.385302 l 2.77683,0.01329 q 0.98319,0 1.39506,0.372016 0.42516,0.372016 0.42516,0.983185 0,0.611169 -0.42516,0.996471 -0.41187,0.372016 -1.39506,0.372016 h -0.42516 v 3.985884 h 5.81939 V 49.36678 h -0.42516 q -0.98318,0 -1.40834,-0.372016 -0.41188,-0.385302 -0.41188,-0.996471 0,-0.611169 0.41188,-0.983185 0.42516,-0.385302 1.40834,-0.385302 l 2.77683,0.01329 q 0.98319,0 1.39506,0.372016 0.42516,0.372016 0.42516,0.983185 0,0.558024 -0.37201,0.93004 -0.35873,0.372015 -1.07619,0.438447 V 60.02238 q 1.04962,0 1.3552,0.199294 0.65103,0.411875 0.65103,1.169193 0,0.597882 -0.42516,0.983184 -0.41188,0.372016 -1.39506,0.372016 h -3.33486 q -0.98318,0 -1.40834,-0.372016 -0.41188,-0.385302 -0.41188,-0.996471 0,-0.597882 0.42516,-0.969898 0.42516,-0.385302 1.39506,-0.385302 h 0.42516 z"
           id="path926" /><path
           d="m 329.76146,58.095865 h -11.17377 q 0.42517,1.062903 1.50135,1.71393 1.08948,0.651028 2.93627,0.651028 1.51464,0 4.02574,-0.651028 1.03633,-0.265725 1.43492,-0.265725 0.54474,0 0.91676,0.385302 0.37201,0.385302 0.37201,0.969898 0,0.531452 -0.39859,0.903467 -0.53145,0.491593 -2.59082,0.943326 -2.05937,0.438447 -3.95931,0.438447 -3.26843,0 -5.2348,-1.846792 -1.95308,-1.846793 -1.95308,-4.543908 0,-2.869836 2.11252,-4.663484 2.1258,-1.806934 4.88935,-1.806934 1.66078,0 3.04256,0.584596 1.39506,0.584596 2.07266,1.262197 0.95661,0.983184 1.58106,2.431389 0.42517,1.009757 0.42517,2.338385 z m -3.01599,-2.723687 q -0.62446,-1.169192 -1.63421,-1.740503 -1.00976,-0.584596 -2.40482,-0.584596 -1.38177,0 -2.39153,0.584596 -1.00976,0.571311 -1.6475,1.740503 z"
           id="path928" /><path
           d="m 338.68983,50.682121 v 1.700644 q 1.71393,-1.235624 2.69712,-1.647498 0.99647,-0.411875 1.86008,-0.411875 1.32862,0 2.57753,0.983185 0.85033,0.664314 0.85033,1.3552 0,0.584596 -0.41188,0.996471 -0.39859,0.398588 -0.9699,0.398588 -0.50488,0 -1.0629,-0.504878 -0.55802,-0.504879 -0.99647,-0.504879 -0.57131,0 -1.71393,0.717459 -1.12933,0.717459 -2.82998,2.152378 v 4.10546 h 3.8796 q 0.98318,0 1.39506,0.385302 0.42516,0.372016 0.42516,0.983185 0,0.597882 -0.42516,0.983184 -0.41188,0.372016 -1.39506,0.372016 h -8.22421 q -0.98319,0 -1.40835,-0.372016 -0.41187,-0.385302 -0.41187,-0.996471 0,-0.597882 0.41187,-0.969898 0.42516,-0.385302 1.40835,-0.385302 h 1.62092 v -6.616567 h -0.98318 q -0.98318,0 -1.40835,-0.372016 -0.41187,-0.385302 -0.41187,-0.996471 0,-0.597883 0.41187,-0.969898 0.42517,-0.385303 1.40835,-0.385303 z"
           id="path930" /><path
           d="m 362.65828,56.939959 q 0,1.567781 -0.8769,3.042558 -0.86361,1.461491 -2.59082,2.338385 -1.71393,0.863608 -3.5873,0.863608 -1.86008,0 -3.56072,-0.850321 -1.70064,-0.863609 -2.59082,-2.338386 -0.89019,-1.474777 -0.89019,-3.082416 0,-1.634213 0.90347,-3.201994 0.90347,-1.581067 2.59083,-2.484534 1.70064,-0.903467 3.54743,-0.903467 1.86008,0 3.57401,0.930039 1.72722,0.916754 2.60411,2.484535 0.8769,1.554494 0.8769,3.201993 z m -2.72369,0.01329 q 0,-1.315341 -0.94333,-2.418103 -1.28876,-1.488063 -3.388,-1.488063 -1.84679,0 -3.08241,1.182479 -1.23563,1.182479 -1.23563,2.736974 0,1.275482 1.24891,2.39153 1.24891,1.102761 3.06913,1.102761 1.83351,0 3.08242,-1.102761 1.24891,-1.116048 1.24891,-2.404817 z"
           id="path932" /></g><path
         id="rect539-65"
         style="fill:#000000;stroke:#000000;stroke-width:0"
         d="M 0,77.61724 V 92.617358 182.61755 H 15.00012 V 92.617358 H 30.00023 V 107.61748 H 45.00035 V 92.617358 h 14.9996 V 137.6172 H 45.00035 V 122.61759 H 30.00023 v 14.99961 15.00011 h 15.00012 14.9996 15.00012 V 137.6172 77.61724 H 15.00012 Z" /></g></g></svg>
