<svg width="88" height="88" viewBox="0 0 88 88" fill="none" xmlns="http://www.w3.org/2000/svg">
<path d="M82.5 38.5H64.526L80.0924 29.513C81.3453 28.7785 82.2569 27.5782 82.6281 26.1741C82.9993 24.7699 82.8001 23.276 82.0739 22.0182C81.3477 20.7604 80.1535 19.8409 78.7518 19.4604C77.3502 19.0798 75.8549 19.2692 74.5924 19.987L59.026 28.9726L68.013 13.4076C68.7423 12.1444 68.94 10.6432 68.5624 9.23423C68.1849 7.82528 67.2632 6.62399 66 5.89463C64.7368 5.16531 63.2356 4.96767 61.8266 5.34518C60.4177 5.72269 59.2164 6.64442 58.487 7.90762L49.5 23.4726V5.5C49.5 4.04131 48.9205 2.64236 47.8891 1.61091C46.8576 0.579463 45.4587 0 44 0C42.5413 0 41.1424 0.579463 40.1109 1.61091C39.0795 2.64236 38.5 4.04131 38.5 5.5V23.4726L29.513 7.90762C28.7836 6.64442 27.5823 5.72269 26.1734 5.34518C24.7644 4.96767 23.2632 5.16531 22 5.89463C20.7368 6.62399 19.8151 7.82528 19.4376 9.23423C19.06 10.6432 19.2577 12.1444 19.987 13.4076L28.974 28.9726L13.4076 19.987C12.1451 19.2692 10.6498 19.0798 9.24817 19.4604C7.84654 19.8409 6.65232 20.7604 5.92612 22.0182C5.19991 23.276 5.00069 24.7699 5.37192 26.1741C5.74315 27.5782 6.65469 28.7785 7.90762 29.513L23.474 38.5H5.5C4.04131 38.5 2.64236 39.0795 1.61091 40.1109C0.579463 41.1424 0 42.5413 0 44C0 45.4587 0.579463 46.8576 1.61091 47.8891C2.64236 48.9205 4.04131 49.5 5.5 49.5H23.474L7.90762 58.487C6.65469 59.2215 5.74315 60.4218 5.37192 61.8259C5.00069 63.2301 5.19991 64.724 5.92612 65.9818C6.65232 67.2396 7.84654 68.1591 9.24817 68.5396C10.6498 68.9202 12.1451 68.7308 13.4076 68.013L28.974 59.0274L19.987 74.5924C19.2577 75.8556 19.06 77.3568 19.4376 78.7658C19.8151 80.1747 20.7368 81.376 22 82.1054C23.2632 82.8347 24.7644 83.0323 26.1734 82.6548C27.5823 82.2773 28.7836 81.3556 29.513 80.0924L38.5 64.5274V82.5C38.5 83.9587 39.0795 85.3576 40.1109 86.3891C41.1424 87.4205 42.5413 88 44 88C45.4587 88 46.8576 87.4205 47.8891 86.3891C48.9205 85.3576 49.5 83.9587 49.5 82.5V64.5274L58.487 80.0924C59.2164 81.3556 60.4177 82.2773 61.8266 82.6548C63.2356 83.0323 64.7368 82.8347 66 82.1054C67.2632 81.376 68.1849 80.1747 68.5624 78.7658C68.94 77.3568 68.7423 75.8556 68.013 74.5924L59.026 59.0274L74.5924 68.013C75.8549 68.7308 77.3502 68.9202 78.7518 68.5396C80.1535 68.1591 81.3477 67.2396 82.0739 65.9818C82.8001 64.724 82.9993 63.2301 82.6281 61.8259C82.2569 60.4218 81.3453 59.2215 80.0924 58.487L64.526 49.5H82.5C83.9587 49.5 85.3576 48.9205 86.3891 47.8891C87.4205 46.8576 88 45.4587 88 44C88 42.5413 87.4205 41.1424 86.3891 40.1109C85.3576 39.0795 83.9587 38.5 82.5 38.5ZM85.25 44C85.25 44.7293 84.9603 45.4288 84.4445 45.9445C83.9288 46.4603 83.2293 46.75 82.5 46.75H59.4C59.0973 46.75 58.8031 46.8499 58.563 47.0342C58.3229 47.2184 58.1503 47.4768 58.0719 47.7691C57.9936 48.0615 58.0139 48.3715 58.1297 48.6512C58.2455 48.9308 58.4504 49.1644 58.7125 49.3158L78.7229 60.8657C79.3374 61.2388 79.7815 61.8377 79.9599 62.5342C80.1383 63.2307 80.0368 63.9693 79.6772 64.5919C79.3177 65.2144 78.7286 65.6714 78.0362 65.865C77.3438 66.0585 76.6031 65.9733 75.9729 65.6274L55.9625 54.0788C55.6998 53.9232 55.3928 53.8595 55.0899 53.8976C54.787 53.9358 54.5054 54.0737 54.2896 54.2896C54.0737 54.5054 53.9358 54.787 53.8976 55.0899C53.8595 55.3928 53.9232 55.6998 54.0788 55.9625L65.6287 75.9729C65.9915 76.6035 66.0895 77.3522 65.9014 78.055C65.7132 78.7578 65.2543 79.3574 64.625 79.7225C63.9934 80.0872 63.2428 80.186 62.5383 79.9972C61.8338 79.8085 61.2332 79.3476 60.8685 78.716L49.3158 58.7125C49.1644 58.4504 48.9308 58.2455 48.6512 58.1297C48.3715 58.0139 48.0615 57.9936 47.7691 58.0719C47.4768 58.1503 47.2184 58.3229 47.0342 58.563C46.8499 58.8031 46.75 59.0973 46.75 59.4V82.5C46.75 83.2293 46.4603 83.9288 45.9445 84.4445C45.4288 84.9603 44.7293 85.25 44 85.25C43.2707 85.25 42.5712 84.9603 42.0555 84.4445C41.5397 83.9288 41.25 83.2293 41.25 82.5V59.4C41.25 59.0973 41.1501 58.8031 40.9658 58.563C40.7816 58.3229 40.5232 58.1503 40.2309 58.0719C39.9385 57.9936 39.6285 58.0139 39.3488 58.1297C39.0692 58.2455 38.8356 58.4504 38.6842 58.7125L27.1342 78.7229C26.9532 79.0355 26.7124 79.3094 26.4254 79.529C26.1385 79.7485 25.8111 79.9093 25.462 80.0023C25.1129 80.0952 24.7489 80.1185 24.3908 80.0707C24.0327 80.0229 23.6875 79.9051 23.375 79.7239C22.7438 79.3592 22.2832 78.7588 22.0944 78.0547C21.9057 77.3505 22.0043 76.6002 22.3685 75.9688L33.9212 55.9625C34.0768 55.6998 34.1405 55.3928 34.1024 55.0899C34.0642 54.787 33.9263 54.5054 33.7104 54.2896C33.4946 54.0737 33.213 53.9358 32.9101 53.8976C32.6072 53.8595 32.3002 53.9232 32.0375 54.0788L12.0271 65.6287C11.3968 65.9746 10.6562 66.0599 9.96378 65.8664C9.27138 65.6728 8.68231 65.2158 8.32275 64.5932C7.96319 63.9707 7.86174 63.232 8.04013 62.5356C8.21851 61.8391 8.66255 61.2402 9.27713 60.8671L29.2875 49.3171C29.5503 49.1661 29.7558 48.9324 29.8721 48.6525C29.9884 48.3726 30.0089 48.0621 29.9305 47.7693C29.8521 47.4765 29.6791 47.2178 29.4385 47.0335C29.1979 46.8491 28.9031 46.7495 28.6 46.75H5.5C4.77065 46.75 4.07118 46.4603 3.55546 45.9445C3.03973 45.4288 2.75 44.7293 2.75 44C2.75 43.2707 3.03973 42.5712 3.55546 42.0555C4.07118 41.5397 4.77065 41.25 5.5 41.25H28.6C28.9027 41.25 29.1969 41.1501 29.437 40.9658C29.6771 40.7816 29.8497 40.5232 29.9281 40.2309C30.0064 39.9385 29.9861 39.6285 29.8703 39.3488C29.7545 39.0692 29.5496 38.8356 29.2875 38.6842L9.27713 27.1342C8.66255 26.7612 8.21851 26.1623 8.04013 25.4658C7.86174 24.7693 7.96319 24.0307 8.32275 23.4081C8.68231 22.7856 9.27138 22.3286 9.96378 22.135C10.6562 21.9415 11.3968 22.0267 12.0271 22.3726L32.0375 33.9212C32.3002 34.0768 32.6072 34.1405 32.9101 34.1024C33.213 34.0642 33.4946 33.9263 33.7104 33.7104C33.9263 33.4946 34.0642 33.213 34.1024 32.9101C34.1405 32.6072 34.0768 32.3002 33.9212 32.0375L22.3713 12.0271C22.0085 11.3965 21.9105 10.6478 22.0986 9.94499C22.2868 9.24221 22.7457 8.64262 23.375 8.2775C24.0066 7.91284 24.7572 7.81402 25.4617 8.00278C26.1662 8.19153 26.7668 8.6524 27.1315 9.284L38.6815 29.2944C38.8325 29.5584 39.0668 29.7649 39.3477 29.8815C39.6286 29.9982 39.9403 30.0184 40.2339 29.939C40.5275 29.8597 40.7865 29.6852 40.9704 29.4429C41.1543 29.2006 41.2526 28.9041 41.25 28.6V5.5C41.25 4.77065 41.5397 4.07118 42.0555 3.55546C42.5712 3.03973 43.2707 2.75 44 2.75C44.7293 2.75 45.4288 3.03973 45.9445 3.55546C46.4603 4.07118 46.75 4.77065 46.75 5.5V28.6C46.75 28.9027 46.8499 29.1969 47.0342 29.437C47.2184 29.6771 47.4768 29.8497 47.7691 29.9281C48.0615 30.0064 48.3715 29.9861 48.6512 29.8703C48.9308 29.7545 49.1644 29.5496 49.3158 29.2875L60.8657 9.27713C61.0468 8.96448 61.2876 8.69057 61.5746 8.47105C61.8615 8.25153 62.1889 8.09069 62.538 7.99773C62.8871 7.90477 63.2511 7.88151 63.6092 7.92928C63.9673 7.97705 64.3125 8.09491 64.625 8.27612C65.2562 8.6408 65.7168 9.2412 65.9056 9.94534C66.0943 10.6495 65.9957 11.3998 65.6315 12.0312L54.0788 32.0375C53.9232 32.3002 53.8595 32.6072 53.8976 32.9101C53.9358 33.213 54.0737 33.4946 54.2896 33.7104C54.5054 33.9263 54.787 34.0642 55.0899 34.1024C55.3928 34.1405 55.6998 34.0768 55.9625 33.9212L75.9729 22.3713C76.6031 22.0254 77.3438 21.9401 78.0362 22.1336C78.7286 22.3272 79.3177 22.7842 79.6772 23.4068C80.0368 24.0293 80.1383 24.768 79.9599 25.4644C79.7815 26.1609 79.3374 26.7598 78.7229 27.1329L58.7125 38.6842C58.4504 38.8356 58.2455 39.0692 58.1297 39.3488C58.0139 39.6285 57.9936 39.9385 58.0719 40.2309C58.1503 40.5232 58.3229 40.7816 58.563 40.9658C58.8031 41.1501 59.0973 41.25 59.4 41.25H82.5C83.2293 41.25 83.9288 41.5397 84.4445 42.0555C84.9603 42.5712 85.25 43.2707 85.25 44Z" fill="black"/>
</svg>
