<svg width="63" height="67" viewBox="0 0 63 67" fill="none" xmlns="http://www.w3.org/2000/svg">
<path fill-rule="evenodd" clip-rule="evenodd" d="M6.61911 3.96929C35.4226 9.67223 52.8281 32.845 58.3065 60.3811C58.515 61.464 59.5738 62.1778 60.6646 61.9613C61.7474 61.7447 62.4533 60.686 62.2367 59.6031C56.4455 30.4548 37.8772 6.07087 7.39732 0.0390677C6.30647 -0.1775 5.25537 0.528318 5.0388 1.61116C4.82223 2.70201 5.52826 3.75272 6.61911 3.96929Z" fill="black"/>
<path fill-rule="evenodd" clip-rule="evenodd" d="M1.27204 21.1185C23.902 25.5992 37.577 43.8053 41.8812 65.4396C42.0451 66.2904 42.8769 66.8512 43.7339 66.6811C44.5847 66.5109 45.1392 65.6791 44.9691 64.8283C40.4191 41.9274 25.8305 22.7697 1.88345 18.0307C1.0264 17.8605 0.200583 18.4151 0.0304323 19.2658C-0.139718 20.1229 0.414981 20.9484 1.27204 21.1185Z" fill="black"/>
</svg>
