<svg width="72" height="78" viewBox="0 0 72 78" fill="none" xmlns="http://www.w3.org/2000/svg">
<path d="M70.7499 37.6045C62.8937 37.5782 54.6467 35.9596 48.4398 30.7975C43.2226 26.4579 40.1235 20.2984 38.6217 13.7364C37.6841 9.64173 37.3456 5.45081 37.3716 1.2599C37.3716 0.384969 36.6771 0 36 0C35.3229 0 34.6284 0.384969 34.6284 1.2599C34.6631 8.40808 33.6648 15.8012 30.3574 22.2232C27.2062 28.339 22.0149 32.9674 15.5823 35.3209C10.9901 37.0008 6.11141 37.5957 1.25006 37.6132C0.381963 37.6132 0 38.3219 0 39.0044C0 39.6868 0.381963 40.3955 1.25006 40.3955C9.10634 40.4218 17.3533 42.0404 23.5602 47.2025C28.7774 51.5421 31.8765 57.7016 33.3783 64.2636C34.3159 68.3583 34.6458 72.5492 34.6284 76.7401C34.6284 77.615 35.3229 78 36 78C36.6771 78 37.3716 77.615 37.3716 76.7401C37.3369 69.5919 38.3352 62.1988 41.6426 55.7768C44.7938 49.661 49.985 45.0326 56.4176 42.6791C61.0099 40.9992 65.8886 40.4043 70.7499 40.3868C71.618 40.3868 72 39.6781 72 38.9956C72 38.3132 71.618 37.6045 70.7499 37.6045ZM46.8686 45.1114C41.2173 49.6873 37.7709 56.4067 36.1389 63.4324C36.0868 63.6424 36.0521 63.8611 36 64.0711C35.2621 60.6939 34.151 57.4129 32.5536 54.3419C29.0986 47.6924 23.3692 42.7753 16.3984 40.1943C15.0789 39.7043 13.7246 39.3106 12.353 38.9869C16.9626 37.8757 21.3378 35.9421 25.1227 32.8799C30.7741 28.304 34.2204 21.5845 35.8524 14.5588C35.9045 14.3489 35.9392 14.1301 35.9913 13.9201C36.7292 17.2974 37.8404 20.5784 39.4377 23.6494C42.8927 30.2988 48.6221 35.2159 55.593 37.797C56.9125 38.2869 58.2667 38.6806 59.6383 39.0044C55.0287 40.1243 50.6535 42.0491 46.8686 45.1114Z" fill="black"/>
</svg>
