<svg width="134" height="129" viewBox="0 0 134 129" fill="none" xmlns="http://www.w3.org/2000/svg">
<path d="M71.7969 62.2031H85.5781C85.5781 66.0159 82.5003 69.0938 78.6875 69.0938C74.8747 69.0938 71.7969 66.0159 71.7969 62.2031Z" fill="black"/>
<path d="M62.6094 128.812H2.89069C1.92141 128.812 1.05319 128.202 0.72703 127.287C0.400874 126.373 0.685686 125.353 1.43447 124.738L22.0282 107.883C11.1502 95.9856 5.18756 80.6792 5.18756 64.5C5.18756 29.0363 34.0363 0.1875 69.5001 0.1875C104.964 0.1875 133.813 29.0363 133.813 64.5C133.813 102.366 104.532 128.812 62.6094 128.812ZM9.32194 124.219H62.6094C101.826 124.219 129.219 99.6606 129.219 64.5C129.219 31.572 102.428 4.78125 69.5001 4.78125C36.5721 4.78125 9.78131 31.572 9.78131 64.5C9.78131 80.3025 15.9094 95.2184 27.0354 106.482C27.4902 106.946 27.7291 107.571 27.6969 108.219C27.6602 108.866 27.357 109.464 26.8563 109.872L9.32194 124.219Z" fill="black"/>
<path d="M35.249 118.509C34.8126 118.509 34.3716 118.385 33.9811 118.127C15.9507 106.156 5.1875 86.109 5.1875 64.5C5.1875 29.0363 34.0363 0.1875 69.5 0.1875C70.7679 0.1875 71.7969 1.2165 71.7969 2.48438C71.7969 3.75225 70.7679 4.78125 69.5 4.78125C36.572 4.78125 9.78125 31.572 9.78125 64.5C9.78125 84.5655 19.7773 103.184 36.5215 114.296C37.578 114.999 37.8674 116.428 37.1646 117.48C36.7236 118.15 35.9978 118.509 35.249 118.509Z" fill="black"/>
<path d="M78.6875 71.3906C73.616 71.3906 69.5 67.27 69.5 62.2031C69.5 60.9353 70.529 59.9062 71.7969 59.9062H85.5781C86.846 59.9062 87.875 60.9353 87.875 62.2031C87.875 67.27 83.759 71.3906 78.6875 71.3906ZM74.7139 64.5C75.504 65.8735 76.9924 66.7969 78.6875 66.7969C80.3826 66.7969 81.871 65.8735 82.6611 64.5H74.7139Z" fill="black"/>
<path d="M108.547 57.6094C107.279 57.6094 106.25 56.5804 106.25 55.3125C106.25 54.0492 105.216 53.0156 103.953 53.0156C102.69 53.0156 101.656 54.0492 101.656 55.3125C101.656 56.5804 100.627 57.6094 99.3594 57.6094C98.0915 57.6094 97.0625 56.5804 97.0625 55.3125C97.0625 51.5135 100.154 48.4219 103.953 48.4219C107.752 48.4219 110.844 51.5135 110.844 55.3125C110.844 56.5804 109.815 57.6094 108.547 57.6094Z" fill="black"/>
<path d="M58.0156 57.6094C56.7478 57.6094 55.7188 56.5804 55.7188 55.3125C55.7188 54.0492 54.6852 53.0156 53.4219 53.0156C52.1586 53.0156 51.125 54.0492 51.125 55.3125C51.125 56.5804 50.096 57.6094 48.8281 57.6094C47.5603 57.6094 46.5312 56.5804 46.5312 55.3125C46.5312 51.5135 49.6228 48.4219 53.4219 48.4219C57.2209 48.4219 60.3125 51.5135 60.3125 55.3125C60.3125 56.5804 59.2835 57.6094 58.0156 57.6094Z" fill="black"/>
</svg>
