<svg width="120" height="139" viewBox="0 0 120 139" fill="none" xmlns="http://www.w3.org/2000/svg">
<path d="M118.185 35.6689L60.281 69.3192L2 35.6706" stroke="black" stroke-width="3" stroke-miterlimit="10"/>
<path d="M118.185 82.259L78.1516 105.666L78.0774 79.4607L95.8951 69.062" stroke="black" stroke-width="3" stroke-miterlimit="10"/>
<path d="M19.626 85.4567L19.6803 66.2944L42.4863 79.4615L42.4268 99.9794" stroke="black" stroke-width="3" stroke-miterlimit="10"/>
<path d="M19.5486 112.882L19.6146 89.5343" stroke="black" stroke-width="3" stroke-miterlimit="10"/>
<path d="M68.2477 27.2339L82.8249 35.6498L60.167 48.8171L42.4863 38.609" stroke="black" stroke-width="3" stroke-miterlimit="10"/>
<path d="M42.2808 12.2415L64.1704 24.8793" stroke="black" stroke-width="3" stroke-miterlimit="10"/>
<path d="M104.946 110.308L118.185 102.64V82.259L95.7208 69.2754L118.185 56.0531V35.6488L59.904 2L42.2806 12.2416V38.4901L19.6231 25.4089L2 35.6502V102.64L19.5486 112.881L42.4291 99.6293L42.3543 126.048L60.0913 136.289L100.869 112.67" stroke="black" stroke-width="3" stroke-miterlimit="10"/>
<path d="M37.1714 102.64L19.5486 112.881" stroke="black" stroke-width="3" stroke-miterlimit="10"/>
<path d="M60.281 69.3192V136.289" stroke="black" stroke-width="3" stroke-miterlimit="10"/>
</svg>
