<svg width="54" height="54" viewBox="0 0 54 54" fill="none" xmlns="http://www.w3.org/2000/svg">
<g clip-path="url(#clip0_13_71)">
<path d="M2.09101 37.4073C3.56146 25.3817 9.69077 21.5244 15.179 18.1067C20.7832 14.6152 25.6304 11.5572 25.0473 0.067627C22.4359 0.257168 19.9272 0.81372 17.573 1.69503C17.8169 10.8135 13.4973 13.5178 9.30566 16.1292C4.87859 18.8866 0.696609 21.4918 0.434631 31.773C0.78474 33.7299 1.34129 35.6193 2.09101 37.4073Z" fill="black"/>
<path d="M8.02838 14.0791C11.9351 11.644 15.0945 9.65201 15.1658 2.73193C8.05494 6.21732 2.69466 12.7378 0.776306 20.5947C2.74536 17.3725 5.48225 15.6642 8.02838 14.0791Z" fill="black"/>
<path d="M8.74187 46.8699C9.6932 34.0535 15.3167 29.5805 20.7699 25.2501C26.694 20.5465 32.2921 16.0893 31.977 0.452726C30.5078 0.178676 28.9987 0.0253527 27.457 0C28.0823 12.8707 22.1848 16.5867 16.4551 20.1554C10.6506 23.7712 4.66009 27.5246 4.19891 41.4287C5.47258 43.4364 6.99978 45.2666 8.74187 46.8699Z" fill="black"/>
<path d="M37.6572 32.7786C43.0682 28.4361 48.1725 24.3024 47.8997 9.89238C46.4425 8.11649 44.7632 6.53496 42.9064 5.1792C42.8303 20.922 36.7107 25.8428 30.7794 30.6019C25.197 35.0821 19.9272 39.3208 19.5409 52.9545C21.7671 53.5944 24.108 53.9577 26.5274 54.0012C27.1636 41.2367 32.4889 36.928 37.6572 32.7786Z" fill="black"/>
<path d="M46.7262 38.4105C42.8509 40.7719 39.4898 42.8424 39.0987 51.146C46.5294 47.4119 52.0068 40.3518 53.5666 31.9263C51.8257 35.2994 49.1854 36.9123 46.7262 38.4105Z" fill="black"/>
<path d="M45.4706 36.3498C49.6212 33.8194 53.5436 31.4314 53.0656 20.3281L53.1899 20.3233C52.5525 17.8194 51.5577 15.4568 50.2731 13.2861C49.7021 26.1677 44.3636 30.4946 39.1711 34.6621C34.2297 38.6243 29.5685 42.3995 28.9515 53.9337C31.6425 53.743 34.2249 53.155 36.6443 52.2315C36.7916 41.6389 41.4009 38.8296 45.4706 36.3498Z" fill="black"/>
<path d="M29.2703 28.7185C35.204 23.9582 40.8106 19.449 40.4822 3.6C38.5892 2.50621 36.5513 1.63577 34.406 1.02368C34.5787 17.3701 28.325 22.3344 22.2717 27.1406C16.7594 31.5169 11.5572 35.6748 11.061 48.7773C12.9287 50.1499 14.9786 51.2836 17.1686 52.1443C17.765 37.9891 23.6058 33.2638 29.2703 28.7185Z" fill="black"/>
</g>
<defs>
<clipPath id="clip0_13_71">
<rect width="54" height="54" fill="white"/>
</clipPath>
</defs>
</svg>
