<svg width="88" height="88" viewBox="0 0 88 88" fill="none" xmlns="http://www.w3.org/2000/svg">
<path d="M82.499 38.4976H64.525L80.0914 29.5106C81.3443 28.776 82.2559 27.5757 82.6271 26.1716C82.9983 24.7675 82.7991 23.2735 82.0729 22.0157C81.3467 20.758 80.1525 19.8385 78.7509 19.4579C77.3492 19.0774 75.854 19.2667 74.5914 19.9846L59.025 28.9702L68.012 13.4052C68.7413 12.142 68.939 10.6407 68.5615 9.23179C68.184 7.82284 67.2622 6.62155 65.999 5.89218C64.7358 5.16287 63.2346 4.96523 61.8256 5.34274C60.4167 5.72025 59.2154 6.64198 58.486 7.90518L49.499 23.4702V5.49756C49.499 4.03887 48.9196 2.63992 47.8881 1.60847C46.8567 0.577021 45.4577 -0.00244141 43.999 -0.00244141C42.5403 -0.00244141 41.1414 0.577021 40.1099 1.60847C39.0785 2.63992 38.499 4.03887 38.499 5.49756V23.4702L29.512 7.90518C28.7827 6.64198 27.5814 5.72025 26.1724 5.34274C24.7635 4.96523 23.2623 5.16287 21.999 5.89218C20.7358 6.62155 19.8141 7.82284 19.4366 9.23179C19.0591 10.6407 19.2567 12.142 19.986 13.4052L28.973 28.9702L13.4066 19.9846C12.1441 19.2667 10.6488 19.0774 9.24719 19.4579C7.84556 19.8385 6.65134 20.758 5.92514 22.0157C5.19894 23.2735 4.99971 24.7675 5.37094 26.1716C5.74217 27.5757 6.65371 28.776 7.90665 29.5106L23.473 38.4976H5.49902C4.04033 38.4976 2.64139 39.077 1.60994 40.1085C0.578486 41.1399 -0.000976562 42.5389 -0.000976562 43.9976C-0.000976562 45.4562 0.578486 46.8552 1.60994 47.8866C2.64139 48.9181 4.04033 49.4976 5.49902 49.4976H23.473L7.90665 58.4846C6.65371 59.2191 5.74217 60.4194 5.37094 61.8235C4.99971 63.2276 5.19894 64.7216 5.92514 65.9794C6.65134 67.2372 7.84556 68.1566 9.24719 68.5372C10.6488 68.9177 12.1441 68.7284 13.4066 68.0106L28.973 59.0249L19.986 74.5899C19.2567 75.8532 19.0591 77.3544 19.4366 78.7633C19.8141 80.1723 20.7358 81.3736 21.999 82.1029C23.2623 82.8322 24.7635 83.0299 26.1724 82.6524C27.5814 82.2749 28.7827 81.3531 29.512 80.0899L38.499 64.5249V82.4976C38.499 83.9563 39.0785 85.3552 40.1099 86.3866C41.1414 87.4181 42.5403 87.9976 43.999 87.9976C45.4577 87.9976 46.8567 87.4181 47.8881 86.3866C48.9196 85.3552 49.499 83.9563 49.499 82.4976V64.5249L58.486 80.0899C59.2154 81.3531 60.4167 82.2749 61.8256 82.6524C63.2346 83.0299 64.7358 82.8322 65.999 82.1029C67.2622 81.3736 68.184 80.1723 68.5615 78.7633C68.939 77.3544 68.7413 75.8532 68.012 74.5899L59.025 59.0249L74.5914 68.0106C75.854 68.7284 77.3492 68.9177 78.7509 68.5372C80.1525 68.1566 81.3467 67.2372 82.0729 65.9794C82.7991 64.7216 82.9983 63.2276 82.6271 61.8235C82.2559 60.4194 81.3443 59.2191 80.0914 58.4846L64.525 49.4976H82.499C83.9577 49.4976 85.3567 48.9181 86.3881 47.8866C87.4196 46.8552 87.999 45.4562 87.999 43.9976C87.999 42.5389 87.4196 41.1399 86.3881 40.1085C85.3567 39.077 83.9577 38.4976 82.499 38.4976ZM85.249 43.9976C85.249 44.7269 84.9593 45.4264 84.4436 45.9421C83.9278 46.4578 83.2284 46.7476 82.499 46.7476H59.399C59.0964 46.7476 58.8021 46.8475 58.562 47.0317C58.3219 47.216 58.1493 47.4743 58.0709 47.7667C57.9926 48.059 58.0129 48.3691 58.1287 48.6487C58.2446 48.9284 58.4494 49.162 58.7115 49.3133L78.7219 60.8633C79.3365 61.2364 79.7805 61.8353 79.9589 62.5317C80.1373 63.2282 80.0358 63.9668 79.6763 64.5894C79.3167 65.212 78.7276 65.669 78.0352 65.8625C77.3428 66.0561 76.6022 65.9708 75.9719 65.6249L55.9615 54.0763C55.6988 53.9207 55.3918 53.857 55.0889 53.8952C54.786 53.9334 54.5045 54.0713 54.2886 54.2871C54.0727 54.503 53.9348 54.7846 53.8967 55.0875C53.8585 55.3904 53.9222 55.6974 54.0778 55.9601L65.6278 75.9704C65.9905 76.6011 66.0885 77.3498 65.9004 78.0526C65.7122 78.7553 65.2533 79.3549 64.624 79.7201C63.9924 80.0847 63.2418 80.1835 62.5373 79.9948C61.8329 79.806 61.2322 79.3452 60.8675 78.7136L49.3148 58.7101C49.1634 58.4479 48.9298 58.2431 48.6502 58.1273C48.3705 58.0114 48.0605 57.9911 47.7681 58.0695C47.4758 58.1478 47.2174 58.3204 47.0332 58.5606C46.8489 58.8007 46.749 59.0949 46.749 59.3976V82.4976C46.749 83.2269 46.4593 83.9264 45.9436 84.4421C45.4278 84.9578 44.7284 85.2476 43.999 85.2476C43.2697 85.2476 42.5702 84.9578 42.0545 84.4421C41.5388 83.9264 41.249 83.2269 41.249 82.4976V59.3976C41.249 59.0949 41.1491 58.8007 40.9649 58.5606C40.7806 58.3204 40.5223 58.1478 40.2299 58.0695C39.9375 57.9911 39.6275 58.0114 39.3479 58.1273C39.0682 58.2431 38.8346 58.4479 38.6833 58.7101L27.1333 78.7204C26.9522 79.0331 26.7114 79.307 26.4245 79.5265C26.1375 79.746 25.8102 79.9069 25.4611 79.9998C25.1119 80.0928 24.7479 80.116 24.3898 80.0683C24.0317 80.0205 23.6866 79.9026 23.374 79.7214C22.7428 79.3568 22.2822 78.7564 22.0935 78.0522C21.9047 77.3481 22.0033 76.5978 22.3675 75.9663L33.9203 55.9601C34.0758 55.6974 34.1396 55.3904 34.1014 55.0875C34.0632 54.7846 33.9253 54.503 33.7095 54.2871C33.4936 54.0713 33.212 53.9334 32.9091 53.8952C32.6062 53.857 32.2992 53.9207 32.0365 54.0763L12.0261 65.6263C11.3959 65.9722 10.6552 66.0575 9.9628 65.8639C9.2704 65.6704 8.68133 65.2134 8.32177 64.5908C7.96222 63.9682 7.86076 63.2296 8.03915 62.5331C8.21754 61.8367 8.66157 61.2378 9.27615 60.8647L29.2865 49.3147C29.5493 49.1636 29.7548 48.93 29.8711 48.6501C29.9874 48.3701 30.008 48.0597 29.9295 47.7669C29.8511 47.4741 29.6782 47.2154 29.4375 47.031C29.1969 46.8467 28.9021 46.747 28.599 46.7476H5.49902C4.76968 46.7476 4.0702 46.4578 3.55448 45.9421C3.03875 45.4264 2.74902 44.7269 2.74902 43.9976C2.74902 43.2682 3.03875 42.5687 3.55448 42.053C4.0702 41.5373 4.76968 41.2476 5.49902 41.2476H28.599C28.9017 41.2475 29.1959 41.1477 29.436 40.9634C29.6762 40.7791 29.8488 40.5208 29.9271 40.2284C30.0054 39.9361 29.9851 39.626 29.8693 39.3464C29.7535 39.0668 29.5486 38.8332 29.2865 38.6818L9.27615 27.1318C8.66157 26.7587 8.21754 26.1598 8.03915 25.4634C7.86076 24.7669 7.96222 24.0283 8.32177 23.4057C8.68133 22.7831 9.2704 22.3261 9.9628 22.1326C10.6552 21.939 11.3959 22.0243 12.0261 22.3702L32.0365 33.9188C32.2992 34.0744 32.6062 34.1381 32.9091 34.0999C33.212 34.0618 33.4936 33.9239 33.7095 33.708C33.9253 33.4921 34.0632 33.2105 34.1014 32.9076C34.1396 32.6047 34.0758 32.2977 33.9203 32.0351L22.3703 12.0247C22.0076 11.394 21.9095 10.6453 22.0977 9.94255C22.2858 9.23977 22.7448 8.64017 23.374 8.27506C24.0056 7.9104 24.7562 7.81158 25.4607 8.00034C26.1652 8.18909 26.7658 8.64996 27.1305 9.28156L38.6805 29.2919C38.8315 29.556 39.0658 29.7625 39.3467 29.8791C39.6276 29.9958 39.9393 30.016 40.2329 29.9366C40.5265 29.8572 40.7855 29.6827 40.9694 29.4404C41.1533 29.1981 41.2516 28.9017 41.249 28.5976V5.49756C41.249 4.76821 41.5388 4.06874 42.0545 3.55301C42.5702 3.03729 43.2697 2.74756 43.999 2.74756C44.7284 2.74756 45.4278 3.03729 45.9436 3.55301C46.4593 4.06874 46.749 4.76821 46.749 5.49756V28.5976C46.749 28.9002 46.8489 29.1944 47.0332 29.4346C47.2174 29.6747 47.4758 29.8473 47.7681 29.9256C48.0605 30.004 48.3705 29.9837 48.6502 29.8678C48.9298 29.752 49.1634 29.5472 49.3148 29.2851L60.8648 9.27468C61.0458 8.96204 61.2867 8.68813 61.5736 8.46861C61.8605 8.24909 62.1879 8.08825 62.537 7.99529C62.8861 7.90233 63.2501 7.87907 63.6082 7.92684C63.9663 7.97461 64.3115 8.09247 64.624 8.27368C65.2552 8.63836 65.7159 9.23876 65.9046 9.9429C66.0933 10.647 65.9947 11.3973 65.6305 12.0288L54.0778 32.0351C53.9222 32.2977 53.8585 32.6047 53.8967 32.9076C53.9348 33.2105 54.0727 33.4921 54.2886 33.708C54.5045 33.9239 54.786 34.0618 55.0889 34.0999C55.3918 34.1381 55.6988 34.0744 55.9615 33.9188L75.9719 22.3688C76.6022 22.0229 77.3428 21.9376 78.0352 22.1312C78.7276 22.3247 79.3167 22.7818 79.6763 23.4043C80.0358 24.0269 80.1373 24.7655 79.9589 25.462C79.7805 26.1585 79.3365 26.7574 78.7219 27.1304L58.7115 38.6818C58.4494 38.8332 58.2446 39.0668 58.1287 39.3464C58.0129 39.626 57.9926 39.9361 58.0709 40.2284C58.1493 40.5208 58.3219 40.7791 58.562 40.9634C58.8021 41.1477 59.0964 41.2475 59.399 41.2476H82.499C83.2284 41.2476 83.9278 41.5373 84.4436 42.053C84.9593 42.5687 85.249 43.2682 85.249 43.9976Z" fill="black"/>
</svg>
