<svg width="92" height="92" viewBox="0 0 92 92" fill="none" xmlns="http://www.w3.org/2000/svg">
<g clip-path="url(#clip0_44_1540)">
<path d="M3.56257 63.731C6.06779 43.2429 16.5103 36.6713 25.8607 30.8484C35.4085 24.9001 43.6667 19.6901 42.6732 0.115234C38.2243 0.438157 33.9502 1.38636 29.9394 2.88784C30.3549 18.4231 22.9955 23.0304 15.8542 27.4793C8.3118 32.1771 1.18693 36.6158 0.740601 54.1317C1.33708 57.4659 2.28528 60.6848 3.56257 63.731Z" fill="black"/>
<path d="M13.678 23.9867C20.3339 19.8381 25.7167 16.4443 25.838 4.65454C13.7233 10.5926 4.59094 21.7016 1.32263 35.0874C4.67732 29.5977 9.34016 26.6873 13.678 23.9867Z" fill="black"/>
<path d="M14.8937 79.8524C16.5144 58.017 26.0952 50.3965 35.3859 43.0186C45.4787 35.0052 55.0163 27.4114 54.4794 0.771312C51.9763 0.304411 49.4052 0.0431935 46.7787 0C47.8441 21.9279 37.7965 28.2588 28.0348 34.3388C18.1455 40.499 7.93952 46.8937 7.15381 70.5822C9.32377 74.0027 11.9257 77.1209 14.8937 79.8524Z" fill="black"/>
<path d="M64.1568 55.8449C73.3755 48.4465 82.0718 41.4039 81.607 16.8536C79.1244 13.828 76.2633 11.1336 73.0999 8.82373C72.9703 35.6448 62.5442 44.0285 52.439 52.1365C42.9282 59.7694 33.9502 66.9909 33.292 90.2187C37.0848 91.3088 41.073 91.9279 45.1949 92.002C46.2788 70.2551 55.3515 62.9143 64.1568 55.8449Z" fill="black"/>
<path d="M79.6077 65.4401C73.0053 69.4632 67.2791 72.9907 66.6127 87.1376C79.2725 80.7758 88.6043 68.7474 91.2617 54.3928C88.2958 60.1396 83.7975 62.8875 79.6077 65.4401Z" fill="black"/>
<path d="M77.4686 61.9292C84.54 57.6181 91.2227 53.5497 90.4082 34.633L90.62 34.6248C89.534 30.3589 87.8392 26.3337 85.6507 22.6355C84.6778 44.5819 75.5825 51.9536 66.7361 59.0538C58.3175 65.8043 50.3761 72.236 49.325 91.8869C53.9097 91.562 58.3092 90.5603 62.4311 88.9868C62.6821 70.9402 70.5351 66.1539 77.4686 61.9292Z" fill="black"/>
<path d="M49.868 48.9278C59.9774 40.8178 69.5293 33.1355 68.9698 6.13342C65.7447 4.26993 62.2728 2.78695 58.6178 1.74414C58.9119 29.5936 48.2575 38.0513 37.9446 46.2396C28.5531 53.6956 19.6902 60.7793 18.8448 83.1021C22.0268 85.4407 25.5193 87.3721 29.2504 88.8386C30.2664 64.7223 40.2174 56.6718 49.868 48.9278Z" fill="black"/>
</g>
<defs>
<clipPath id="clip0_44_1540">
<rect width="92" height="92" fill="white"/>
</clipPath>
</defs>
</svg>
