<svg width="73" height="79" viewBox="0 0 73 79" fill="none" xmlns="http://www.w3.org/2000/svg">
<path d="M71.7326 38.0866C63.7672 38.06 55.4057 36.4206 49.1126 31.1924C43.8229 26.7971 40.6807 20.5586 39.1581 13.9125C38.2075 9.76534 37.8642 5.5207 37.8906 1.27605C37.8906 0.389905 37.1865 0 36.5 0C35.8135 0 35.1094 0.389905 35.1094 1.27605C35.1446 8.51587 34.1324 16.0038 30.779 22.5081C27.584 28.7023 22.3207 33.39 15.7988 35.7738C11.1428 37.4752 6.19629 38.0777 1.26742 38.0955C0.387268 38.0955 0 38.8132 0 39.5044C0 40.1956 0.387268 40.9134 1.26742 40.9134C9.23282 40.94 17.5943 42.5794 23.8874 47.8076C29.1771 52.2029 32.3193 58.4414 33.8419 65.0875C34.7925 69.2347 35.127 73.4793 35.1094 77.7239C35.1094 78.6101 35.8135 79 36.5 79C37.1865 79 37.8906 78.6101 37.8906 77.7239C37.8554 70.4841 38.8676 62.9962 42.221 56.4919C45.416 50.2977 50.6793 45.61 57.2012 43.2262C61.8572 41.5248 66.8037 40.9223 71.7326 40.9045C72.6127 40.9045 73 40.1868 73 39.4956C73 38.8044 72.6127 38.0866 71.7326 38.0866ZM47.5195 45.6897C41.7897 50.3243 38.2955 57.1299 36.6408 64.2457C36.588 64.4583 36.5528 64.6799 36.5 64.8925C35.7519 61.472 34.6253 58.149 33.0058 55.0386C29.5028 48.3039 23.6938 43.3237 16.6261 40.7096C15.2883 40.2133 13.9152 39.8146 12.5246 39.4867C17.1982 38.3613 21.6342 36.4029 25.4717 33.3014C31.2015 28.6669 34.6957 21.8612 36.3504 14.7455C36.4032 14.5328 36.4384 14.3113 36.4912 14.0986C37.2393 17.5191 38.3659 20.8422 39.9854 23.9525C43.4884 30.6873 49.2974 35.6674 56.3651 38.2815C57.7029 38.7778 59.076 39.1766 60.4666 39.5044C55.793 40.6387 51.357 42.5882 47.5195 45.6897Z" fill="white"/>
</svg>
