<svg width="53" height="53" viewBox="0 0 53 53" fill="none" xmlns="http://www.w3.org/2000/svg">
<path d="M51.9861 25.098L44.3824 22.9204C40.9583 21.953 37.8391 20.1211 35.3235 17.6C32.8079 15.0789 30.9799 11.953 30.0146 8.52147L27.8417 0.901276C27.7324 0.634672 27.5465 0.406642 27.3076 0.246162C27.0687 0.0856832 26.7876 0 26.5 0C26.2124 0 25.9313 0.0856832 25.6924 0.246162C25.4535 0.406642 25.2676 0.634672 25.1583 0.901276L22.9854 8.52147C22.0201 11.953 20.1921 15.0789 17.6765 17.6C15.1609 20.1211 12.0417 21.953 8.61758 22.9204L1.01385 25.098C0.721896 25.1811 0.464937 25.3573 0.281966 25.6C0.0989955 25.8426 0 26.1385 0 26.4426C0 26.7468 0.0989955 27.0426 0.281966 27.2853C0.464937 27.5279 0.721896 27.7041 1.01385 27.7872L8.61758 29.9648C12.0417 30.9322 15.1609 32.7642 17.6765 35.2852C20.1921 37.8063 22.0201 40.9322 22.9854 44.3638L25.1583 51.984C25.2412 52.2765 25.417 52.5341 25.6592 52.7174C25.9013 52.9008 26.1965 53 26.5 53C26.8035 53 27.0987 52.9008 27.3408 52.7174C27.583 52.5341 27.7588 52.2765 27.8417 51.984L30.0146 44.3638C30.9799 40.9322 32.8079 37.8063 35.3235 35.2852C37.8391 32.7642 40.9583 30.9322 44.3824 29.9648L51.9861 27.7872C52.2781 27.7041 52.5351 27.5279 52.718 27.2853C52.901 27.0426 53 26.7468 53 26.4426C53 26.1385 52.901 25.8426 52.718 25.6C52.5351 25.3573 52.2781 25.1811 51.9861 25.098Z" fill="white"/>
</svg>
