<svg width="59" height="59" viewBox="0 0 59 59" fill="none" xmlns="http://www.w3.org/2000/svg">
<path d="M29.5 36.8564C25.4391 36.8564 22.1373 33.5546 22.1373 29.4937C22.1373 25.4329 25.4391 22.1311 29.5 22.1311C33.5609 22.1311 36.8626 25.4329 36.8626 29.4937C36.8565 33.5546 33.5547 36.8564 29.5 36.8564ZM29.5 25.223C27.1424 25.223 25.2231 27.1424 25.2231 29.4999C25.2231 31.8575 27.1424 33.7768 29.5 33.7768C31.8575 33.7768 33.7769 31.8575 33.7769 29.4999C33.7769 27.1424 31.8575 25.223 29.5 25.223Z" fill="black"/>
<path d="M29.5124 42.4664C28.6237 42.4664 27.735 42.3738 26.8586 42.1948C23.4705 41.4913 20.5575 39.504 18.6567 36.6096C16.7558 33.7151 16.1016 30.2529 16.8052 26.8585C17.4162 23.9209 19.0393 21.2733 21.366 19.3971C23.6679 17.5456 26.5501 16.5273 29.4877 16.5273C30.3764 16.5273 31.2651 16.6199 32.1415 16.7989C35.5297 17.5024 38.4426 19.4897 40.3435 22.3841C42.2443 25.2786 42.8985 28.7408 42.1949 32.1352C41.5839 35.0729 39.9608 37.7204 37.6342 39.5966C35.326 41.4481 32.4439 42.4664 29.5124 42.4664ZM29.4877 19.6131C24.8405 19.6131 20.7735 22.9211 19.8231 27.4818C18.7122 32.814 22.1497 38.0599 27.482 39.1708C28.1485 39.3127 28.8335 39.3806 29.5062 39.3806C34.1534 39.3806 38.2205 36.0726 39.1709 31.5119C39.7078 28.926 39.2079 26.2907 37.7637 24.0813C36.3196 21.8719 34.0979 20.3599 31.512 19.8229C30.8454 19.6872 30.1604 19.6131 29.4877 19.6131Z" fill="black"/>
<path d="M29.5185 47.8912C28.9507 47.8912 28.3767 47.8666 27.8028 47.811C22.9087 47.3605 18.4899 45.0276 15.3486 41.2506C12.2073 37.4737 10.7323 32.6969 11.1828 27.809C11.6086 23.2174 13.7193 18.9775 17.1384 15.8856C20.5327 12.806 24.9145 11.115 29.4753 11.115C30.0431 11.115 30.617 11.1397 31.191 11.1952C36.085 11.6457 40.5038 13.9786 43.6452 17.7556C46.7865 21.5326 48.2615 26.3093 47.811 31.2034C47.3851 35.795 45.2744 40.0348 41.8554 43.1268C38.4611 46.194 34.0793 47.8912 29.5185 47.8912ZM29.4753 14.1946C21.5325 14.1946 14.9906 20.1687 14.2562 28.0929C13.4786 36.4986 19.681 43.9661 28.0867 44.7437C28.5619 44.7869 29.0433 44.8116 29.5185 44.8116C37.4613 44.8116 44.0031 38.8376 44.7375 30.9133C45.5151 22.5077 39.3127 15.0401 30.9071 14.2625C30.4319 14.2131 29.9505 14.1946 29.4753 14.1946Z" fill="black"/>
<path d="M29.5123 53.421C29.2346 53.421 28.9507 53.4148 28.6668 53.4087C25.4391 53.2976 22.3286 52.557 19.4218 51.2054C16.6138 49.9032 14.1205 48.0888 11.9974 45.8177C9.87443 43.5465 8.24515 40.9298 7.14044 38.0415C5.99253 35.0483 5.47411 31.8946 5.5852 28.6669C5.8012 22.4275 8.39326 16.6077 12.8923 12.2753C17.3729 7.95521 23.2667 5.573 29.4814 5.573C29.7592 5.573 30.043 5.57917 30.3269 5.58534C33.5546 5.69643 36.6651 6.43701 39.5719 7.78858C42.38 9.09077 44.8733 10.9052 46.9963 13.1763C49.1193 15.4475 50.7486 18.0642 51.8533 20.9525C53.0012 23.9457 53.5196 27.0993 53.4085 30.3271C53.1925 36.5665 50.6005 42.3863 46.1014 46.7187C41.6209 51.045 35.7271 53.421 29.5123 53.421ZM29.4814 8.65877C18.1999 8.65877 9.05978 17.4964 8.67097 28.778C8.26982 40.2633 17.2926 49.9279 28.7717 50.3291C29.0186 50.3352 29.2654 50.3414 29.5061 50.3414C40.7877 50.3414 49.9278 41.5038 50.3166 30.2222C50.7178 18.7369 41.6949 9.07226 30.2159 8.67111C29.9752 8.66494 29.7283 8.65877 29.4814 8.65877Z" fill="black"/>
<path d="M29.5 59C25.5194 59 21.656 58.2224 18.0147 56.6795C14.5031 55.1921 11.3495 53.0691 8.64017 50.3598C5.93086 47.6505 3.80168 44.4969 2.32051 40.9853C0.783793 37.344 0 33.4806 0 29.5C0 25.5194 0.777621 21.656 2.32051 18.0147C3.80785 14.5031 5.93086 11.3495 8.64017 8.64017C11.3495 5.93086 14.5031 3.80168 18.0147 2.32051C21.656 0.783793 25.5194 0 29.5 0C33.4806 0 37.344 0.777621 40.9853 2.32051C44.4969 3.80785 47.6505 5.93086 50.3598 8.64017C53.0691 11.3495 55.1983 14.5031 56.6795 18.0147C58.2162 21.656 59 25.5194 59 29.5C59 33.4806 58.2224 37.344 56.6795 40.9853C55.1921 44.4969 53.0691 47.6505 50.3598 50.3598C47.6505 53.0691 44.4969 55.1983 40.9853 56.6795C37.344 58.2224 33.4806 59 29.5 59ZM29.5 3.0796C14.9351 3.0796 3.08577 14.929 3.08577 29.4938C3.08577 44.0587 14.9351 55.908 29.5 55.908C44.0649 55.908 55.9142 44.0587 55.9142 29.4938C55.9142 14.9351 44.0649 3.0796 29.5 3.0796Z" fill="black"/>
</svg>
