<svg width="58" height="176" viewBox="0 0 58 176" fill="none" xmlns="http://www.w3.org/2000/svg">
<path d="M9.46311 4.95396C9.46311 -0.78226 27.3281 3.54874 30.5442 3.85149C36.7182 4.43267 42.8878 5.13136 49.0776 5.52562C50.1368 5.59308 59.1615 5.42783 54.5019 7.48557C39.2443 14.2236 21.3669 14.2358 6.66872 22.1852C4.14463 23.5504 -1.25854 27.9514 4.69622 28.7184C13.166 29.8094 22.3423 27.7721 30.8319 27.4526C36.006 27.2579 44.2711 26.1638 49.1597 28.6367C51.9814 30.0641 39.06 34.9103 38.5575 35.0883C29.7909 38.1931 20.8912 40.8669 12.8328 45.623C9.19954 47.7674 7.63751 49.7448 12.7506 50.5229C19.9015 51.6111 27.413 50.6193 34.5714 50.1554C37.8584 49.9424 53.6737 46.8525 55.9813 50.6046C57.0531 52.3472 11.6513 73.0668 7.40841 75.3081C6.38808 75.8471 -0.267385 79.3603 4.69622 79.7589C13.2424 80.4451 22.7091 77.4547 31.0785 76.084C38.2758 74.9051 45.6303 73.004 52.9404 72.6949C57.8777 72.4861 46.7963 76.9632 46.4476 77.1048C38.3155 80.4064 30.2061 83.7238 22.5309 88.007C19.8939 89.4787 8.62973 94.8914 9.54529 99.4401C10.429 103.831 24.7558 102.676 27.38 102.707C35.0944 102.798 46.2288 101.387 52.8582 106.382C56.8662 109.401 52.7975 112.727 50.0227 114.589C40.6658 120.868 30.0252 125.475 20.1475 130.881C18.5163 131.774 4.09436 138.847 9.17545 142.559C14.1166 146.169 25.5002 143.034 30.9141 142.396C35.5562 141.848 44.5687 139.363 48.9954 141.987C53.2994 144.54 37.5096 151.597 36.6672 151.951C28.3653 155.432 5.1418 164.252 20.5584 174" stroke="white" stroke-width="3" stroke-linecap="round" stroke-linejoin="round"/>
</svg>
