<svg width="54" height="78" viewBox="0 0 54 78" fill="none" xmlns="http://www.w3.org/2000/svg">
<path d="M51.3556 72.5513C51.1773 71.8364 50.7704 72.3877 50.3752 72.0381C50.0559 71.7558 51.005 69.5504 51.0728 69.2559C52.8915 61.3632 51.4142 52.95 48.1131 45.6743C40.2197 28.2771 22.0986 21.0769 3.85762 21.449" stroke="#1E1E1E" stroke-width="2" stroke-linecap="round" stroke-linejoin="round"/>
<path d="M3.14651 24.1179C3.09692 24.0974 1.60204 23.4223 2.48511 23.394C4.11602 23.3417 5.64129 24.7557 6.68091 25.8155C11.191 30.4134 14.5767 36.2419 17.1938 42.0563" stroke="#1E1E1E" stroke-width="2" stroke-linecap="round" stroke-linejoin="round"/>
<path d="M3.28705 21.0011C1.90321 21.168 5.71953 19.6246 6.83822 18.7931C12.2148 14.7965 15.0537 9.22764 17.6785 3.24839" stroke="#1E1E1E" stroke-width="2" stroke-linecap="round" stroke-linejoin="round"/>
</svg>
