<svg width="54" height="66" viewBox="0 0 54 66" fill="none" xmlns="http://www.w3.org/2000/svg">
<path d="M51.9101 32.4368C44.8483 30.8331 38.4874 26.844 33.9593 21.1973C29.4311 15.5506 26.9649 8.44849 26.9649 1.21157V0.362549H26.4259V1.21157C26.4259 8.44849 23.9327 15.5506 19.4181 21.1973C14.9034 26.844 8.529 30.8465 1.46729 32.4368L0.321777 32.7063L1.46729 32.9624C8.529 34.5661 14.9034 38.5551 19.4181 44.2153C23.9327 49.8754 26.4259 56.9641 26.4259 64.201V65.05H26.9649V64.201C26.9649 56.9641 29.4581 49.862 33.9727 44.2153C38.4874 38.5551 44.8618 34.5661 51.9235 32.9624L53.0825 32.6928L51.9101 32.4368Z" fill="black"/>
</svg>
