<svg width="69" height="69" viewBox="0 0 69 69" fill="none" xmlns="http://www.w3.org/2000/svg">
<path d="M2.67184 47.7982C4.55075 32.4322 12.3827 27.5035 19.3954 23.1363C26.5563 18.675 32.7499 14.7676 32.0048 0.0864258C28.6681 0.328618 25.4626 1.03977 22.4544 2.16588C22.766 13.8173 17.2465 17.2728 11.8906 20.6095C6.23376 24.1328 0.890108 27.4618 0.555359 40.5988C1.00272 43.0994 1.71387 45.5136 2.67184 47.7982Z" fill="white"/>
<path d="M10.2585 17.9898C15.2504 14.8784 19.2875 12.333 19.3785 3.49072C10.2924 7.94428 3.44317 16.276 0.991943 26.3154C3.50796 22.1981 7.00509 20.0153 10.2585 17.9898Z" fill="white"/>
<path d="M11.1701 59.8893C12.3857 43.5128 19.5713 37.7974 26.5393 32.264C34.1089 26.2539 41.2621 20.5585 40.8595 0.578484C38.9821 0.228308 37.0538 0.0323951 35.0839 0C35.883 16.4459 28.3472 21.1941 21.0259 25.7541C13.609 30.3743 5.95452 35.1703 5.36523 52.9367C6.9927 55.502 8.94412 57.8407 11.1701 59.8893Z" fill="white"/>
<path d="M48.1175 41.8836C55.0316 36.3348 61.5538 31.0528 61.2052 12.6401C59.3432 10.3709 57.1974 8.35004 54.8249 6.61768C54.7277 26.7335 46.9081 33.0212 39.3292 39.1022C32.1961 44.8269 25.4626 50.2431 24.9689 67.6639C27.8135 68.4815 30.8047 68.9458 33.8961 69.0014C34.7091 52.6912 41.5136 47.1856 48.1175 41.8836Z" fill="white"/>
<path d="M59.7057 49.0799C54.7539 52.0972 50.4592 54.7428 49.9594 65.353C59.4543 60.5817 66.4531 51.5604 68.4462 40.7944C66.2217 45.1045 62.848 47.1655 59.7057 49.0799Z" fill="white"/>
<path d="M58.1014 46.4468C63.4049 43.2135 68.4169 40.1622 67.806 25.9747L67.9649 25.9685C67.1504 22.7691 65.8793 19.7502 64.2379 16.9766C63.5083 33.4364 56.6868 38.9651 50.052 44.2903C43.738 49.3531 37.7819 54.1769 36.9937 68.9151C40.4322 68.6714 43.7318 67.9202 46.8232 66.74C47.0114 53.2051 52.9012 49.6154 58.1014 46.4468Z" fill="white"/>
<path d="M37.4009 36.6959C44.9829 30.6133 52.1469 24.8516 51.7273 4.60006C49.3084 3.20245 46.7045 2.09022 43.9633 1.30811C44.1838 22.1952 36.1931 28.5385 28.4583 34.6797C21.4147 40.2717 14.7676 45.5845 14.1335 62.3266C16.52 64.0805 19.1394 65.5291 21.9377 66.6289C22.6997 48.5417 30.1629 42.5039 37.4009 36.6959Z" fill="white"/>
</svg>
