<svg width="22" height="22" viewBox="0 0 22 22" fill="none" xmlns="http://www.w3.org/2000/svg">
<g clip-path="url(#clip0_0_461)">
<path d="M21.8546 10.6476L16.8547 5.64768C16.6751 5.43795 16.3595 5.4135 16.1497 5.59315C15.94 5.77276 15.9156 6.0884 16.0952 6.29813C16.112 6.31768 16.1302 6.33594 16.1497 6.35265L20.2946 10.5026H0.499976C0.223863 10.5026 0 10.7265 0 11.0026C0 11.2788 0.223863 11.5026 0.499976 11.5026H20.2946L16.1497 15.6475C15.94 15.8271 15.9156 16.1427 16.0952 16.3525C16.2749 16.5622 16.5905 16.5866 16.8002 16.407C16.8197 16.3902 16.838 16.372 16.8547 16.3525L21.8546 11.3525C22.0485 11.1576 22.0485 10.8426 21.8546 10.6476Z" fill="white"/>
</g>
<defs>
<clipPath id="clip0_0_461">
<rect width="22" height="22" fill="white"/>
</clipPath>
</defs>
</svg>
