<svg width="50" height="50" viewBox="0 0 50 50" fill="none" xmlns="http://www.w3.org/2000/svg">
<path d="M44.3359 22.6758C43.6945 22.6772 43.0709 22.8877 42.5599 23.2754C42.0488 23.6631 41.6781 24.2068 41.5039 24.8242H37.1504L36.3115 23.9863C36.1594 23.8402 35.9561 23.7596 35.7451 23.7617C35.5342 23.7639 35.3326 23.8487 35.1835 23.9979C35.0344 24.1471 34.9498 24.3489 34.9478 24.5598C34.9458 24.7707 35.0266 24.974 35.1729 25.126L36.2471 26.2002C36.3982 26.351 36.603 26.4356 36.8164 26.4355H41.5039C41.6548 26.9626 41.9497 27.4372 42.3554 27.8059C42.7612 28.1746 43.2617 28.4229 43.8007 28.5228C44.3398 28.6228 44.896 28.5705 45.407 28.3718C45.9179 28.173 46.3633 27.8358 46.6932 27.3979C47.023 26.9599 47.2243 26.4387 47.2742 25.8928C47.3242 25.3468 47.221 24.7977 46.9761 24.3072C46.7312 23.8167 46.3545 23.4042 45.8881 23.116C45.4217 22.8278 44.8842 22.6754 44.3359 22.6758ZM44.3359 26.9727C44.0704 26.9727 43.8108 26.8939 43.5899 26.7464C43.3691 26.5988 43.197 26.3891 43.0954 26.1437C42.9938 25.8984 42.9672 25.6284 43.019 25.3679C43.0708 25.1075 43.1987 24.8682 43.3865 24.6804C43.5743 24.4926 43.8135 24.3647 44.074 24.3129C44.3345 24.2611 44.6044 24.2877 44.8498 24.3893C45.0952 24.491 45.3049 24.6631 45.4524 24.8839C45.6 25.1047 45.6787 25.3643 45.6787 25.6299C45.6785 25.9859 45.5369 26.3273 45.2851 26.5791C45.0334 26.8308 44.692 26.9724 44.3359 26.9727Z" fill="white"/>
<path d="M44.3359 13.0078C43.6945 13.0092 43.0709 13.2197 42.5599 13.6074C42.0488 13.9951 41.6781 14.5389 41.5039 15.1563H37.8906C37.6769 15.1563 37.472 15.2411 37.3209 15.3922C37.1698 15.5433 37.085 15.7482 37.085 15.9619C37.085 16.1756 37.1698 16.3805 37.3209 16.5316C37.472 16.6827 37.6769 16.7676 37.8906 16.7676H41.5039C41.6548 17.2946 41.9497 17.7692 42.3554 18.1379C42.7611 18.5066 43.2616 18.7549 43.8007 18.8549C44.3397 18.9548 44.896 18.9025 45.4069 18.7038C45.9179 18.5051 46.3633 18.1678 46.6932 17.7299C47.023 17.292 47.2242 16.7708 47.2742 16.2248C47.3242 15.6789 47.221 15.1298 46.9761 14.6393C46.7312 14.1487 46.3544 13.7362 45.8881 13.448C45.4217 13.1598 44.8842 13.0074 44.3359 13.0078ZM44.3359 17.3047C44.0704 17.3047 43.8107 17.2259 43.5899 17.0784C43.3691 16.9308 43.197 16.7211 43.0954 16.4758C42.9937 16.2304 42.9672 15.9604 43.019 15.7C43.0708 15.4395 43.1987 15.2002 43.3865 15.0124C43.5742 14.8246 43.8135 14.6968 44.074 14.6449C44.3344 14.5931 44.6044 14.6197 44.8498 14.7214C45.0952 14.823 45.3049 14.9951 45.4524 15.2159C45.6 15.4367 45.6787 15.6963 45.6787 15.9619C45.6785 16.318 45.5369 16.6594 45.2851 16.9111C45.0334 17.1629 44.692 17.3044 44.3359 17.3047Z" fill="white"/>
<path d="M32.5195 10.0195C32.6253 10.0195 32.7301 9.99867 32.8278 9.95812C32.9255 9.91756 33.0142 9.85809 33.0889 9.78312L36.0762 6.79679H41.4326C41.5557 7.49687 41.9276 8.1289 42.4798 8.57642C43.032 9.02394 43.7274 9.25681 44.4378 9.23211C45.1482 9.20741 45.8257 8.92681 46.3455 8.44202C46.8654 7.95722 47.1925 7.30089 47.2666 6.59396C47.3407 5.88702 47.1568 5.17712 46.7489 4.59504C46.3409 4.01297 45.7363 3.59794 45.0465 3.42644C44.3567 3.25493 43.6282 3.3385 42.9951 3.66174C42.362 3.98499 41.8671 4.52613 41.6016 5.18547H35.7422C35.6364 5.1854 35.5316 5.20624 35.4339 5.2468C35.3362 5.28736 35.2475 5.34683 35.1728 5.42179L31.9502 8.64445C31.8377 8.75712 31.761 8.90061 31.73 9.0568C31.699 9.21299 31.7149 9.37488 31.7759 9.522C31.8368 9.66913 31.9399 9.79491 32.0723 9.88345C32.2047 9.97198 32.3603 10.0193 32.5195 10.0195ZM44.3359 4.95109C44.6015 4.95109 44.8611 5.02984 45.0819 5.17739C45.3028 5.32494 45.4749 5.53465 45.5765 5.78001C45.6781 6.02537 45.7047 6.29535 45.6529 6.55583C45.6011 6.8163 45.4732 7.05556 45.2854 7.24335C45.0976 7.43114 44.8584 7.55903 44.5979 7.61084C44.3374 7.66265 44.0674 7.63606 43.8221 7.53443C43.5767 7.43279 43.367 7.26069 43.2195 7.03987C43.0719 6.81905 42.9932 6.55944 42.9932 6.29386C42.9937 5.9379 43.1353 5.59666 43.387 5.34495C43.6387 5.09324 43.98 4.95161 44.3359 4.95109Z" fill="white"/>
<path d="M5.66407 8.94531C6.30559 8.94408 6.9292 8.73364 7.44029 8.34591C7.95138 7.95819 8.32207 7.41434 8.4961 6.79687H13.9277L16.915 9.7832C17.066 9.9342 17.2708 10.019 17.4844 10.019C17.6979 10.019 17.9027 9.9342 18.0537 9.7832C18.2047 9.63221 18.2895 9.42741 18.2895 9.21387C18.2895 9.00032 18.2047 8.79553 18.0537 8.64453L14.8311 5.42188C14.756 5.34644 14.6666 5.2867 14.5682 5.24613C14.4698 5.20556 14.3643 5.18496 14.2578 5.18555H8.4961C8.34519 4.65848 8.05031 4.18394 7.64459 3.81522C7.23886 3.4465 6.73836 3.19821 6.19931 3.09825C5.66026 2.99829 5.10401 3.05061 4.59306 3.24934C4.0821 3.44807 3.63668 3.78533 3.30683 4.22324C2.97697 4.66115 2.77576 5.18235 2.72578 5.72831C2.6758 6.27427 2.77904 6.82335 3.02391 7.31387C3.26877 7.80439 3.64556 8.21691 4.11194 8.50511C4.57832 8.7933 5.11583 8.94574 5.66407 8.94531ZM5.66407 4.64844C5.92964 4.64844 6.18925 4.72719 6.41007 4.87474C6.63089 5.02228 6.803 5.23199 6.90463 5.47735C7.00626 5.72271 7.03285 5.9927 6.98104 6.25317C6.92923 6.51365 6.80134 6.7529 6.61355 6.94069C6.42576 7.12849 6.1865 7.25637 5.92603 7.30818C5.66556 7.35999 5.39557 7.3334 5.15021 7.23177C4.90485 7.13014 4.69514 6.95803 4.54759 6.73722C4.40005 6.5164 4.32129 6.25679 4.32129 5.99121C4.32155 5.63516 4.46311 5.29378 4.71487 5.04201C4.96663 4.79025 5.30802 4.6487 5.66407 4.64844Z" fill="white"/>
<path d="M13.7529 25.8965L14.8272 24.8223C14.9782 24.6713 15.063 24.4665 15.063 24.2529C15.063 24.0394 14.9782 23.8346 14.8272 23.6836C14.6762 23.5326 14.4714 23.4478 14.2578 23.4478C14.0443 23.4478 13.8395 23.5326 13.6885 23.6836L12.8496 24.5215H8.49611C8.30165 23.8355 7.86564 23.243 7.26853 22.8533C6.67142 22.4636 5.95352 22.303 5.24729 22.4012C4.54106 22.4993 3.89416 22.8496 3.42597 23.3874C2.95778 23.9252 2.69989 24.6141 2.69989 25.3272C2.69989 26.0402 2.95778 26.7291 3.42597 27.2669C3.89416 27.8047 4.54106 28.155 5.24729 28.2531C5.95352 28.3513 6.67142 28.1907 7.26853 27.801C7.86564 27.4113 8.30165 26.8188 8.49611 26.1328H13.1836C13.2894 26.1329 13.3942 26.112 13.4919 26.0715C13.5896 26.0309 13.6783 25.9715 13.7529 25.8965ZM5.66408 26.6699C5.3985 26.6699 5.13889 26.5912 4.91807 26.4436C4.69725 26.2961 4.52515 26.0864 4.42352 25.841C4.32188 25.5957 4.29529 25.3257 4.3471 25.0652C4.39891 24.8047 4.5268 24.5655 4.71459 24.3777C4.90238 24.1899 5.14164 24.062 5.40211 24.0102C5.66259 23.9584 5.93257 23.985 6.17793 24.0866C6.42329 24.1882 6.63301 24.3603 6.78055 24.5811C6.9281 24.802 7.00685 25.0616 7.00685 25.3272C7.00633 25.6831 6.8647 26.0244 6.61299 26.2761C6.36128 26.5278 6.02004 26.6694 5.66408 26.6699Z" fill="white"/>
<path d="M5.66407 18.6133C6.30559 18.6121 6.9292 18.4016 7.44029 18.0139C7.95138 17.6262 8.32207 17.0823 8.4961 16.4648H12.1094C12.3231 16.4648 12.528 16.38 12.6791 16.2289C12.8302 16.0778 12.915 15.8729 12.915 15.6592C12.915 15.4455 12.8302 15.2406 12.6791 15.0895C12.528 14.9384 12.3231 14.8535 12.1094 14.8535H8.4961C8.34519 14.3265 8.05031 13.8519 7.64459 13.4832C7.23886 13.1145 6.73836 12.8662 6.19931 12.7662C5.66026 12.6663 5.10401 12.7186 4.59306 12.9173C4.0821 13.116 3.63668 13.4533 3.30683 13.8912C2.97697 14.3291 2.77576 14.8503 2.72578 15.3963C2.6758 15.9422 2.77904 16.4913 3.02391 16.9818C3.26877 17.4724 3.64556 17.8849 4.11194 18.1731C4.57832 18.4613 5.11583 18.6137 5.66407 18.6133ZM5.66407 14.3164C5.92964 14.3164 6.18925 14.3952 6.41007 14.5427C6.63089 14.6903 6.803 14.9 6.90463 15.1453C7.00626 15.3907 7.03285 15.6607 6.98104 15.9211C6.92923 16.1816 6.80134 16.4209 6.61355 16.6087C6.42576 16.7965 6.1865 16.9243 5.92603 16.9762C5.66556 17.028 5.39557 17.0014 5.15021 16.8997C4.90485 16.7981 4.69514 16.626 4.54759 16.4052C4.40005 16.1844 4.32129 15.9248 4.32129 15.6592C4.32155 15.3031 4.46311 14.9617 4.71487 14.71C4.96663 14.4582 5.30802 14.3167 5.66407 14.3164Z" fill="white"/>
<path d="M16.0478 13.0185C15.9277 13.0197 15.8089 13.0449 15.6986 13.0926C15.5883 13.1403 15.4885 13.2094 15.4053 13.2961C15.322 13.3827 15.2568 13.4851 15.2135 13.5973C15.1703 13.7094 15.1498 13.829 15.1533 13.9492C15.5547 28.0029 25 30.8496 25 30.8496C25 30.8496 34.4453 28.0029 34.8467 13.9492C34.8502 13.829 34.8297 13.7094 34.7865 13.5973C34.7432 13.4851 34.678 13.3827 34.5947 13.2961C34.5114 13.2094 34.4117 13.1403 34.3014 13.0926C34.191 13.0449 34.0723 13.0197 33.9521 13.0185H32.1709C29.5342 13.0185 27.0498 11.7402 25.3535 9.54388C25.3127 9.48856 25.2594 9.44359 25.198 9.41261C25.1366 9.38162 25.0688 9.36548 25 9.36548C24.9312 9.36548 24.8634 9.38162 24.802 9.41261C24.7406 9.44359 24.6873 9.48856 24.6465 9.54388C22.9502 11.7402 20.4619 13.0185 17.8291 13.0185H16.0478ZM25 16.7294C25.4975 16.7308 25.9792 16.9048 26.3627 17.2217C26.7462 17.5387 27.0079 17.9789 27.1029 18.4672C27.198 18.9556 27.1207 19.4618 26.8841 19.8995C26.6475 20.3372 26.2663 20.6792 25.8057 20.8671V23.1747C25.8057 23.3884 25.7208 23.5933 25.5697 23.7444C25.4186 23.8955 25.2137 23.9804 25 23.9804C24.7863 23.9804 24.5814 23.8955 24.4303 23.7444C24.2792 23.5933 24.1943 23.3884 24.1943 23.1747V20.871C23.7337 20.6831 23.3525 20.3411 23.1159 19.9034C22.8793 19.4657 22.8019 18.9595 22.897 18.4711C22.9921 17.9828 23.2538 17.5426 23.6373 17.2256C24.0208 16.9087 24.5025 16.7347 25 16.7333V16.7294Z" fill="white"/>
<path d="M41.4443 32.6436L29.3281 37.5264C29.3115 37.6621 29.3135 37.7978 29.2871 37.9326C29.0576 39.078 28.4392 40.1088 27.5367 40.8504C26.6342 41.592 25.5031 41.9988 24.335 42.002C23.9628 42.0016 23.5918 41.9607 23.2285 41.8799L15.7451 40.2197C15.6073 40.1891 15.4769 40.1317 15.3613 40.0507C15.2457 39.9697 15.1472 39.8668 15.0714 39.7477C14.9955 39.6286 14.9439 39.4958 14.9195 39.3568C14.895 39.2178 14.8981 39.0753 14.9287 38.9375C14.9593 38.7997 15.0167 38.6693 15.0977 38.5537C15.1787 38.4381 15.2817 38.3395 15.4007 38.2637C15.5198 38.1879 15.6526 38.1363 15.7917 38.1118C15.9307 38.0874 16.0731 38.0905 16.2109 38.1211L23.6943 39.7812C24.2645 39.9084 24.8598 39.8614 25.4029 39.6461C25.946 39.4309 26.4119 39.0575 26.7402 38.5742C26.8135 38.4614 26.8788 38.3436 26.9355 38.2217C26.959 38.1738 26.9912 38.1309 27.0117 38.0811C27.0782 37.9194 27.1298 37.752 27.166 37.5811C27.1709 37.5586 27.1816 37.5381 27.1865 37.5156C27.1914 37.4932 27.1865 37.4668 27.1934 37.4434C27.2242 37.2758 27.2409 37.1059 27.2432 36.9355C27.2432 36.8672 27.2275 36.8008 27.2236 36.7324C27.2179 36.6101 27.2051 36.4881 27.1855 36.3672C27.1699 36.2891 27.1387 36.2148 27.1162 36.1387C27.0897 36.0333 27.0571 35.9297 27.0186 35.8281C26.9468 35.6537 26.8578 35.4869 26.7529 35.3301C26.6484 35.1729 26.5287 35.0263 26.3955 34.8926C26.3101 34.8125 26.2201 34.7375 26.126 34.668C26.0713 34.624 26.0215 34.5703 25.9629 34.5332C25.8526 34.4634 25.7378 34.4011 25.6191 34.3467C25.5645 34.3193 25.5156 34.2842 25.459 34.2607C25.2864 34.1896 25.1076 34.1346 24.9248 34.0967C24.9172 34.0949 24.9097 34.0926 24.9023 34.0898L20.8545 33.2803L10.4404 31.1963V42.7373L23.2764 46.6875C24.6765 47.1179 26.1833 47.0422 27.5332 46.4736L44.2324 39.4424C45.1173 39.061 45.8171 38.3473 46.1809 37.4551C46.5447 36.5628 46.5435 35.5633 46.1775 34.6719C45.8115 33.7805 45.11 33.0685 44.2242 32.6893C43.3383 32.3101 42.339 32.294 41.4414 32.6445L41.4443 32.6436Z" fill="white"/>
<path d="M3.51562 32.2705V41.6631C3.51562 41.948 3.6288 42.2212 3.83026 42.4227C4.03171 42.6241 4.30494 42.7373 4.58984 42.7373H8.29199V31.1963H4.58984C4.30494 31.1963 4.03171 31.3095 3.83026 31.5109C3.6288 31.7124 3.51563 31.9856 3.51562 32.2705Z" fill="white"/>
</svg>
