<svg width="164" height="164" viewBox="0 0 164 164" fill="none" xmlns="http://www.w3.org/2000/svg">
<path d="M149.099 65.6942C148.144 66.6497 148.144 68.1977 149.099 69.1532C152.525 72.5786 154.412 77.1412 154.412 82C154.412 86.8588 152.525 91.4188 149.099 94.8442C148.144 95.7997 148.144 97.3478 149.099 98.3033C150.055 99.2587 151.603 99.2587 152.558 98.3033C156.908 93.9557 159.304 88.1654 159.304 82C159.304 75.8346 156.908 70.0443 152.558 65.6942C151.603 64.7387 150.055 64.7387 149.099 65.6942Z" fill="#3E3E3E"/>
<path d="M125.98 35.5243C125.98 45.1128 106.289 52.8913 81.9991 52.8913C57.7094 52.8913 38.0186 45.1128 38.0186 35.5243C38.0186 25.911 57.7094 18.1326 81.9991 18.1326C106.289 18.1326 125.98 25.911 125.98 35.5243Z" fill="#FDABFF"/>
<path d="M101.678 35.5167C101.678 38.9847 92.8675 41.7983 81.9989 41.7983C71.1304 41.7983 62.3196 38.9847 62.3196 35.5167C62.3196 32.0397 71.1304 29.2261 81.9989 29.2261C92.8675 29.2261 101.678 32.0397 101.678 35.5167Z" fill="#CECED0"/>
<path d="M38.0183 128.501C38.0183 138.089 57.7092 145.868 81.9988 145.868C106.288 145.868 125.979 138.089 125.979 128.501V35.5244C125.979 45.113 106.288 52.8914 81.9988 52.8914C57.7092 52.8914 38.0183 45.113 38.0183 35.5244V128.501Z" fill="white"/>
<path d="M35.571 35.5243V128.5C35.571 139.796 55.5316 148.314 81.9991 148.314C108.466 148.314 128.425 139.796 128.425 128.5V35.5243C128.425 24.2135 108.466 15.6858 81.9991 15.6858C55.5316 15.6858 35.571 24.2135 35.571 35.5243ZM123.532 128.5C123.532 135.558 106.474 143.422 81.9991 143.422C57.5214 143.422 40.4632 135.559 40.4632 128.5V44.6709C50.0793 52.9458 69.077 55.3366 81.9991 55.3366C94.7414 55.3366 113.861 52.99 123.532 44.6709V128.5ZM123.532 35.5243C123.532 42.5808 106.474 50.4445 81.9991 50.4445C57.5214 50.4445 40.4632 42.5808 40.4632 35.5243C40.4632 28.456 57.5214 20.5779 81.9991 20.5779C106.474 20.5779 123.532 28.456 123.532 35.5243Z" fill="#3E3E3E"/>
<path d="M59.8745 35.5172C59.8745 41.5442 70.9871 44.2435 81.9991 44.2435C93.0112 44.2435 104.124 41.5442 104.124 35.5172C104.124 29.4809 93.0112 26.7791 81.9991 26.7791C70.9871 26.7791 59.8745 29.4806 59.8745 35.5172ZM81.9991 39.351C70.9894 39.351 65.1991 36.5322 64.7522 35.6174C65.1965 34.4947 70.9772 31.6712 81.9991 31.6712C92.6985 31.6712 98.46 34.3323 99.1935 35.5146C98.4529 36.6972 92.6841 39.351 81.9991 39.351Z" fill="#3E3E3E"/>
<path d="M59.3538 72.6982H56.7714C55.4194 72.6982 54.3252 73.7924 54.3252 75.1445C54.3252 76.4965 55.4194 77.5907 56.7714 77.5907H59.3538C60.7058 77.5907 61.8 76.4965 61.8 75.1445C61.8 73.7924 60.7058 72.6982 59.3538 72.6982Z" fill="#3E3E3E"/>
<path d="M75.3108 72.6982H72.7285C71.3764 72.6982 70.2822 73.7924 70.2822 75.1445C70.2822 76.4965 71.3764 77.5907 72.7285 77.5907H75.3108C76.6628 77.5907 77.757 76.4965 77.757 75.1445C77.757 73.7924 76.6628 72.6982 75.3108 72.6982Z" fill="#3E3E3E"/>
<path d="M91.2676 72.6982H88.6852C87.3332 72.6982 86.239 73.7924 86.239 75.1445C86.239 76.4965 87.3332 77.5907 88.6852 77.5907H91.2676C92.6196 77.5907 93.7138 76.4965 93.7138 75.1445C93.7138 73.7924 92.6196 72.6982 91.2676 72.6982Z" fill="#3E3E3E"/>
<path d="M107.227 72.6982H104.644C103.292 72.6982 102.198 73.7924 102.198 75.1445C102.198 76.4965 103.292 77.5907 104.644 77.5907H107.227C108.579 77.5907 109.673 76.4965 109.673 75.1445C109.673 73.7924 108.579 72.6982 107.227 72.6982Z" fill="#3E3E3E"/>
<path d="M59.3538 83.9158H56.7714C55.4194 83.9158 54.3252 85.01 54.3252 86.362C54.3252 87.714 55.4194 88.8082 56.7714 88.8082H59.3538C60.7058 88.8082 61.8 87.714 61.8 86.362C61.8 85.01 60.7058 83.9158 59.3538 83.9158Z" fill="#3E3E3E"/>
<path d="M75.3108 83.9158H72.7285C71.3764 83.9158 70.2822 85.01 70.2822 86.362C70.2822 87.714 71.3764 88.8082 72.7285 88.8082H75.3108C76.6628 88.8082 77.757 87.714 77.757 86.362C77.757 85.01 76.6628 83.9158 75.3108 83.9158Z" fill="#3E3E3E"/>
<path d="M91.2676 83.9158H88.6852C87.3332 83.9158 86.239 85.01 86.239 86.362C86.239 87.714 87.3332 88.8082 88.6852 88.8082H91.2676C92.6196 88.8082 93.7138 87.714 93.7138 86.362C93.7135 85.01 92.6196 83.9158 91.2676 83.9158Z" fill="#3E3E3E"/>
<path d="M107.227 83.9158H104.644C103.292 83.9158 102.198 85.01 102.198 86.362C102.198 87.714 103.292 88.8082 104.644 88.8082H107.227C108.579 88.8082 109.673 87.714 109.673 86.362C109.673 85.01 108.579 83.9158 107.227 83.9158Z" fill="#3E3E3E"/>
<path d="M59.3538 95.1335H56.7714C55.4194 95.1335 54.3252 96.2277 54.3252 97.5798C54.3252 98.9318 55.4194 100.026 56.7714 100.026H59.3538C60.7058 100.026 61.8 98.9318 61.8 97.5798C61.8 96.2274 60.7058 95.1335 59.3538 95.1335Z" fill="#3E3E3E"/>
<path d="M75.3108 95.1335H72.7285C71.3764 95.1335 70.2822 96.2277 70.2822 97.5798C70.2822 98.9318 71.3764 100.026 72.7285 100.026H75.3108C76.6628 100.026 77.757 98.9318 77.757 97.5798C77.757 96.2274 76.6628 95.1335 75.3108 95.1335Z" fill="#3E3E3E"/>
<path d="M91.2676 95.1335H88.6852C87.3332 95.1335 86.239 96.2277 86.239 97.5798C86.239 98.9318 87.3332 100.026 88.6852 100.026H91.2676C92.6196 100.026 93.7138 98.9318 93.7138 97.5798C93.7135 96.2274 92.6196 95.1335 91.2676 95.1335Z" fill="#3E3E3E"/>
<path d="M107.227 95.1335H104.644C103.292 95.1335 102.198 96.2277 102.198 97.5798C102.198 98.9318 103.292 100.026 104.644 100.026H107.227C108.579 100.026 109.673 98.9318 109.673 97.5798C109.673 96.2274 108.579 95.1335 107.227 95.1335Z" fill="#3E3E3E"/>
<path d="M59.3538 106.351H56.7714C55.4194 106.351 54.3252 107.446 54.3252 108.798C54.3252 110.15 55.4194 111.244 56.7714 111.244H59.3538C60.7058 111.244 61.8 110.15 61.8 108.798C61.8 107.445 60.7058 106.351 59.3538 106.351Z" fill="#3E3E3E"/>
<path d="M75.3108 106.351H72.7285C71.3764 106.351 70.2822 107.446 70.2822 108.798C70.2822 110.15 71.3764 111.244 72.7285 111.244H75.3108C76.6628 111.244 77.757 110.15 77.757 108.798C77.757 107.445 76.6628 106.351 75.3108 106.351Z" fill="#3E3E3E"/>
<path d="M91.2676 106.351H88.6852C87.3332 106.351 86.239 107.446 86.239 108.798C86.239 110.15 87.3332 111.244 88.6852 111.244H91.2676C92.6196 111.244 93.7138 110.15 93.7138 108.798C93.7135 107.445 92.6196 106.351 91.2676 106.351Z" fill="#3E3E3E"/>
<path d="M107.227 106.351H104.644C103.292 106.351 102.198 107.446 102.198 108.798C102.198 110.15 103.292 111.244 104.644 111.244H107.227C108.579 111.244 109.673 110.15 109.673 108.798C109.673 107.445 108.579 106.351 107.227 106.351Z" fill="#3E3E3E"/>
<path d="M142.497 91.7008C143.452 92.6563 145 92.6563 145.956 91.7008C148.545 89.1137 149.971 85.6693 149.971 82.0002C149.971 78.331 148.545 74.8863 145.956 72.2969C145 71.3414 143.452 71.3414 142.497 72.2969C141.541 73.2524 141.541 74.8005 142.497 75.756C144.162 77.421 145.079 79.6379 145.079 82.0002C145.079 84.3602 144.162 86.5771 142.497 88.2421C141.541 89.1976 141.541 90.7453 142.497 91.7008Z" fill="#3E3E3E"/>
<path d="M135.894 85.1007C136.85 86.0562 138.397 86.0562 139.353 85.1007C141.064 83.3903 141.064 80.6099 139.353 78.8995C138.398 77.944 136.85 77.944 135.894 78.8995C135.051 79.7429 134.953 81.0494 135.598 82.0001C134.953 82.9508 135.051 84.2573 135.894 85.1007Z" fill="#3E3E3E"/>
<path d="M14.8966 98.3058C15.852 97.3503 15.852 95.8023 14.8966 94.8468C7.81636 87.764 7.81636 76.236 14.8966 69.1532C15.852 68.1977 15.852 66.6497 14.8966 65.6942C13.9411 64.7387 12.393 64.7387 11.4375 65.6942C2.44857 74.6853 2.44857 89.3143 11.4375 98.3055C12.393 99.261 13.9411 99.2613 14.8966 98.3058Z" fill="#3E3E3E"/>
<path d="M21.4991 72.2969C20.5436 71.3414 18.9955 71.3414 18.04 72.2969C12.6914 77.6478 12.6914 86.3523 18.04 91.7031C18.9955 92.6586 20.5432 92.6586 21.4991 91.7031C22.4545 90.7476 22.4545 89.1995 21.4991 88.244C18.0592 84.8019 18.0592 79.1978 21.4991 75.7557C22.4545 74.8005 22.4545 73.2524 21.4991 72.2969Z" fill="#3E3E3E"/>
<path d="M28.1039 78.8995C27.1484 77.944 25.6003 77.944 24.6448 78.8995C23.8136 79.7307 23.3572 80.8319 23.3572 82.0023C23.3594 83.1728 23.8181 84.274 24.6471 85.1007C25.6122 86.061 27.1599 86.0469 28.1061 85.0959C28.947 84.2525 29.045 82.9485 28.4024 81.9975C29.045 81.0469 28.9473 79.7429 28.1039 78.8995Z" fill="#3E3E3E"/>
<circle cx="147.5" cy="136.5" r="16.5" fill="black"/>
<path fill-rule="evenodd" clip-rule="evenodd" d="M156.614 129.649C157.033 130.016 157.072 130.656 156.698 131.071L146.184 142.741C145.809 143.157 145.164 143.184 144.756 142.799L138.672 137.072C138.292 136.715 138.256 136.119 138.581 135.713C138.941 135.264 139.61 135.202 140.037 135.586L144.757 139.832C145.168 140.201 145.799 140.168 146.169 139.758L155.212 129.732C155.578 129.326 156.202 129.289 156.614 129.649Z" fill="white"/>
</svg>
