<svg width="29" height="29" viewBox="0 0 29 29" fill="none" xmlns="http://www.w3.org/2000/svg">
<mask id="mask0_2166_50" style="mask-type:alpha" maskUnits="userSpaceOnUse" x="0" y="0" width="29" height="29">
<path d="M14.4239 28.6293C22.269 28.6293 28.6287 22.2696 28.6287 14.4245C28.6287 6.57942 22.269 0.219727 14.4239 0.219727C6.57881 0.219727 0.219116 6.57942 0.219116 14.4245C0.219116 22.2696 6.57881 28.6293 14.4239 28.6293Z" fill="#171817"/>
</mask>
<g mask="url(#mask0_2166_50)">
<path d="M14.4239 28.6293C22.269 28.6293 28.6287 22.2696 28.6287 14.4245C28.6287 6.57942 22.269 0.219727 14.4239 0.219727C6.57881 0.219727 0.219116 6.57942 0.219116 14.4245C0.219116 22.2696 6.57881 28.6293 14.4239 28.6293Z" fill="#171817"/>
<path fill-rule="evenodd" clip-rule="evenodd" d="M22.3182 9.4718C22.6506 9.76267 22.6808 10.2694 22.3851 10.5976L14.0616 19.8362C13.7644 20.1661 13.254 20.187 12.9308 19.8827L8.11423 15.3484C7.81385 15.0656 7.7851 14.5944 8.04281 14.2723C8.32718 13.9168 8.85673 13.8679 9.19516 14.1723L12.9321 17.5336C13.2569 17.8257 13.7569 17.7996 14.0495 17.4753L21.2089 9.53729C21.4986 9.21606 21.9927 9.18694 22.3182 9.4718Z" fill="white"/>
</g>
</svg>
