<svg width="128" height="173" viewBox="0 0 128 173" fill="none" xmlns="http://www.w3.org/2000/svg">
<path d="M114.622 121.623C114.537 123.695 113.79 125.937 112.615 127.603C107.789 134.415 100.144 141.995 89.8942 150.131C84.9828 154.018 80.9682 156.644 77.4234 158.972C71.3588 162.944 67.0026 165.805 62.3901 172.318C62.0698 172.767 61.5786 173.002 61.0875 173.002C60.7672 173.002 60.4469 172.916 60.1693 172.703C59.4432 172.19 59.2724 171.186 59.7849 170.46C64.739 163.456 69.5651 160.296 75.6724 156.281C79.1531 153.996 83.1036 151.413 87.9083 147.611C97.9234 139.668 105.355 132.301 110.01 125.745C111.483 123.652 112.402 119.659 109.775 117.31C107.682 115.431 105.013 115.623 101.639 117.886C101.746 120.769 100.379 124.143 97.5817 127.645C92.7984 133.646 87.3531 138.451 77.4661 145.348C77.1885 145.54 76.8682 145.626 76.5479 145.626C76.0354 145.626 75.5443 145.391 75.2239 144.942C74.7114 144.216 74.9036 143.213 75.6297 142.721C85.239 136.016 90.5135 131.382 95.0833 125.638C96.3219 124.079 97.2614 122.499 97.838 121.026C98.3932 119.595 98.564 118.378 98.3719 117.31C98.2437 116.627 97.9661 116.007 97.5177 115.452C97.0693 114.897 95.6812 113.189 91.7094 114.47C90.0437 115.004 88.4422 116.242 86.7552 117.566C86.3922 117.844 86.0291 118.121 85.6448 118.42C85.1109 120.065 83.9791 121.944 82.2495 124.079C79.6656 127.24 76.676 129.866 75.8005 130.614C70.3765 135.226 65.5719 138.365 58.6958 141.803C57.9057 142.188 56.9448 141.867 56.539 141.077C56.1333 140.287 56.475 139.326 57.2651 138.92C63.9062 135.61 68.5187 132.6 73.7291 128.158C77.8719 124.634 82.0573 120.043 82.6765 117.224C82.762 116.306 82.8687 115.025 81.0963 113.829C79.7083 112.89 77.5515 112.74 75.8646 113.274C73.9 113.893 69.437 116.797 65.8494 119.146C63.3724 120.769 61.237 122.157 59.913 122.841C41.826 132.108 35.5906 129.332 28.7573 124.4C27.2625 123.31 25.3833 121.752 23.3974 120.086C19.6817 116.99 15.475 113.466 12.9552 112.463C10.4567 111.459 7.18956 111.587 5.67342 112.761C4.86196 113.381 4.54164 114.32 4.69112 115.58C4.99008 117.972 8.47081 122.307 11.2469 125.788C13.4463 128.521 15.3469 130.891 16.0943 132.642C21.3047 144.878 8.96196 158.737 3.68748 164.652C3.49529 164.887 3.3031 165.101 3.11092 165.293C2.7906 165.656 2.36352 165.827 1.91508 165.827C1.53071 165.827 1.16769 165.698 0.847373 165.421C0.185394 164.844 0.121333 163.819 0.71925 163.157C0.890083 162.965 1.08227 162.73 1.29581 162.517C3.75154 159.762 7.87289 155.128 10.7984 149.811C14.2151 143.618 14.9838 138.258 13.126 133.881C12.5495 132.535 10.6062 130.101 8.72706 127.773C5.37446 123.588 1.89373 119.253 1.488 115.965C1.18904 113.573 1.97914 111.523 3.68748 110.22C6.46352 108.085 11.0333 108.256 14.1083 109.494C17.0765 110.69 21.3047 114.214 25.3833 117.63C27.3265 119.253 29.163 120.791 30.5724 121.794C34.0104 124.271 36.5729 125.638 40.2885 125.723C44.7515 125.852 50.4958 124.015 58.3969 119.979C59.5713 119.381 61.7495 117.951 64.0557 116.456C68.1984 113.744 72.4906 110.946 74.8609 110.199C77.4448 109.388 80.4557 109.729 82.6979 111.075C84.0646 111.886 85.0469 113.039 85.5807 114.384C87.1609 113.189 88.8052 112.035 90.6844 111.416C95.7026 109.793 98.5 111.608 99.9734 113.423C100.272 113.786 100.529 114.192 100.742 114.598C106.059 111.438 109.69 112.932 111.868 114.897C113.79 116.627 114.729 118.933 114.622 121.623ZM106.978 58.8209C107.277 59.5683 107.084 60.1235 106.615 60.5506C98.6495 68.473 90.3213 76.4167 82.2281 84.0828C74.1776 91.749 65.8281 99.65 57.9057 107.551C57.0302 108.363 56.2828 108.298 55.5995 107.508C48.4245 99.6927 40.8437 91.749 33.5192 84.0401C26.1734 76.3313 18.5927 68.3662 11.3963 60.5292C10.9479 60.0167 10.8198 59.4188 11.1401 58.7568C15.838 49.062 25.0203 35.9933 25.426 35.4381C25.725 35.011 26.2375 34.7547 26.75 34.7547L92.9052 35.374C93.439 35.374 93.8875 35.5662 94.2078 36.0787C94.7203 36.8047 103.027 48.6349 106.978 58.8209ZM63.5432 38.2995C65.3156 40.7125 67.1307 43.0188 68.9031 45.261C71.7646 48.8698 74.4765 52.3078 76.8896 56.0021C79.0677 53.1193 81.3312 50.0016 83.5094 46.9479C85.5166 44.1292 87.588 41.2464 89.638 38.5558L63.5432 38.2995ZM57.9911 42.7412C54.126 47.6313 50.1541 52.6495 46.7588 57.4756C55.45 57.4115 64.0984 57.3901 74.0067 57.4542C71.7005 53.9948 69.1166 50.7063 66.4047 47.2469C64.4614 44.7912 62.4541 42.25 60.4896 39.5594C59.6995 40.5844 58.8666 41.6521 57.9911 42.7412ZM29.6541 38.0006C34.4375 43.2323 39.114 49.1474 43.8974 55.9808C47.3995 50.9839 51.4995 45.7948 55.4927 40.7552C56.176 39.9011 56.8166 39.0683 57.4573 38.2568L29.6541 38.0006ZM15.1974 57.8172L18.8276 57.7745C26.8781 57.6677 34.0745 57.5823 41.0573 57.5183C36.1885 50.5995 31.4265 44.6417 26.5791 39.3886C24.0594 43.0828 18.7849 51.0266 15.1974 57.8172ZM53.7416 100.782C52.2682 95.1016 50.5172 88.9943 48.8088 83.0578C46.6307 75.4771 44.3672 67.6401 42.7015 60.7C35.2062 60.7641 27.5401 60.8709 18.8703 60.9776L16.201 61.0203C22.65 67.9818 29.3338 75.0073 35.8469 81.8407C41.762 88.0547 47.8479 94.4396 53.7416 100.782ZM63.6073 86.3677C67.5578 77.2922 71.6364 67.9391 74.4125 60.636C64.0344 60.5719 55.0656 60.5933 45.9901 60.6573C47.613 67.3412 49.7698 74.8578 51.8838 82.1396C53.7416 88.5672 55.6422 95.187 57.1797 101.273C59.2083 96.5323 61.4291 91.386 63.6073 86.3677ZM101.66 60.9563C92.7557 60.8068 84.9614 60.7214 77.8505 60.6787C75.0317 68.1953 70.7182 78.0823 66.5542 87.649C64.8031 91.6636 63.0307 95.7636 61.3437 99.6714C67.5364 93.6282 73.8573 87.6063 80.0286 81.7552C87.1823 74.9646 94.5495 67.9818 101.66 60.9563ZM103.07 57.7745C99.9734 50.7063 95.062 43.0828 92.7984 39.6875C90.5989 42.5917 88.3354 45.7308 86.1359 48.8058C84.0432 51.7099 81.9078 54.6995 79.8151 57.4756C86.7552 57.5396 94.3786 57.6464 103.07 57.7745ZM58.6317 20.1912C59.4859 20.1912 60.1906 19.5292 60.2333 18.675L61.1729 1.74118C61.2156 0.865658 60.5536 0.096909 59.6567 0.0542007C58.7812 0.0114923 58.0125 0.673471 57.9698 1.57035L57.0302 18.5042C56.9875 19.3797 57.6495 20.1485 58.5463 20.1912H58.6317ZM84.7479 21.9209C85.1963 21.9209 85.6448 21.7287 85.9651 21.3443L98.2437 6.82347C98.8203 6.14014 98.7349 5.13649 98.0515 4.55993C97.3682 3.98337 96.3646 4.06878 95.788 4.75212L83.5094 19.2729C82.9328 19.9563 83.0182 20.9599 83.7015 21.5365C84.0219 21.7927 84.3849 21.9209 84.7479 21.9209ZM33.989 23.3516C34.2666 23.3516 34.5229 23.2875 34.7791 23.1381C35.5479 22.711 35.8255 21.7287 35.3771 20.9599L25.0844 2.80889C24.6573 2.04014 23.675 1.76253 22.9062 2.21097C22.1375 2.63805 21.8599 3.62035 22.3083 4.3891L32.601 22.5401C32.9 23.0526 33.4338 23.3516 33.989 23.3516Z" fill="#222222"/>
<circle cx="111.5" cy="90.5" r="16.5" fill="black"/>
<path fill-rule="evenodd" clip-rule="evenodd" d="M120.614 83.6488C121.033 84.0163 121.072 84.6564 120.698 85.0709L110.184 96.7407C109.809 97.1574 109.164 97.1839 108.756 96.7995L102.672 91.0719C102.292 90.7147 102.256 90.1195 102.581 89.7126C102.941 89.2636 103.61 89.2018 104.037 89.5863L108.757 93.8322C109.168 94.2012 109.799 94.1682 110.169 93.7585L119.212 83.7316C119.578 83.3258 120.202 83.289 120.614 83.6488Z" fill="white"/>
</svg>
