<svg width="170" height="170" viewBox="0 0 170 170" fill="none" xmlns="http://www.w3.org/2000/svg">
<path d="M162.031 82.3438V92.9688C162.031 98.8125 157.25 103.594 151.406 103.594C151.406 121.178 137.116 135.469 119.531 135.469L92.9688 162.031V135.469H50.4688C32.8844 135.469 18.5938 121.178 18.5938 103.594C12.75 103.594 7.96875 98.8125 7.96875 92.9688V82.3438C7.96875 76.5 12.75 71.7188 18.5938 71.7188V63.75C18.5938 41.7563 36.4438 23.9062 58.4375 23.9062H111.562C133.556 23.9062 151.406 41.7563 151.406 63.75V71.7188C157.25 71.7188 162.031 76.5 162.031 82.3438Z" fill="#AFFBCE"/>
<path d="M111.562 23.9062H58.4375C36.4438 23.9062 18.5938 41.7563 18.5938 63.75V71.7188C18.5938 49.725 36.4438 31.875 58.4375 31.875H111.562C133.556 31.875 151.406 49.725 151.406 71.7188V63.75C151.406 41.7563 133.556 23.9062 111.562 23.9062Z" fill="white"/>
<path d="M7.96875 82.3438V90.3125C7.96875 84.4688 12.75 79.6875 18.5938 79.6875V71.7188C12.75 71.7188 7.96875 76.5 7.96875 82.3438Z" fill="white"/>
<path d="M151.406 71.7188V79.6875C157.25 79.6875 162.031 84.4688 162.031 90.3125V82.3438C162.031 76.5 157.25 71.7188 151.406 71.7188Z" fill="white"/>
<path d="M135.469 77.0312V103.594C135.469 112.412 128.35 119.531 119.531 119.531H50.4688C41.65 119.531 34.5312 112.412 34.5312 103.594V77.0312C34.5312 65.2906 44.0406 55.7812 55.7812 55.7812H114.219C125.959 55.7812 135.469 65.2906 135.469 77.0312Z" fill="white"/>
<path d="M77.0312 98.2812H92.9688C92.9688 102.691 89.4094 106.25 85 106.25C80.5906 106.25 77.0312 102.691 77.0312 98.2812Z" fill="#455A64"/>
<path d="M92.9688 164.688C92.65 164.688 92.2781 164.634 91.9594 164.475C90.95 164.05 90.3125 163.094 90.3125 162.031V138.125H50.4688C32.2469 138.125 17.2656 123.941 16.0437 105.984C9.93437 104.816 5.3125 99.3969 5.3125 92.9688V82.3438C5.3125 75.0125 11.2625 69.0625 18.5938 69.0625C20.0813 69.0625 21.25 70.2313 21.25 71.7188V82.3438C21.25 83.8313 20.0813 85 18.5938 85C17.1062 85 15.9375 83.8313 15.9375 82.3438V74.8531C12.8563 75.9688 10.625 78.8906 10.625 82.3438V92.9688C10.625 97.3781 14.1844 100.938 18.5938 100.938C20.0813 100.938 21.25 102.106 21.25 103.594C21.25 119.691 34.3719 132.812 50.4688 132.812H92.9688C94.4563 132.812 95.625 133.981 95.625 135.469V155.603L117.672 133.556C118.15 133.078 118.841 132.812 119.531 132.812C135.628 132.812 148.75 119.691 148.75 103.594C148.75 102.106 149.919 100.938 151.406 100.938C155.816 100.938 159.375 97.3781 159.375 92.9688V82.3438C159.375 77.9344 155.816 74.375 151.406 74.375C149.919 74.375 148.75 73.2063 148.75 71.7188C148.75 70.2313 149.919 69.0625 151.406 69.0625C158.738 69.0625 164.688 75.0125 164.688 82.3438V92.9688C164.688 99.3969 160.066 104.816 153.956 105.984C152.734 123.516 138.337 137.541 120.647 138.072L94.8281 163.891C94.35 164.422 93.6594 164.688 92.9688 164.688Z" fill="#455A64"/>
<path d="M18.5938 74.375C17.1063 74.375 15.9375 73.2062 15.9375 71.7188V63.75C15.9375 40.3219 35.0094 21.25 58.4375 21.25H77.0312C78.5187 21.25 79.6875 22.4188 79.6875 23.9062C79.6875 25.3938 78.5187 26.5625 77.0312 26.5625H58.4375C37.9312 26.5625 21.25 43.2437 21.25 63.75V71.7188C21.25 73.2062 20.0813 74.375 18.5938 74.375Z" fill="#455A64"/>
<path d="M151.406 85C149.919 85 148.75 83.8312 148.75 82.3438V63.75C148.75 43.2437 132.069 26.5625 111.562 26.5625H87.6562C86.1688 26.5625 85 25.3938 85 23.9062C85 22.4188 86.1688 21.25 87.6562 21.25H111.562C134.991 21.25 154.062 40.3219 154.062 63.75V82.3438C154.062 83.8312 152.894 85 151.406 85Z" fill="#455A64"/>
<path d="M119.531 122.188H50.4688C40.2156 122.188 31.875 113.847 31.875 103.594V77.0312C31.875 63.8562 42.6062 53.125 55.7812 53.125H114.219C127.394 53.125 138.125 63.8562 138.125 77.0312V103.594C138.125 113.847 129.784 122.188 119.531 122.188ZM55.7812 58.4375C45.5281 58.4375 37.1875 66.7781 37.1875 77.0312V103.594C37.1875 110.925 43.1375 116.875 50.4688 116.875H119.531C126.863 116.875 132.812 110.925 132.812 103.594V77.0312C132.812 66.7781 124.472 58.4375 114.219 58.4375H55.7812Z" fill="#455A64"/>
<path d="M85 108.906C79.1562 108.906 74.375 104.125 74.375 98.2812C74.375 96.7938 75.5438 95.625 77.0312 95.625H92.9688C94.4562 95.625 95.625 96.7938 95.625 98.2812C95.625 104.125 90.8438 108.906 85 108.906ZM80.3781 100.938C81.2813 102.531 83.0344 103.594 85 103.594C86.9656 103.594 88.6656 102.531 89.6219 100.938H80.3781Z" fill="#455A64"/>
<path d="M114.219 92.8625C117.153 92.8625 119.531 90.4841 119.531 87.55C119.531 84.616 117.153 82.2375 114.219 82.2375C111.285 82.2375 108.906 84.616 108.906 87.55C108.906 90.4841 111.285 92.8625 114.219 92.8625Z" fill="#455A64"/>
<path d="M55.7812 92.8625C58.7153 92.8625 61.0938 90.4841 61.0938 87.55C61.0938 84.616 58.7153 82.2375 55.7812 82.2375C52.8472 82.2375 50.4688 84.616 50.4688 87.55C50.4688 90.4841 52.8472 92.8625 55.7812 92.8625Z" fill="#455A64"/>
<path d="M87.6562 26.5625C86.1688 26.5625 85 25.3937 85 23.9062V7.96875C85 6.48125 86.1688 5.3125 87.6562 5.3125C89.1438 5.3125 90.3125 6.48125 90.3125 7.96875V23.9062C90.3125 25.3937 89.1438 26.5625 87.6562 26.5625Z" fill="#455A64"/>
<circle cx="146.5" cy="30.5" r="16.5" fill="black"/>
<path fill-rule="evenodd" clip-rule="evenodd" d="M155.614 23.6488C156.033 24.0163 156.072 24.6564 155.698 25.0709L145.184 36.7407C144.809 37.1574 144.164 37.1839 143.756 36.7995L137.672 31.0719C137.292 30.7147 137.256 30.1195 137.581 29.7126C137.941 29.2636 138.61 29.2018 139.037 29.5863L143.757 33.8322C144.168 34.2012 144.799 34.1682 145.169 33.7585L154.212 23.7316C154.578 23.3258 155.202 23.289 155.614 23.6488Z" fill="white"/>
</svg>
