<svg width="92" height="92" viewBox="0 0 92 92" fill="none" xmlns="http://www.w3.org/2000/svg">
<g clip-path="url(#clip0_16_66)">
<path d="M64.0226 49.4736C66.1936 46.7658 67.5973 43.5247 68.0872 40.0889C68.5772 36.6531 68.1352 33.1488 66.8076 29.9422C65.48 26.7357 63.3154 23.9446 60.5402 21.8606C57.7649 19.7767 54.4809 18.4765 51.0312 18.0959V36.4822L64.0226 49.4736Z" fill="#8DF475"/>
<path d="M46.7188 18.0959C42.3481 18.591 38.2747 20.5541 35.1644 23.6644C32.0541 26.7747 30.091 30.8481 29.5959 35.2188H46.7188V18.0959Z" fill="#8DF475"/>
<path d="M29.5959 39.5312C29.9765 42.9809 31.2767 46.2649 33.3606 49.0402C35.4446 51.8154 38.2357 53.98 41.4422 55.3076C44.6488 56.6352 48.1531 57.0772 51.5889 56.5872C55.0247 56.0973 58.2658 54.6936 60.9736 52.5226L47.9822 39.5312H29.5959Z" fill="#8DF475"/>
<path d="M70.1388 55.5897C74.8692 50.0708 77.2781 42.9341 76.8598 35.6774C76.4415 28.4207 73.2286 21.608 67.8953 16.6693C62.562 11.7305 55.5231 9.04952 48.2556 9.18902C40.9882 9.32852 34.0572 12.2776 28.9174 17.4174C23.7776 22.5573 20.8285 29.4882 20.689 36.7556C20.5495 44.023 23.2305 51.062 28.1693 56.3953C33.108 61.7286 39.9207 64.9415 47.1774 65.3598C54.4341 65.7781 61.5708 63.3692 67.0897 58.6388L87.6005 79.1495C88.0048 79.5539 88.5532 79.781 89.125 79.781C89.6968 79.781 90.2452 79.5539 90.6495 79.1495C91.0539 78.7452 91.281 78.1968 91.281 77.625C91.281 77.0532 91.0539 76.5048 90.6495 76.1005L70.1388 55.5897ZM25.1563 37.375C25.1563 32.6839 26.5473 28.0981 29.1536 24.1976C31.7598 20.297 35.4642 17.2569 39.7982 15.4617C44.1323 13.6665 48.9013 13.1968 53.5023 14.112C58.1033 15.0272 62.3296 17.2862 65.6467 20.6033C68.9638 23.9204 71.2228 28.1467 72.138 32.7477C73.0532 37.3487 72.5835 42.1177 70.7883 46.4518C68.993 50.7858 65.953 54.4902 62.0524 57.0964C58.1519 59.7027 53.5661 61.0938 48.875 61.0938C42.5866 61.0866 36.5578 58.5854 32.1112 54.1388C27.6646 49.6922 25.1634 43.6634 25.1563 37.375Z" fill="black"/>
<path d="M8.625 91.2812H77.625C79.7211 91.2789 81.7307 90.4451 83.2129 88.9629C84.6951 87.4807 85.5289 85.4711 85.5312 83.375V81.9375C85.5312 81.3656 85.3041 80.8172 84.8997 80.4128C84.4953 80.0084 83.9469 79.7812 83.375 79.7812C82.8031 79.7812 82.2547 80.0084 81.8503 80.4128C81.4459 80.8172 81.2188 81.3656 81.2188 81.9375V83.375C81.2176 84.3278 80.8386 85.2412 80.1649 85.9149C79.4912 86.5886 78.5778 86.9676 77.625 86.9688H15.6584C16.2314 85.8575 16.5307 84.6253 16.5312 83.375V7.1875C16.5319 6.61582 16.7593 6.06773 17.1635 5.66349C17.5677 5.25925 18.1158 5.03187 18.6875 5.03125H79.0625C79.6342 5.03187 80.1823 5.25925 80.5865 5.66349C80.9908 6.06773 81.2181 6.61582 81.2188 7.1875V60.375C81.2188 60.9469 81.4459 61.4953 81.8503 61.8997C82.2547 62.3041 82.8031 62.5312 83.375 62.5312C83.9469 62.5312 84.4953 62.3041 84.8997 61.8997C85.3041 61.4953 85.5312 60.9469 85.5312 60.375V7.1875C85.5294 5.47245 84.8473 3.82819 83.6345 2.61547C82.4218 1.40275 80.7775 0.720618 79.0625 0.71875H18.6875C16.9725 0.720618 15.3282 1.40275 14.1155 2.61547C12.9027 3.82819 12.2206 5.47245 12.2188 7.1875V55.3438H7.1875C5.47245 55.3456 3.82819 56.0277 2.61547 57.2405C1.40275 58.4532 0.720618 60.0975 0.71875 61.8125V83.375C0.72112 85.4711 1.55486 87.4807 3.03706 88.9629C4.51925 90.4451 6.52886 91.2789 8.625 91.2812ZM5.03125 61.8125C5.03187 61.2408 5.25925 60.6927 5.66349 60.2885C6.06773 59.8843 6.61582 59.6569 7.1875 59.6562H12.2188V83.375C12.2188 84.3281 11.8401 85.2422 11.1662 85.9162C10.4922 86.5901 9.57812 86.9688 8.625 86.9688C7.67188 86.9688 6.75779 86.5901 6.08384 85.9162C5.40988 85.2422 5.03125 84.3281 5.03125 83.375V61.8125Z" fill="black"/>
<path d="M28.75 74.0312H69C69.5719 74.0312 70.1203 73.8041 70.5247 73.3997C70.9291 72.9953 71.1562 72.4469 71.1562 71.875C71.1562 71.3031 70.9291 70.7547 70.5247 70.3503C70.1203 69.9459 69.5719 69.7188 69 69.7188H28.75C28.1781 69.7188 27.6297 69.9459 27.2253 70.3503C26.8209 70.7547 26.5938 71.3031 26.5938 71.875C26.5938 72.4469 26.8209 72.9953 27.2253 73.3997C27.6297 73.8041 28.1781 74.0312 28.75 74.0312Z" fill="black"/>
<path d="M28.75 82.6562H69C69.5719 82.6562 70.1203 82.4291 70.5247 82.0247C70.9291 81.6203 71.1562 81.0719 71.1562 80.5C71.1562 79.9281 70.9291 79.3797 70.5247 78.9753C70.1203 78.5709 69.5719 78.3438 69 78.3438H28.75C28.1781 78.3437 27.6297 78.5709 27.2253 78.9753C26.8209 79.3797 26.5938 79.9281 26.5938 80.5C26.5938 81.0719 26.8209 81.6203 27.2253 82.0247C27.6297 82.4291 28.1781 82.6562 28.75 82.6562Z" fill="black"/>
</g>
<defs>
<clipPath id="clip0_16_66">
<rect width="92" height="92" fill="white"/>
</clipPath>
</defs>
</svg>
