<svg width="91" height="91" viewBox="0 0 91 91" fill="none" xmlns="http://www.w3.org/2000/svg">
<g clip-path="url(#clip0_16_117)">
<path d="M68.5725 23.9371L54.5187 39.9986C54.3263 40.2183 54.0909 40.3962 53.827 40.5212C53.5632 40.6462 53.2764 40.7158 52.9846 40.7255C52.6927 40.7352 52.402 40.6848 52.1304 40.5776C51.8588 40.4703 51.6121 40.3085 51.4056 40.102L45.8208 34.5159C45.4221 34.1157 45.1985 33.5737 45.1991 33.0088C45.1997 32.4439 45.4243 31.9024 45.8237 31.5029C46.2231 31.1035 46.7647 30.8789 47.3296 30.8783C47.8945 30.8778 48.4365 31.1013 48.8367 31.5L52.8093 35.474L65.6954 20.7471C62.2798 17.777 57.8595 16.2224 53.3366 16.4005C48.8138 16.5786 44.5294 18.476 41.358 21.7055C38.1865 24.935 36.3671 29.2531 36.271 33.7784C36.1749 38.3038 37.8094 42.6952 40.841 46.0564C43.8725 49.4176 48.0725 51.4951 52.5837 51.865C57.0949 52.2349 61.5772 50.8693 65.1158 48.0469C68.6544 45.2244 70.9825 41.1579 71.6249 36.6774C72.2672 32.1968 71.1755 27.6401 68.5725 23.9371Z" fill="#43E8E8"/>
<path d="M83.8906 0.710938H7.10938C5.41297 0.712785 3.78658 1.3875 2.58704 2.58704C1.3875 3.78658 0.712785 5.41297 0.710938 7.10938V72.5156C0.712785 74.212 1.3875 75.8384 2.58704 77.038C3.78658 78.2375 5.41297 78.9122 7.10938 78.9141H31.9922V86.0234H28.4375C27.8718 86.0234 27.3294 86.2481 26.9294 86.6481C26.5294 87.0481 26.3047 87.5906 26.3047 88.1562C26.3047 88.7219 26.5294 89.2644 26.9294 89.6644C27.3294 90.0644 27.8718 90.2891 28.4375 90.2891H62.5625C63.1282 90.2891 63.6706 90.0644 64.0706 89.6644C64.4706 89.2644 64.6953 88.7219 64.6953 88.1562C64.6953 87.5906 64.4706 87.0481 64.0706 86.6481C63.6706 86.2481 63.1282 86.0234 62.5625 86.0234H59.0078V78.9141H83.8906C85.587 78.9122 87.2134 78.2375 88.413 77.038C89.6125 75.8384 90.2872 74.212 90.2891 72.5156V7.10938C90.2872 5.41297 89.6125 3.78658 88.413 2.58704C87.2134 1.3875 85.587 0.712785 83.8906 0.710938ZM7.10938 4.97656H83.8906C84.4561 4.97718 84.9982 5.20208 85.3981 5.60193C85.7979 6.00178 86.0228 6.54391 86.0234 7.10938V63.2734H4.97656V7.10938C4.97718 6.54391 5.20208 6.00178 5.60193 5.60193C6.00178 5.20208 6.54391 4.97718 7.10938 4.97656ZM54.7422 86.0234H36.2578V78.9141H54.7422V86.0234ZM83.8906 74.6484H7.10938C6.54391 74.6478 6.00178 74.4229 5.60193 74.0231C5.20208 73.6232 4.97718 73.0811 4.97656 72.5156V67.5391H86.0234V72.5156C86.0228 73.0811 85.7979 73.6232 85.3981 74.0231C84.9982 74.4229 84.4561 74.6478 83.8906 74.6484Z" fill="black"/>
<path d="M54.0313 59.0078C60.5878 59.0106 66.8785 56.4167 71.5276 51.7935L79.5389 59.8048C79.9389 60.2048 80.4813 60.4295 81.0469 60.4295C81.6125 60.4295 82.1549 60.2048 82.5549 59.8048C82.9548 59.4049 83.1795 58.8625 83.1795 58.2969C83.1795 57.7313 82.9548 57.1888 82.5549 56.7889L74.2883 48.5223C77.51 43.9761 79.1108 38.4792 78.8338 32.914C78.5568 27.3488 76.4181 22.0381 72.7608 17.8342C69.1036 13.6303 64.14 10.7771 58.6668 9.73247C53.1935 8.68785 47.528 9.51242 42.5795 12.0738C37.6311 14.6352 33.6867 18.785 31.3795 23.8569C29.0723 28.9289 28.5361 34.6289 29.8569 40.0422C31.1777 45.4554 34.279 50.268 38.6629 53.7073C43.0469 57.1466 48.4592 59.0134 54.0313 59.0078ZM54.0313 13.5078C58.109 13.5078 62.0951 14.717 65.4856 16.9824C68.876 19.2479 71.5186 22.4678 73.0791 26.2351C74.6395 30.0024 75.0478 34.1479 74.2523 38.1472C73.4568 42.1465 71.4932 45.8202 68.6098 48.7035C65.7265 51.5869 62.0528 53.5505 58.0535 54.346C54.0541 55.1415 49.9087 54.7332 46.1414 53.1728C42.3741 51.6123 39.1542 48.9698 36.8887 45.5793C34.6233 42.1888 33.4141 38.2027 33.4141 34.125C33.4204 28.6589 35.5945 23.4185 39.4597 19.5534C43.3248 15.6883 48.5652 13.5141 54.0313 13.5078Z" fill="black"/>
<path d="M11.375 19.1953H22.75C23.3157 19.1953 23.8581 18.9706 24.2581 18.5706C24.6581 18.1706 24.8828 17.6282 24.8828 17.0625C24.8828 16.4968 24.6581 15.9544 24.2581 15.5544C23.8581 15.1544 23.3157 14.9297 22.75 14.9297H11.375C10.8093 14.9297 10.2669 15.1544 9.86687 15.5544C9.46689 15.9544 9.24219 16.4968 9.24219 17.0625C9.24219 17.6282 9.46689 18.1706 9.86687 18.5706C10.2669 18.9706 10.8093 19.1953 11.375 19.1953Z" fill="black"/>
<path d="M11.375 44.7891H22.75C23.3157 44.7891 23.8581 44.5644 24.2581 44.1644C24.6581 43.7644 24.8828 43.2219 24.8828 42.6562C24.8828 42.0906 24.6581 41.5481 24.2581 41.1481C23.8581 40.7481 23.3157 40.5234 22.75 40.5234H11.375C10.8093 40.5234 10.2669 40.7481 9.86687 41.1481C9.46689 41.5481 9.24219 42.0906 9.24219 42.6562C9.24219 43.2219 9.46689 43.7644 9.86687 44.1644C10.2669 44.5644 10.8093 44.7891 11.375 44.7891Z" fill="black"/>
<path d="M11.375 53.3203H22.75C23.3157 53.3203 23.8581 53.0956 24.2581 52.6956C24.6581 52.2956 24.8828 51.7532 24.8828 51.1875C24.8828 50.6218 24.6581 50.0794 24.2581 49.6794C23.8581 49.2794 23.3157 49.0547 22.75 49.0547H11.375C10.8093 49.0547 10.2669 49.2794 9.86687 49.6794C9.46689 50.0794 9.24219 50.6218 9.24219 51.1875C9.24219 51.7532 9.46689 52.2956 9.86687 52.6956C10.2669 53.0956 10.8093 53.3203 11.375 53.3203Z" fill="black"/>
<path d="M11.375 27.7266H22.75C23.3157 27.7266 23.8581 27.5019 24.2581 27.1019C24.6581 26.7019 24.8828 26.1594 24.8828 25.5938C24.8828 25.0281 24.6581 24.4856 24.2581 24.0856C23.8581 23.6856 23.3157 23.4609 22.75 23.4609H11.375C10.8093 23.4609 10.2669 23.6856 9.86687 24.0856C9.46689 24.4856 9.24219 25.0281 9.24219 25.5938C9.24219 26.1594 9.46689 26.7019 9.86687 27.1019C10.2669 27.5019 10.8093 27.7266 11.375 27.7266Z" fill="black"/>
<path d="M11.375 36.2578H22.75C23.3157 36.2578 23.8581 36.0331 24.2581 35.6331C24.6581 35.2331 24.8828 34.6907 24.8828 34.125C24.8828 33.5593 24.6581 33.0169 24.2581 32.6169C23.8581 32.2169 23.3157 31.9922 22.75 31.9922H11.375C10.8093 31.9922 10.2669 32.2169 9.86687 32.6169C9.46689 33.0169 9.24219 33.5593 9.24219 34.125C9.24219 34.6907 9.46689 35.2331 9.86687 35.6331C10.2669 36.0331 10.8093 36.2578 11.375 36.2578Z" fill="black"/>
</g>
<defs>
<clipPath id="clip0_16_117">
<rect width="91" height="91" fill="white"/>
</clipPath>
</defs>
</svg>
