<svg width="151" height="151" viewBox="0 0 151 151" fill="none" xmlns="http://www.w3.org/2000/svg">
<path d="M135.664 126.227H34.2109C30.3085 126.227 27.1328 123.051 27.1328 119.148V49.5469C27.1328 48.8957 27.6613 48.3672 28.3125 48.3672H141.562C142.214 48.3672 142.742 48.8957 142.742 49.5469V119.148C142.742 123.051 139.566 126.227 135.664 126.227ZM29.4922 50.7266V119.148C29.4922 121.751 31.6085 123.867 34.2109 123.867H135.664C138.266 123.867 140.383 121.751 140.383 119.148V50.7266H29.4922Z" fill="#263238"/>
<path d="M56.625 126.227C55.9738 126.227 55.4453 125.698 55.4453 125.047V49.5469C55.4453 48.8957 55.9738 48.3672 56.625 48.3672C57.2762 48.3672 57.8047 48.8957 57.8047 49.5469V125.047C57.8047 125.698 57.2762 126.227 56.625 126.227Z" fill="#263238"/>
<path d="M135.664 30.6719H84.9375V49.5469H141.562V36.5703C141.562 33.312 138.922 30.6719 135.664 30.6719Z" fill="#40C4FF"/>
<path d="M141.562 50.7266H84.9375C84.2863 50.7266 83.7578 50.1981 83.7578 49.5469V30.6719C83.7578 30.0207 84.2863 29.4922 84.9375 29.4922H135.664C139.566 29.4922 142.742 32.6679 142.742 36.5703V49.5469C142.742 50.1981 142.214 50.7266 141.562 50.7266ZM86.1172 48.3672H140.383V36.5703C140.383 33.9679 138.266 31.8516 135.664 31.8516H86.1172V48.3672Z" fill="#263238"/>
<path d="M84.9375 30.6719H34.2109C30.9526 30.6719 28.3125 33.312 28.3125 36.5703V49.5469H84.9375V30.6719Z" fill="#FEC7FF"/>
<path d="M84.9375 50.7266H28.3125C27.6613 50.7266 27.1328 50.1981 27.1328 49.5469V36.5703C27.1328 32.6679 30.3085 29.4922 34.2109 29.4922H84.9375C85.5887 29.4922 86.1172 30.0207 86.1172 30.6719V49.5469C86.1172 50.1981 85.5887 50.7266 84.9375 50.7266ZM29.4922 48.3672H83.7578V31.8516H34.2109C31.6085 31.8516 29.4922 33.9679 29.4922 36.5703V48.3672Z" fill="#263238"/>
<path d="M84.9375 126.227C84.2863 126.227 83.7578 125.698 83.7578 125.047V49.5469C83.7578 48.8957 84.2863 48.3672 84.9375 48.3672C85.5887 48.3672 86.1172 48.8957 86.1172 49.5469V125.047C86.1172 125.698 85.5887 126.227 84.9375 126.227Z" fill="#263238"/>
<path d="M141.562 69.6016H28.3125C27.6613 69.6016 27.1328 69.0731 27.1328 68.4219C27.1328 67.7707 27.6613 67.2422 28.3125 67.2422H141.562C142.214 67.2422 142.742 67.7707 142.742 68.4219C142.742 69.0731 142.214 69.6016 141.562 69.6016Z" fill="#263238"/>
<path d="M141.562 88.4766H28.3125C27.6613 88.4766 27.1328 87.9481 27.1328 87.2969C27.1328 86.6457 27.6613 86.1172 28.3125 86.1172H141.562C142.214 86.1172 142.742 86.6457 142.742 87.2969C142.742 87.9481 142.214 88.4766 141.562 88.4766Z" fill="#263238"/>
<path d="M141.562 107.352H28.3125C27.6613 107.352 27.1328 106.823 27.1328 106.172C27.1328 105.521 27.6613 104.992 28.3125 104.992H141.562C142.214 104.992 142.742 105.521 142.742 106.172C142.742 106.823 142.214 107.352 141.562 107.352Z" fill="#263238"/>
<path d="M113.25 142.742C123.023 142.742 130.945 134.82 130.945 125.047C130.945 115.274 123.023 107.352 113.25 107.352C103.477 107.352 95.5547 115.274 95.5547 125.047C95.5547 134.82 103.477 142.742 113.25 142.742Z" fill="black"/>
<path d="M109.914 131.722C109.6 131.722 109.3 131.597 109.079 131.377L102.404 124.702C101.944 124.242 101.944 123.494 102.404 123.034C102.864 122.574 103.612 122.574 104.072 123.034L109.911 128.874L121.59 117.195C122.05 116.735 122.798 116.735 123.258 117.195C123.718 117.655 123.718 118.403 123.258 118.863L110.747 131.377C110.527 131.597 110.228 131.722 109.914 131.722Z" fill="white"/>
<path d="M40.1094 14.1562H30.6719C30.0207 14.1562 29.4922 13.6278 29.4922 12.9766C29.4922 12.3254 30.0207 11.7969 30.6719 11.7969H40.1094C40.7606 11.7969 41.2891 12.3254 41.2891 12.9766C41.2891 13.6278 40.7606 14.1562 40.1094 14.1562Z" fill="#263238"/>
<path d="M35.3906 18.875C34.7394 18.875 34.2109 18.3465 34.2109 17.6953V8.25781C34.2109 7.60663 34.7394 7.07812 35.3906 7.07812C36.0418 7.07812 36.5703 7.60663 36.5703 8.25781V17.6953C36.5703 18.3465 36.0418 18.875 35.3906 18.875Z" fill="#263238"/>
<path d="M18.875 33.0312H9.4375C8.78631 33.0312 8.25781 32.5028 8.25781 31.8516C8.25781 31.2004 8.78631 30.6719 9.4375 30.6719H18.875C19.5262 30.6719 20.0547 31.2004 20.0547 31.8516C20.0547 32.5028 19.5262 33.0312 18.875 33.0312Z" fill="#263238"/>
<path d="M14.1562 37.75C13.5051 37.75 12.9766 37.2215 12.9766 36.5703V27.1328C12.9766 26.4816 13.5051 25.9531 14.1562 25.9531C14.8074 25.9531 15.3359 26.4816 15.3359 27.1328V36.5703C15.3359 37.2215 14.8074 37.75 14.1562 37.75Z" fill="#263238"/>
<path d="M35.3906 138.023H33.0312C32.3801 138.023 31.8516 137.495 31.8516 136.844C31.8516 136.193 32.3801 135.664 33.0312 135.664H35.3906C36.0418 135.664 36.5703 136.193 36.5703 136.844C36.5703 137.495 36.0418 138.023 35.3906 138.023Z" fill="#263238"/>
<path d="M77.8594 138.023H40.1094C39.4582 138.023 38.9297 137.495 38.9297 136.844C38.9297 136.193 39.4582 135.664 40.1094 135.664H77.8594C78.5106 135.664 79.0391 136.193 79.0391 136.844C79.0391 137.495 78.5106 138.023 77.8594 138.023Z" fill="#263238"/>
<path d="M136.844 20.0547H134.484C133.833 20.0547 133.305 19.5262 133.305 18.875C133.305 18.2238 133.833 17.6953 134.484 17.6953H136.844C137.495 17.6953 138.023 18.2238 138.023 18.875C138.023 19.5262 137.495 20.0547 136.844 20.0547Z" fill="#263238"/>
<path d="M129.766 20.0547H92.0156C91.3644 20.0547 90.8359 19.5262 90.8359 18.875C90.8359 18.2238 91.3644 17.6953 92.0156 17.6953H129.766C130.417 17.6953 130.945 18.2238 130.945 18.875C130.945 19.5262 130.417 20.0547 129.766 20.0547Z" fill="#263238"/>
</svg>
