<svg width="151" height="143" viewBox="0 0 151 143" fill="none" xmlns="http://www.w3.org/2000/svg">
<mask id="mask0_2146_64" style="mask-type:alpha" maskUnits="userSpaceOnUse" x="0" y="0" width="151" height="143">
<rect width="151" height="143" fill="#D9D9D9"/>
</mask>
<g mask="url(#mask0_2146_64)">
<path d="M141.466 16.2963C140.798 15.2419 140.125 14.1113 139.419 12.9215C136.62 8.2447 133.742 3.39664 130.686 1.8274C126.311 -0.420396 122.635 1.72127 115.959 5.63504C109.822 9.21796 102.646 13.3607 95.7224 17.3582C90.7515 20.2282 86.0172 22.9615 81.6232 25.4984C81.7851 24.7539 81.8452 23.9696 81.8034 23.1455C81.6963 20.9783 80.9365 19.2866 79.5412 18.0998C77.6694 16.4977 74.8128 15.9574 70.829 16.4032C63.0374 17.2918 58.0132 21.0605 52.8626 26.421C49.7727 29.645 47.5249 34.02 46.3745 38.8267C45.9768 35.6437 45.8129 32.1482 45.7461 26.19C45.7322 25.4484 45.8713 24.3226 46.0285 22.9891C46.431 19.6203 46.9804 15.0028 45.6965 11.7199C44.0139 7.40474 40.7545 5.38083 36.2579 5.82676C31.268 6.34057 28.2832 10.8058 27.4196 19.1159C26.8568 24.5302 27.1876 30.2965 28.457 36.5269C26.2614 33.0997 23.7573 29.8901 20.9938 26.9486C18.0556 23.7727 15.3359 22.5812 12.7392 23.3111C9.86306 24.1037 8.32798 27.219 8.30379 29.8763C8.27502 32.4573 9.30309 34.9213 10.2912 36.9744C21.0953 59.2409 30.6182 77.8876 39.8228 95.9488C47.5074 111.001 54.7604 125.238 62.4327 140.85C62.7386 141.483 63.5047 141.75 64.1517 141.436C64.7839 141.13 65.0517 140.364 64.7373 139.717C57.0713 124.082 49.8035 109.853 42.1166 94.7626C32.9143 76.7395 23.4061 58.0843 12.5958 35.8411C11.6869 33.9592 10.8388 31.9437 10.8529 29.884C10.8689 28.2375 11.7669 26.2396 13.407 25.7661C14.9879 25.3268 16.9141 26.3056 19.1538 28.6816C24.8852 34.782 29.4611 42.161 32.3884 49.9986C32.635 50.665 33.3738 50.988 34.0254 50.7499C34.6918 50.5033 35.0233 49.7792 34.7767 49.1129C30.6241 37.8204 29.0531 28.0951 29.9762 19.3757C30.7082 12.4435 32.9124 8.74461 36.5257 8.37466C39.8954 8.02698 42.0437 9.39049 43.3105 12.6438C44.3523 15.3366 43.8414 19.5767 43.4844 22.6826C43.3084 24.0861 43.1677 25.3115 43.1907 26.2056C43.3117 37.6558 43.8327 40.4717 45.6082 48.501C45.7467 49.1509 46.378 49.5952 47.0449 49.4863C47.7057 49.4007 48.1818 48.7904 48.1344 48.1274C47.605 40.5821 50.1158 32.9384 54.7054 28.1779C59.6114 23.077 64.0654 19.7558 71.1116 18.9425C74.3117 18.5744 76.5911 18.9351 77.8823 20.0439C78.7288 20.7585 79.1594 21.8118 79.2464 23.2608C79.3456 25.5509 78.4588 27.2267 76.4178 28.5432C75.3719 29.2259 74.0073 29.6981 72.5602 30.1983C71.0305 30.7264 69.4565 31.2801 68.1444 32.1165C62.9573 35.4664 58.3151 43.1767 60.3765 52.1455C61.8566 58.5699 70.3834 71.4597 82.1414 74.2975C87.9577 75.6935 95.895 70.8545 98.1767 69.3399C100.989 67.4796 106.058 64.8486 108.577 68.0497C110.998 71.1496 109.639 74.7748 108.209 76.3301C102.261 82.8024 95.9685 85.4685 87.9972 88.8477L86.8256 89.3466C86.5126 89.4879 86.2446 89.7412 86.1275 90.085C86.0018 90.414 86.0161 90.7805 86.1722 91.085C88.4007 95.6965 90.2722 100.1 92.4371 105.182C95.1289 111.518 98.1931 118.705 102.68 127.911C102.985 128.543 103.752 128.811 104.384 128.505L104.458 128.462C105.035 128.129 105.267 127.403 104.969 126.786C100.532 117.631 97.4699 110.482 94.7867 104.161C92.8724 99.6835 91.0715 95.4367 89.048 91.1802C97.2731 87.694 103.766 84.9316 110.073 78.0551C112.58 75.3253 113.605 70.3349 110.579 66.4601C109.675 65.305 108.528 64.5473 107.168 64.208C108.694 63.3663 110.277 62.4524 111.89 61.5213C116.491 58.8649 121.381 55.9232 126.176 53.0561C130.424 50.505 134.443 48.1054 138.059 45.9979C147.002 40.8154 148.918 39.5906 149.999 35.9285C150.898 33.0427 148.421 27.3517 141.466 16.2963ZM139.23 17.548C130.974 22.3142 122.514 27.2382 114.32 32.0084C103.841 38.1174 92.9993 44.4165 82.531 50.4407C81.9393 49.3817 78.9747 44.1103 78.6479 43.51C78.9438 43.3391 98.2672 32.0841 107.418 26.6824C116.474 21.3553 125.832 15.8341 134.99 10.5468C135.752 11.7639 138.576 16.485 139.23 17.548ZM81.1228 28.7659C85.9965 25.9324 91.3374 22.8488 97.0037 19.5774C103.942 15.5713 111.111 11.4519 117.255 7.84568C123.541 4.17735 126.394 2.49067 129.514 4.10201C130.777 4.75326 132.177 6.39133 133.576 8.40446C124.447 13.6747 115.125 19.1555 106.107 24.4803C96.6963 30.0124 86.9979 35.7301 77.485 41.2224C76.4171 38.8603 75.8091 36.5089 76.2823 33.8094C76.5885 32.1531 78.2083 30.4486 81.1228 28.7659ZM82.7638 71.7881C72.1937 69.2309 64.2112 57.2499 62.8975 51.5579C61.1148 43.7893 65.0858 37.1372 69.5588 34.2588C70.6046 33.5761 71.9692 33.1039 73.4312 32.5952C73.6258 32.5223 73.8289 32.4642 74.0236 32.3912C73.9127 32.7117 73.8314 33.0151 73.7672 33.348C72.8599 38.5075 75.0939 42.4451 77.4645 46.6195C77.7805 47.1669 80.1324 51.4113 80.9268 52.7872L80.9524 52.8315L80.978 52.8759C87.1947 63.746 90.3215 67.3851 93.8476 68.3675C94.1043 68.4362 94.3524 68.4902 94.6006 68.5442C90.6419 70.81 85.9563 72.5684 82.7638 71.7881ZM145.281 27.9611C147.81 32.9908 147.737 34.7096 147.591 35.2082C146.823 37.8412 145.522 38.7306 136.831 43.7679C133.192 45.8692 129.181 48.2836 124.918 50.8432C117.574 55.2409 109.988 59.7986 103.627 63.2342C99.5874 65.4284 97.1793 66.6214 94.5252 65.8853C91.8944 65.1554 89.0739 61.7734 83.8037 52.6451L89.8103 49.1772C98.3912 44.223 107.118 39.1453 115.607 34.2043C123.831 29.417 132.306 24.4845 140.576 19.7097C142.179 22.3152 143.926 25.2718 145.281 27.9611Z" fill="#222222"/>
<circle cx="17.5" cy="75.5" r="16.5" fill="black"/>
<path fill-rule="evenodd" clip-rule="evenodd" d="M26.6136 68.6488C27.0335 69.0163 27.0716 69.6564 26.6981 70.0709L16.1842 81.7407C15.8087 82.1574 15.1641 82.1839 14.7557 81.7995L8.6717 76.0719C8.29228 75.7147 8.25596 75.1195 8.58149 74.7126C8.94069 74.2636 9.6096 74.2018 10.0371 74.5863L14.7575 78.8322C15.1677 79.2012 15.7993 79.1682 16.1689 78.7585L25.2124 68.7316C25.5783 68.3258 26.2024 68.289 26.6136 68.6488Z" fill="white"/>
</g>
</svg>
