<svg width="26" height="19" viewBox="0 0 26 19" fill="none" xmlns="http://www.w3.org/2000/svg">
<path d="M10.5 11H2C1.73478 11 1.48043 10.8946 1.29289 10.7071C1.10536 10.5196 1 10.2652 1 10V2C1 1.73478 1.10536 1.48043 1.29289 1.29289C1.48043 1.10536 1.73478 1 2 1H9.5C9.76522 1 10.0196 1.10536 10.2071 1.29289C10.3946 1.48043 10.5 1.73478 10.5 2V13C10.5 14.3261 9.97322 15.5979 9.03553 16.5355C8.09785 17.4732 6.82608 18 5.5 18" stroke="white" stroke-width="2" stroke-linecap="round" stroke-linejoin="round"/>
<path d="M25 11H16.5C16.2348 11 15.9804 10.8946 15.7929 10.7071C15.6054 10.5196 15.5 10.2652 15.5 10V2C15.5 1.73478 15.6054 1.48043 15.7929 1.29289C15.9804 1.10536 16.2348 1 16.5 1H24C24.2652 1 24.5196 1.10536 24.7071 1.29289C24.8946 1.48043 25 1.73478 25 2V13C25 14.3261 24.4732 15.5979 23.5355 16.5355C22.5979 17.4732 21.3261 18 20 18" stroke="white" stroke-width="2" stroke-linecap="round" stroke-linejoin="round"/>
</svg>
