<svg width="47" height="50" viewBox="0 0 47 50" fill="none" xmlns="http://www.w3.org/2000/svg">
<path fill-rule="evenodd" clip-rule="evenodd" d="M24.4799 3.125H4.04052C3.20722 3.125 2.40537 3.45417 1.81839 4.04011C1.22618 4.62656 0.895996 5.42135 0.895996 6.25V46.875C0.895996 48.601 2.30579 50 4.04052 50H35.4857C37.2205 50 38.6302 48.601 38.6302 46.875C38.6302 41.5984 38.6302 28.125 38.6302 28.125C38.6302 27.55 38.1586 27.0833 37.5821 27.0833C37.0056 27.0833 36.5339 27.55 36.5339 28.125V46.875C36.5339 47.4505 36.0675 47.9167 35.4857 47.9167H4.04052C3.45878 47.9167 2.99234 47.4505 2.99234 46.875C2.99234 39.3687 2.99234 13.7562 2.99234 6.25C2.99234 5.97396 3.10245 5.70885 3.3016 5.51354C3.49551 5.31823 3.76275 5.20833 4.04052 5.20833H24.4799C25.0564 5.20833 25.5281 4.74167 25.5281 4.16667C25.5281 3.59167 25.0564 3.125 24.4799 3.125ZM9.01934 38.5417H30.5069C31.0834 38.5417 31.5551 38.075 31.5551 37.5C31.5551 36.925 31.0834 36.4583 30.5069 36.4583H9.01934C8.44285 36.4583 7.97117 36.925 7.97117 37.5C7.97117 38.075 8.44285 38.5417 9.01934 38.5417ZM9.01934 32.8125H30.5069C31.0834 32.8125 31.5551 32.3458 31.5551 31.7708C31.5551 31.1958 31.0834 30.7292 30.5069 30.7292H9.01934C8.44285 30.7292 7.97117 31.1958 7.97117 31.7708C7.97117 32.3458 8.44285 32.8125 9.01934 32.8125ZM18.7149 15.1042H9.28138C8.70489 15.1042 8.23321 15.5708 8.23321 16.1458C8.23321 16.7208 8.70489 17.1875 9.28138 17.1875H12.95V27.6042C12.95 28.1792 13.4217 28.6458 13.9982 28.6458C14.5747 28.6458 15.0463 28.1792 15.0463 27.6042V17.1875H18.7149C19.2914 17.1875 19.7631 16.7208 19.7631 16.1458C19.7631 15.5708 19.2914 15.1042 18.7149 15.1042ZM20.0252 27.6042H30.5069C31.0834 27.6042 31.5551 27.1375 31.5551 26.5625C31.5551 25.9875 31.0834 25.5208 30.5069 25.5208H20.0252C19.4487 25.5208 18.977 25.9875 18.977 26.5625C18.977 27.1375 19.4487 27.6042 20.0252 27.6042ZM41.691 14.2219C41.539 13.813 41.1458 13.5417 40.7109 13.5417C40.2706 13.5417 39.8776 13.813 39.7256 14.2219L38.4782 17.5745L35.1031 18.8146C34.6944 18.9661 34.4218 19.3557 34.4218 19.7917C34.4218 20.2276 34.6944 20.6172 35.1031 20.7688L38.4782 22.0089L39.7256 25.3615C39.8776 25.7703 40.2706 26.0417 40.7109 26.0417C41.1458 26.0417 41.539 25.7703 41.691 25.3615L42.9382 22.0089L46.3133 20.7688C46.7273 20.6172 46.9999 20.2276 46.9999 19.7917C46.9999 19.3557 46.7273 18.9661 46.3133 18.8146L42.9382 17.5745L41.691 14.2219ZM22.9076 22.3958H27.1003C27.6768 22.3958 28.1485 21.9292 28.1485 21.3542C28.1485 20.7792 27.6768 20.3125 27.1003 20.3125H22.9076C22.3311 20.3125 21.8595 20.7792 21.8595 21.3542C21.8595 21.9292 22.3311 22.3958 22.9076 22.3958ZM40.7109 17.5849L41.1406 18.7464C41.2455 19.0318 41.476 19.2563 41.759 19.362L42.9277 19.7917L41.759 20.2214C41.476 20.3271 41.2455 20.5516 41.1406 20.837L40.7109 21.9984L40.2758 20.837C40.171 20.5516 39.9457 20.3271 39.6574 20.2214L38.4887 19.7917L39.6574 19.362C39.9457 19.2563 40.171 19.0318 40.2758 18.7464L40.7109 17.5849ZM32.2782 0.680208C32.1263 0.271354 31.7333 0 31.293 0C30.8528 0 30.4598 0.271354 30.3078 0.680208L27.7869 7.45416L20.9738 9.96041C20.5598 10.112 20.2872 10.5016 20.2872 10.9375C20.2872 11.3734 20.5598 11.763 20.9738 11.9146L27.7869 14.4208L30.3078 21.1948C30.4598 21.6036 30.8528 21.875 31.293 21.875C31.7333 21.875 32.1263 21.6036 32.2782 21.1948L34.7991 14.4208L41.6123 11.9146C42.0263 11.763 42.2989 11.3734 42.2989 10.9375C42.2989 10.5016 42.0263 10.112 41.6123 9.96041L34.7991 7.45416L32.2782 0.680208ZM31.293 4.04323L33.0016 8.62604C33.1064 8.91146 33.3317 9.13594 33.6199 9.24167L38.2319 10.9375L33.6199 12.6333C33.3317 12.7391 33.1064 12.9635 33.0016 13.249L31.293 17.8318L29.5845 13.249C29.4797 12.9635 29.2544 12.7391 28.9661 12.6333L24.3541 10.9375L28.9661 9.24167C29.2544 9.13594 29.4797 8.91146 29.5845 8.62604L31.293 4.04323ZM22.9076 17.1875H25.004C25.5805 17.1875 26.0522 16.7208 26.0522 16.1458C26.0522 15.5708 25.5805 15.1042 25.004 15.1042H22.9076C22.3311 15.1042 21.8595 15.5708 21.8595 16.1458C21.8595 16.7208 22.3311 17.1875 22.9076 17.1875ZM39.6784 3.64583H38.6302C38.0537 3.64583 37.5821 4.1125 37.5821 4.6875C37.5821 5.2625 38.0537 5.72917 38.6302 5.72917H39.6784V6.77083C39.6784 7.34583 40.1501 7.8125 40.7266 7.8125C41.3031 7.8125 41.7748 7.34583 41.7748 6.77083V5.72917H42.8229C43.3994 5.72917 43.8711 5.2625 43.8711 4.6875C43.8711 4.1125 43.3994 3.64583 42.8229 3.64583H41.7748V2.60417C41.7748 2.02917 41.3031 1.5625 40.7266 1.5625C40.1501 1.5625 39.6784 2.02917 39.6784 2.60417V3.64583Z" fill="black"/>
</svg>
