<svg width="60" height="60" viewBox="0 0 60 60" fill="none" xmlns="http://www.w3.org/2000/svg">
<path d="M12.8909 39.2362C12.8545 39.1817 12.8091 39.1271 12.7636 39.0817C12.8091 39.1362 12.8455 39.1907 12.8818 39.2453C12.9 39.2635 12.9091 39.2817 12.9273 39.2998C12.9182 39.2817 12.9 39.2544 12.8909 39.2362ZM13.5 44.1544C13.3818 44.4544 13.2455 44.7362 13.0818 44.9998C12.9273 45.2544 12.7455 45.4998 12.5545 45.718L25.0727 52.9362C25.1727 52.6453 25.3091 52.3635 25.4636 52.0998C25.6091 51.8362 25.7818 51.5908 25.9727 51.3635L13.5 44.1544ZM11.5182 21.9907C11.5455 21.9817 11.5727 21.9635 11.6 21.9453H11.6091C11.7182 21.8635 11.8273 21.7817 11.9273 21.6908C11.8182 21.7817 11.7182 21.8544 11.6 21.9362C11.5727 21.9544 11.5455 21.9726 11.5182 21.9907ZM7.67273 22.8089V37.0817C7.96364 37.0271 8.27273 36.9998 8.58182 36.9998C8.89091 36.9998 9.2 37.0271 9.49091 37.0817V22.8089C9.2 22.8635 8.89091 22.8907 8.58182 22.8907C8.27273 22.8907 7.96364 22.8635 7.67273 22.8089ZM51.4273 22.8817C51.1182 22.8817 50.8091 22.8544 50.5182 22.7998V37.218C50.8091 37.1635 51.1182 37.1362 51.4273 37.1362C51.7364 37.1362 52.0455 37.1635 52.3364 37.218V22.7998C52.0455 22.8544 51.7364 22.8817 51.4273 22.8817ZM48.4091 38.0817C48.3727 38.118 48.3273 38.1544 48.2909 38.1817C48.3273 38.1453 48.3727 38.118 48.4182 38.0908C48.4182 38.0817 48.4273 38.0817 48.4364 38.0726C48.4273 38.0726 48.4182 38.0726 48.4091 38.0817ZM46.8727 45.0089C46.7182 44.7453 46.5909 44.4635 46.4818 44.1817L34.0364 51.3635C34.2364 51.5998 34.4091 51.8544 34.5636 52.1271C34.7182 52.3817 34.8455 52.6544 34.9455 52.9362L47.4 45.7544C47.2 45.5271 47.0273 45.2726 46.8727 45.0089ZM34.9545 7.06348C34.8455 7.35439 34.7091 7.6362 34.5545 7.90893C34.4 8.17257 34.2364 8.41802 34.0455 8.6453L46.4818 15.8271C46.5818 15.5453 46.7091 15.2726 46.8636 15.0089C47.0182 14.7362 47.2 14.4907 47.3909 14.2544L34.9545 7.06348ZM25.0727 7.06348L12.6182 14.2453C12.8182 14.4726 12.9909 14.7271 13.1455 14.9998C13.3 15.2635 13.4273 15.5362 13.5273 15.8271L25.9818 8.6362C25.7818 8.39984 25.6091 8.15439 25.4545 7.88166C25.3 7.61802 25.1727 7.34529 25.0727 7.06348Z" fill="white"/>
<path d="M8.58182 38.8181C6.68182 38.8181 5.13637 40.3636 5.13637 42.2636C5.13637 44.1545 6.68182 45.6999 8.58182 45.6999C9.8 45.6999 10.9 45.0818 11.5364 44.0454C11.8636 43.5181 12.0273 42.8999 12.0273 42.2636C12.0273 40.3636 10.4727 38.8181 8.58182 38.8181Z" fill="white"/>
<path d="M29.4273 49.509C29.3182 49.5181 29.2091 49.5363 29.1 49.5636C29.0727 49.5636 29.0455 49.5636 29.0182 49.5727C29.0455 49.5636 29.0727 49.5545 29.1 49.5545C29.2091 49.5272 29.3182 49.5181 29.4273 49.509Z" fill="white"/>
<path d="M31.0273 49.5818C30.9909 49.5636 30.9545 49.5636 30.9182 49.5636C30.8091 49.5363 30.7 49.5181 30.5909 49.509C30.7 49.5181 30.8091 49.5363 30.9182 49.5545C30.9545 49.5636 30.9909 49.5636 31.0273 49.5818Z" fill="white"/>
<path d="M30.0091 51.2908C28.7636 51.2908 27.6455 51.9362 27.0364 53.018C26.7273 53.5453 26.5636 54.1453 26.5636 54.7453C26.5636 56.6453 28.1091 58.1908 30.0091 58.1908C31.9091 58.1908 33.4546 56.6453 33.4546 54.7453C33.4546 54.1453 33.2909 53.5544 32.9909 53.0362C32.3727 51.9544 31.2364 51.2908 30.0091 51.2908Z" fill="white"/>
<path d="M29.1 10.4363C29.2091 10.4635 29.3182 10.4817 29.4273 10.4908C29.3182 10.4817 29.2091 10.4726 29.1 10.4544C29.0182 10.4363 28.9364 10.4181 28.8546 10.3999C28.9364 10.4181 29.0182 10.4363 29.1 10.4363Z" fill="white"/>
<path d="M30.9182 10.4363C31 10.4363 31.0727 10.4181 31.1455 10.3999C31.0727 10.4181 30.9909 10.4363 30.9182 10.4454C30.8091 10.4635 30.7 10.4817 30.5909 10.4908C30.7 10.4817 30.8091 10.4635 30.9182 10.4363Z" fill="white"/>
<path d="M30.0091 8.70902C31.2364 8.70902 32.3727 8.04539 32.9818 6.98175C33.2909 6.45448 33.4546 5.86357 33.4546 5.26357C33.4546 3.36357 31.9091 1.81812 30.0091 1.81812C28.1091 1.81812 26.5636 3.36357 26.5636 5.26357C26.5636 5.86357 26.7273 6.45448 27.0273 6.97266C27.6455 8.06357 28.7546 8.70902 30.0091 8.70902Z" fill="white"/>
<path d="M51.4182 14.1726C50.1909 14.1726 49.0546 14.8362 48.4364 15.909C48.1455 16.4272 47.9818 17.0181 47.9818 17.6181C47.9818 19.5181 49.5273 21.0635 51.4182 21.0635C53.3182 21.0635 54.8636 19.5181 54.8636 17.6181C54.8636 15.7181 53.3182 14.1726 51.4182 14.1726Z" fill="white"/>
<path d="M8.58182 14.1909C6.68182 14.1909 5.13637 15.7364 5.13637 17.6364C5.13637 19.5273 6.68182 21.0727 8.58182 21.0727C10.4818 21.0727 12.0273 19.5273 12.0273 17.6364C12.0273 17.0182 11.8727 16.4273 11.5727 15.9091C10.9364 14.8364 9.82728 14.1909 8.58182 14.1909Z" fill="white"/>
<path d="M48.8909 40.0818C48.9636 39.9909 49.0455 39.9182 49.1364 39.8455C49.1 39.8909 49.0636 39.9364 49.0182 39.9818C48.9818 40.0182 48.9364 40.0545 48.8909 40.0818Z" fill="white"/>
<path d="M51.4182 38.9546C49.5273 38.9546 47.9818 40.5 47.9818 42.391C47.9818 42.991 48.1364 43.5819 48.4364 44.1C49.0546 45.1728 50.1909 45.8364 51.4182 45.8364C53.3182 45.8364 54.8636 44.291 54.8636 42.391C54.8636 40.5 53.3182 38.9546 51.4182 38.9546Z" fill="white"/>
<path d="M40.7909 29.5453V29.3362C40.7909 28.6635 40.5818 28.0453 40.2364 27.5271L47.1273 20.6362C47.2455 20.809 47.3727 20.9635 47.5 21.109C47.5727 21.1908 47.6455 21.2726 47.7273 21.3453C47.9455 21.5635 48.1727 21.7544 48.4182 21.9271L40.7909 29.5453Z" fill="white"/>
<path d="M48.4182 38.0909C48.3727 38.1182 48.3273 38.1454 48.2909 38.1818C48.0909 38.3273 47.9 38.4818 47.7273 38.6636C47.6455 38.7364 47.5727 38.8182 47.5 38.9C47.3636 39.0545 47.2364 39.2091 47.1273 39.3818L40.7909 33.0454V30.4636L48.4182 38.0909Z" fill="white"/>
<path d="M49.1364 39.8455C49.1 39.8909 49.0636 39.9364 49.0182 39.9818C48.9818 40.0182 48.9364 40.0545 48.8909 40.0818C48.9636 39.9909 49.0455 39.9182 49.1364 39.8455Z" fill="white"/>
<path d="M19.2182 30.3455V32.9091L12.8818 39.2455C12.8091 39.1273 12.7273 39.0273 12.6364 38.9182C12.5364 38.7909 12.4273 38.6636 12.3091 38.5545C12.0909 38.3364 11.8546 38.1364 11.6 37.9545L19.2182 30.3455Z" fill="white"/>
<path d="M19.7727 27.5364C19.4182 28.0455 19.2182 28.6727 19.2182 29.3364V29.5545L11.6091 21.9455H11.6V21.9364C11.7182 21.8545 11.8182 21.7818 11.9273 21.6909C12.0636 21.5818 12.1909 21.4636 12.3091 21.3455C12.4273 21.2273 12.5364 21.1091 12.6364 20.9818C12.7273 20.8727 12.8091 20.7727 12.8909 20.6545L19.7727 27.5364Z" fill="white"/>
<path d="M30.9182 10.4363V13.2999C30.6182 13.2726 30.3091 13.2545 30.0091 13.2545C29.7 13.2545 29.4 13.2726 29.1 13.2999V10.4363C29.2091 10.4636 29.3182 10.4817 29.4273 10.4908C29.6182 10.5181 29.8091 10.5272 30.0091 10.5272C30.2091 10.5272 30.4 10.5181 30.5909 10.4908C30.7 10.4817 30.8091 10.4636 30.9182 10.4363Z" fill="white"/>
<path d="M30.9182 45.3635V49.5635C30.8091 49.5363 30.7 49.5181 30.5909 49.509C30.4 49.4817 30.2091 49.4726 30.0091 49.4726C29.8091 49.4726 29.6182 49.4817 29.4273 49.509C29.3182 49.5181 29.2091 49.5363 29.1 49.5635V45.3635H30.9182Z" fill="white"/>
<path d="M39.8818 29.3364V41.2091C39.8818 42.5 38.8364 43.5455 37.5455 43.5455H22.4636C21.1727 43.5455 20.1273 42.5 20.1273 41.2091V29.3364C20.1273 28.0455 21.1727 27 22.4636 27H37.5364C38.8273 27 39.8818 28.0455 39.8818 29.3364Z" fill="white"/>
<path d="M35.4273 17.3182C33.9818 15.8728 32.0545 15.0728 30.0091 15.0728C25.7818 15.0728 22.3455 18.5091 22.3455 22.7364V25.8273C22.3909 25.8182 22.4273 25.8182 22.4727 25.8182H24.1636V22.7364C24.1636 19.5091 26.7818 16.8909 30.0091 16.8909C31.5727 16.8909 33.0364 17.5 34.1364 18.6C35.2455 19.7091 35.8545 21.1728 35.8545 22.7364V25.8182H37.5455C37.5909 25.8182 37.6273 25.8182 37.6727 25.8273V22.7364C37.6727 20.6909 36.8727 18.7637 35.4273 17.3182Z" fill="white"/>
<path d="M31.3273 35.5818L31.9091 38.9636C31.9364 39.1273 31.8091 39.2727 31.6455 39.2727H28.3546C28.1909 39.2727 28.0636 39.1273 28.0909 38.9636L28.6727 35.5818C28.6909 35.4818 28.6455 35.3909 28.5727 35.3273C27.9273 34.8091 27.5727 33.9545 27.7727 33.0364C27.9636 32.1545 28.7 31.4545 29.5909 31.3C31.0364 31.0455 32.2818 32.1545 32.2818 33.5455C32.2818 34.2636 31.9455 34.9091 31.4273 35.3273C31.3546 35.3909 31.3182 35.4818 31.3273 35.5818Z" fill="white"/>
</svg>
