<svg width="151" height="133" viewBox="0 0 151 133" fill="none" xmlns="http://www.w3.org/2000/svg">
<mask id="mask0_2263_60" style="mask-type:alpha" maskUnits="userSpaceOnUse" x="0" y="0" width="151" height="133">
<rect width="151" height="133" fill="#D9D9D9"/>
</mask>
<g mask="url(#mask0_2263_60)">
<path d="M98.5415 101.773H52.4584C51.9731 101.773 51.5076 101.58 51.1644 101.237C50.8212 100.894 50.6284 100.429 50.6284 99.9432V61.2058C50.6284 60.7204 50.8212 60.255 51.1644 59.9118C51.5076 59.5686 51.9731 59.3758 52.4584 59.3758H98.5415C99.0268 59.3758 99.4923 59.5686 99.8355 59.9118C100.179 60.255 100.371 60.7204 100.371 61.2058V99.9432C100.371 100.429 100.179 100.894 99.8355 101.237C99.4923 101.58 99.0268 101.773 98.5415 101.773ZM54.2884 98.1132H96.7115V63.0358H54.2884V98.1132Z" fill="black"/>
<path d="M91.1996 63.0358H58.9916C58.5063 63.0358 58.0408 62.843 57.6976 62.4998C57.3544 62.1566 57.1616 61.6912 57.1616 61.2058V49.1626C57.1616 44.4062 59.0511 39.8446 62.4144 36.4813C65.7776 33.118 70.3392 31.2286 75.0956 31.2286C79.852 31.2286 84.4136 33.118 87.7769 36.4813C91.1402 39.8446 93.0296 44.4062 93.0296 49.1626V61.2058C93.0296 61.6912 92.8368 62.1566 92.4936 62.4998C92.1504 62.843 91.685 63.0358 91.1996 63.0358ZM60.8216 59.3758H89.3696V49.1626C89.3696 45.3769 87.8658 41.7462 85.1889 39.0693C82.512 36.3924 78.8813 34.8886 75.0956 34.8886C71.3099 34.8886 67.6793 36.3924 65.0024 39.0693C62.3255 41.7462 60.8216 45.3769 60.8216 49.1626V59.3758Z" fill="black"/>
<path d="M75.4999 87.5029C75.0146 87.5029 74.5491 87.3101 74.2059 86.9669C73.8627 86.6237 73.6699 86.1583 73.6699 85.6729V73.4394C73.6699 72.954 73.8627 72.4886 74.2059 72.1454C74.5491 71.8022 75.0146 71.6094 75.4999 71.6094C75.9853 71.6094 76.4507 71.8022 76.7939 72.1454C77.1371 72.4886 77.3299 72.954 77.3299 73.4394V85.6729C77.3299 86.1583 77.1371 86.6237 76.7939 86.9669C76.4507 87.3101 75.9853 87.5029 75.4999 87.5029Z" fill="black"/>
<path d="M96.2596 123.133H53.7762C53.2908 123.133 52.8254 122.94 52.4822 122.597C52.139 122.254 51.9462 121.788 51.9462 121.303C51.946 119.883 51.5723 118.489 50.8625 117.259C50.1527 116.03 49.1318 115.009 47.9025 114.299C46.6731 113.589 45.2786 113.215 43.859 113.215C42.4394 113.215 41.0447 113.588 39.8151 114.298C39.6069 114.419 39.377 114.497 39.1384 114.529C38.8999 114.561 38.6574 114.545 38.4248 114.483C38.1923 114.421 37.9743 114.314 37.7832 114.167C37.5922 114.021 37.432 113.838 37.3117 113.63L15.5932 76.0032C15.351 75.5833 15.2853 75.0844 15.4105 74.6161C15.5357 74.1477 15.8417 73.7482 16.2612 73.5053C17.4909 72.7954 18.5122 71.7743 19.2222 70.5446C19.9322 69.3149 20.306 67.92 20.306 66.5C20.306 65.0801 19.9322 63.6851 19.2222 62.4555C18.5122 61.2258 17.4909 60.2047 16.2612 59.4948C15.8417 59.2518 15.5357 58.8523 15.4105 58.384C15.2853 57.9156 15.351 57.4168 15.5932 56.9968L37.3135 19.3702C37.4338 19.162 37.594 18.9795 37.7848 18.8333C37.9757 18.687 38.1935 18.5798 38.4259 18.5178C38.6582 18.4557 38.9005 18.4401 39.1388 18.4718C39.3772 18.5034 39.607 18.5817 39.8151 18.7022C41.0447 19.4113 42.4391 19.7843 43.8585 19.7838C45.2778 19.7833 46.672 19.4094 47.9011 18.6995C49.1302 17.9897 50.1508 16.9689 50.8605 15.7398C51.5702 14.5106 51.944 13.1163 51.9443 11.697C51.9443 11.2117 52.1371 10.7462 52.4803 10.403C52.8235 10.0598 53.289 9.867 53.7743 9.867H96.2596C96.745 9.867 97.2104 10.0598 97.5536 10.403C97.8968 10.7462 98.0896 11.2117 98.0896 11.697C98.09 13.1742 98.4949 14.6232 99.2605 15.8866C100.026 17.15 101.123 18.1796 102.432 18.8637C103.741 19.5479 105.213 19.8604 106.687 19.7674C108.162 19.6744 109.582 19.1795 110.795 18.3362C111.003 18.1912 111.239 18.091 111.488 18.0419C111.736 17.9928 111.992 17.9958 112.24 18.0509C112.487 18.1059 112.72 18.2118 112.925 18.3617C113.129 18.5116 113.3 18.7024 113.427 18.9218L135.407 56.9968C135.649 57.4168 135.715 57.9156 135.59 58.384C135.464 58.8523 135.159 59.2518 134.739 59.4948C133.509 60.2047 132.488 61.2258 131.778 62.4555C131.068 63.6851 130.694 65.0801 130.694 66.5C130.694 67.92 131.068 69.3149 131.778 70.5446C132.488 71.7743 133.509 72.7954 134.739 73.5053C135.159 73.7482 135.464 74.1477 135.59 74.6161C135.715 75.0844 135.649 75.5833 135.407 76.0032L113.427 114.08C113.3 114.299 113.129 114.49 112.925 114.64C112.72 114.79 112.487 114.896 112.24 114.951C111.992 115.006 111.736 115.009 111.488 114.96C111.239 114.911 111.003 114.811 110.795 114.666C109.582 113.822 108.162 113.327 106.687 113.234C105.213 113.141 103.741 113.454 102.432 114.138C101.123 114.822 100.026 115.852 99.2605 117.115C98.4949 118.379 98.09 119.828 98.0896 121.305C98.0891 121.79 97.8961 122.255 97.553 122.598C97.2098 122.94 96.7447 123.133 96.2596 123.133ZM55.4653 119.473H94.5724C94.8572 117.673 95.5566 115.964 96.6154 114.481C97.6743 112.998 99.0634 111.781 100.673 110.927C102.283 110.073 104.069 109.605 105.891 109.56C107.713 109.515 109.52 109.894 111.17 110.667L131.396 75.6335C130.034 74.5326 128.935 73.141 128.181 71.5606C127.426 69.9803 127.035 68.2512 127.035 66.5C127.035 64.7488 127.426 63.0197 128.181 61.4394C128.935 59.8591 130.034 58.4675 131.396 57.3665L111.17 22.333C109.52 23.1064 107.713 23.4855 105.891 23.4404C104.069 23.3954 102.283 22.9273 100.673 22.0732C99.0634 21.2191 97.6743 20.0024 96.6154 18.5192C95.5566 17.036 94.8572 15.327 94.5724 13.527H55.4653C55.1919 15.2569 54.5353 16.9039 53.5435 18.3474C52.5517 19.7909 51.2497 20.9944 49.7329 21.87C48.216 22.7455 46.5226 23.2708 44.7766 23.4076C43.0305 23.5444 41.2759 23.2892 39.6413 22.6605L19.6046 57.3665C20.9664 58.4675 22.0649 59.8591 22.8194 61.4394C23.574 63.0197 23.9656 64.7488 23.9656 66.5C23.9656 68.2512 23.574 69.9803 22.8194 71.5606C22.0649 73.141 20.9664 74.5326 19.6046 75.6335L39.6413 110.34C41.2759 109.711 43.0305 109.456 44.7766 109.592C46.5226 109.729 48.216 110.255 49.7329 111.13C51.2497 112.006 52.5517 113.209 53.5435 114.653C54.5353 116.096 55.1919 117.743 55.4653 119.473Z" fill="black"/>
<path d="M43.8593 23.4438C41.5355 23.4441 39.2638 22.7553 37.3315 21.4645C35.3991 20.1737 33.893 18.3389 33.0035 16.192C32.1141 14.0452 31.8813 11.6828 32.3345 9.40358C32.7878 7.1244 33.9068 5.03084 35.55 3.38766C37.1932 1.74447 39.2867 0.62549 41.5659 0.172226C43.8451 -0.281038 46.2075 -0.0482229 48.3543 0.841228C50.5012 1.73068 52.336 3.23681 53.6269 5.16914C54.9177 7.10147 55.6065 9.37319 55.6061 11.697C55.6061 13.2396 55.3023 14.7671 54.7119 16.1923C54.1216 17.6175 53.2563 18.9124 52.1655 20.0032C51.0748 21.094 49.7798 21.9593 48.3546 22.5496C46.9294 23.1399 45.4019 23.4438 43.8593 23.4438ZM43.8593 3.6084C42.2595 3.60804 40.6954 4.08212 39.365 4.97069C38.0346 5.85925 36.9976 7.12239 36.3851 8.60036C35.7726 10.0783 35.6122 11.7047 35.9241 13.2739C36.236 14.843 37.0062 16.2845 38.1373 17.4159C39.2685 18.5472 40.7097 19.3178 42.2788 19.63C43.8479 19.9423 45.4743 19.7822 46.9524 19.1701C48.4305 18.5579 49.6939 17.5212 50.5828 16.191C51.4717 14.8608 51.9461 13.2969 51.9461 11.697C51.9437 9.55283 51.091 7.49714 49.575 5.98081C48.059 4.46449 46.0035 3.61131 43.8593 3.6084Z" fill="black"/>
<path d="M106.178 23.4438C103.371 23.4439 100.656 22.4386 98.5263 20.6101C96.3962 18.7815 94.9915 16.2506 94.5664 13.4757C94.1413 10.7008 94.7241 7.8654 96.2091 5.48307C97.6941 3.10074 99.9832 1.32901 102.662 0.488758C105.34 -0.351492 108.231 -0.204695 110.811 0.902563C113.391 2.00982 115.488 4.00432 116.725 6.52482C117.961 9.04532 118.253 11.9251 117.549 14.6427C116.845 17.3603 115.191 19.7359 112.887 21.3393C110.918 22.7084 108.577 23.4427 106.178 23.4438ZM106.178 3.6084C104.578 3.60804 103.014 4.08212 101.684 4.97069C100.353 5.85925 99.3164 7.12239 98.7039 8.60036C98.0914 10.0783 97.931 11.7047 98.2429 13.2739C98.5548 14.843 99.325 16.2845 100.456 17.4159C101.587 18.5472 103.029 19.3178 104.598 19.63C106.167 19.9423 107.793 19.7822 109.271 19.1701C110.749 18.5579 112.013 17.5212 112.902 16.191C113.79 14.8608 114.265 13.2969 114.265 11.697C114.262 9.55283 113.41 7.49714 111.894 5.98082C110.378 4.46449 108.322 3.61131 106.178 3.6084Z" fill="black"/>
<path d="M138.781 78.2486C136.458 78.2486 134.186 77.5596 132.254 76.2686C130.322 74.9777 128.816 73.1428 127.927 70.996C127.038 68.8492 126.805 66.487 127.258 64.208C127.712 61.929 128.831 59.8356 130.474 58.1925C132.117 56.5494 134.21 55.4305 136.489 54.9772C138.768 54.5238 141.131 54.7565 143.277 55.6457C145.424 56.5349 147.259 58.0408 148.55 59.9728C149.841 61.9049 150.53 64.1764 150.53 66.5C150.531 68.0431 150.228 69.5713 149.638 70.9971C149.047 72.423 148.182 73.7185 147.091 74.8097C146 75.9008 144.704 76.7662 143.278 77.3563C141.853 77.9463 140.324 78.2496 138.781 78.2486ZM138.781 58.4114C137.182 58.4114 135.618 58.8858 134.288 59.7746C132.957 60.6634 131.921 61.9266 131.308 63.4046C130.696 64.8826 130.536 66.509 130.848 68.078C131.16 69.647 131.931 71.0883 133.062 72.2195C134.193 73.3507 135.634 74.1211 137.203 74.4332C138.772 74.7453 140.399 74.5851 141.877 73.9729C143.355 73.3607 144.618 72.324 145.507 70.9938C146.396 69.6636 146.87 68.0998 146.87 66.5C146.872 65.4373 146.664 64.3846 146.258 63.4024C145.852 62.4201 145.257 61.5277 144.505 60.7762C143.754 60.0247 142.861 59.429 141.879 59.0232C140.897 58.6174 139.844 58.4095 138.781 58.4114Z" fill="black"/>
<path d="M106.178 133.052C103.855 133.052 101.584 132.363 99.6522 131.072C97.7205 129.781 96.2149 127.947 95.3257 125.801C94.4366 123.654 94.2039 121.292 94.657 119.014C95.1101 116.735 96.2287 114.642 97.8713 112.999C99.5139 111.356 101.607 110.237 103.885 109.784C106.164 109.331 108.526 109.563 110.672 110.452C112.819 111.341 114.653 112.846 115.944 114.777C117.235 116.709 117.925 118.98 117.925 121.303C117.922 124.418 116.683 127.404 114.481 129.606C112.279 131.809 109.293 133.048 106.178 133.052ZM106.178 113.216C104.245 113.216 102.377 113.908 100.91 115.167C99.4441 116.426 98.4771 118.169 98.1846 120.079C97.8922 121.99 98.2936 123.942 99.3162 125.582C100.339 127.222 101.915 128.441 103.759 129.019C105.603 129.598 107.593 129.496 109.369 128.734C111.145 127.971 112.589 126.598 113.44 124.862C114.29 123.127 114.491 121.144 114.006 119.273C113.521 117.402 112.382 115.767 110.795 114.664C109.44 113.722 107.829 113.217 106.178 113.216Z" fill="black"/>
<path d="M43.8593 133.052C41.5356 133.052 39.2639 132.363 37.3316 131.073C35.3994 129.782 33.8932 127.947 33.0037 125.8C32.1142 123.654 31.8813 121.291 32.3344 119.012C32.7875 116.733 33.9063 114.639 35.5493 112.996C37.1923 111.353 39.2857 110.234 41.5648 109.78C43.8438 109.327 46.2062 109.559 48.3531 110.449C50.4999 111.338 52.3349 112.844 53.626 114.776C54.917 116.708 55.6061 118.979 55.6061 121.303C55.6027 124.418 54.3641 127.404 52.1619 129.606C49.9597 131.809 46.9739 133.048 43.8593 133.052ZM43.8593 113.216C42.2594 113.216 40.6953 113.69 39.3648 114.579C38.0344 115.467 36.9974 116.731 36.3849 118.209C35.7725 119.687 35.6122 121.313 35.9242 122.882C36.2363 124.452 37.0067 125.893 38.138 127.024C39.2693 128.156 40.7107 128.926 42.2799 129.238C43.8491 129.55 45.4756 129.39 46.9537 128.777C48.4318 128.165 49.695 127.128 50.5837 125.797C51.4723 124.467 51.9465 122.903 51.9461 121.303C51.948 120.24 51.7402 119.188 51.3344 118.206C50.9287 117.224 50.3331 116.332 49.5818 115.581C48.8305 114.829 47.9383 114.234 46.9563 113.828C45.9743 113.422 44.9218 113.214 43.8593 113.216Z" fill="black"/>
<path d="M12.2186 78.2486C9.36782 78.2494 6.61397 77.2138 4.47013 75.3347C2.32629 73.4557 0.93867 70.8613 0.565811 68.0351C0.192952 65.2088 0.860281 62.3433 2.44346 59.9726C4.02665 57.6018 6.41771 55.8875 9.17115 55.1489C11.9246 54.4104 14.8526 54.698 17.4097 55.9582C19.9668 57.2185 21.9786 59.3653 23.0702 61.9988C24.1618 64.6323 24.2587 67.5729 23.343 70.2726C22.4273 72.9723 20.5614 75.247 18.0929 76.673C16.3068 77.7041 14.281 78.2475 12.2186 78.2486ZM12.2186 58.4114C10.2561 58.4111 8.36052 59.1242 6.8849 60.418C5.40929 61.7117 4.45435 63.4978 4.198 65.4434C3.94165 67.3891 4.40139 69.3615 5.49155 70.9933C6.5817 72.6251 8.22793 73.8049 10.1235 74.3129C12.019 74.8209 14.0346 74.6224 15.7947 73.7545C17.5548 72.8866 18.9393 71.4083 19.6902 69.5953C20.4412 67.7822 20.5074 65.7579 19.8765 63.8997C19.2456 62.0414 17.9607 60.4759 16.2611 59.4948C15.0318 58.7857 13.6377 58.4121 12.2186 58.4114Z" fill="black"/>
</g>
</svg>
