<svg width="144" height="50" viewBox="0 0 144 50" fill="none" xmlns="http://www.w3.org/2000/svg">
<path d="M44.0354 23.9982L38.3562 22.3752C35.7987 21.6542 33.4691 20.2889 31.5901 18.41C29.7112 16.5311 28.346 14.2015 27.6249 11.644L26.002 5.96482C25.9204 5.76613 25.7816 5.59618 25.6031 5.47658C25.4247 5.35698 25.2147 5.29312 24.9999 5.29312C24.7851 5.29312 24.5752 5.35698 24.3967 5.47658C24.2183 5.59618 24.0795 5.76613 23.9979 5.96482L22.3749 11.644C21.6539 14.2015 20.2886 16.5311 18.4097 18.41C16.5308 20.2889 14.2012 21.6542 11.6437 22.3752L5.96452 23.9982C5.74645 24.0601 5.55453 24.1914 5.41787 24.3722C5.28121 24.5531 5.20728 24.7736 5.20728 25.0002C5.20728 25.2269 5.28121 25.4474 5.41787 25.6283C5.55453 25.8091 5.74645 25.9404 5.96452 26.0023L11.6437 27.6252C14.2012 28.3463 16.5308 29.7115 18.4097 31.5905C20.2886 33.4694 21.6539 35.799 22.3749 38.3565L23.9979 44.0357C24.0597 44.2537 24.1911 44.4456 24.3719 44.5823C24.5528 44.719 24.7733 44.7929 24.9999 44.7929C25.2266 44.7929 25.4471 44.719 25.6279 44.5823C25.8088 44.4456 25.9401 44.2537 26.002 44.0357L27.6249 38.3565C28.346 35.799 29.7112 33.4694 31.5901 31.5905C33.4691 29.7115 35.7987 28.3463 38.3562 27.6252L44.0354 26.0023C44.2534 25.9404 44.4453 25.8091 44.582 25.6283C44.7187 25.4474 44.7926 25.2269 44.7926 25.0002C44.7926 24.7736 44.7187 24.5531 44.582 24.3722C44.4453 24.1914 44.2534 24.0601 44.0354 23.9982Z" fill="black"/>
<path d="M89.0354 23.9982L83.3562 22.3752C80.7987 21.6542 78.4691 20.2889 76.5901 18.41C74.7112 16.5311 73.346 14.2015 72.6249 11.644L71.002 5.96482C70.9204 5.76613 70.7816 5.59618 70.6031 5.47658C70.4247 5.35698 70.2147 5.29312 69.9999 5.29312C69.7851 5.29312 69.5752 5.35698 69.3967 5.47658C69.2183 5.59618 69.0795 5.76613 68.9979 5.96482L67.3749 11.644C66.6539 14.2015 65.2886 16.5311 63.4097 18.41C61.5308 20.2889 59.2012 21.6542 56.6437 22.3752L50.9645 23.9982C50.7465 24.0601 50.5545 24.1914 50.4179 24.3722C50.2812 24.5531 50.2073 24.7736 50.2073 25.0002C50.2073 25.2269 50.2812 25.4474 50.4179 25.6283C50.5545 25.8091 50.7465 25.9404 50.9645 26.0023L56.6437 27.6252C59.2012 28.3463 61.5308 29.7115 63.4097 31.5905C65.2886 33.4694 66.6539 35.799 67.3749 38.3565L68.9979 44.0357C69.0597 44.2537 69.1911 44.4456 69.3719 44.5823C69.5528 44.719 69.7733 44.7929 69.9999 44.7929C70.2266 44.7929 70.4471 44.719 70.6279 44.5823C70.8088 44.4456 70.9401 44.2537 71.002 44.0357L72.6249 38.3565C73.346 35.799 74.7112 33.4694 76.5901 31.5905C78.4691 29.7115 80.7987 28.3463 83.3562 27.6252L89.0354 26.0023C89.2534 25.9404 89.4453 25.8091 89.582 25.6283C89.7187 25.4474 89.7926 25.2269 89.7926 25.0002C89.7926 24.7736 89.7187 24.5531 89.582 24.3722C89.4453 24.1914 89.2534 24.0601 89.0354 23.9982Z" fill="black"/>
<path d="M138.035 23.9982L132.356 22.3752C129.799 21.6542 127.469 20.2889 125.59 18.41C123.711 16.5311 122.346 14.2015 121.625 11.644L120.002 5.96482C119.92 5.76613 119.782 5.59618 119.603 5.47658C119.425 5.35698 119.215 5.29312 119 5.29312C118.785 5.29312 118.575 5.35698 118.397 5.47658C118.218 5.59618 118.079 5.76613 117.998 5.96482L116.375 11.644C115.654 14.2015 114.289 16.5311 112.41 18.41C110.531 20.2889 108.201 21.6542 105.644 22.3752L99.9645 23.9982C99.7465 24.0601 99.5545 24.1914 99.4179 24.3722C99.2812 24.5531 99.2073 24.7736 99.2073 25.0002C99.2073 25.2269 99.2812 25.4474 99.4179 25.6283C99.5545 25.8091 99.7465 25.9404 99.9645 26.0023L105.644 27.6252C108.201 28.3463 110.531 29.7115 112.41 31.5905C114.289 33.4694 115.654 35.799 116.375 38.3565L117.998 44.0357C118.06 44.2537 118.191 44.4456 118.372 44.5823C118.553 44.719 118.773 44.7929 119 44.7929C119.227 44.7929 119.447 44.719 119.628 44.5823C119.809 44.4456 119.94 44.2537 120.002 44.0357L121.625 38.3565C122.346 35.799 123.711 33.4694 125.59 31.5905C127.469 29.7115 129.799 28.3463 132.356 27.6252L138.035 26.0023C138.253 25.9404 138.445 25.8091 138.582 25.6283C138.719 25.4474 138.793 25.2269 138.793 25.0002C138.793 24.7736 138.719 24.5531 138.582 24.3722C138.445 24.1914 138.253 24.0601 138.035 23.9982Z" fill="black"/>
</svg>
