<svg width="30" height="30" viewBox="0 0 30 30" fill="none" xmlns="http://www.w3.org/2000/svg">
<g clip-path="url(#clip0_111_1644)">
<path d="M22.8499 18.2438C17.5253 19.3396 18.0065 24.1952 12.3123 18.3318C11.729 17.7294 11.1376 17.078 10.5883 16.4439C9.96853 15.693 8.99574 14.7983 8.82672 13.7911C7.96146 11.5704 10.5043 10.7134 11.4178 9.08337C12.7388 6.20475 10.5085 2.57265 7.92921 1.14314C4.47244 -0.819693 0.96687 1.7931 0.299826 5.36592C-0.187407 7.67406 0.029747 10.1041 0.553721 12.3878C1.65717 16.8583 4.1981 20.9829 7.75168 23.9156C8.53656 24.335 9.84104 25.9979 10.7053 25.396C10.8845 25.1736 10.8444 24.8465 10.618 24.6734C9.08583 23.4437 7.72033 22.0481 6.52937 20.502C6.1227 19.9678 5.71722 19.4013 5.35148 18.838C2.88193 14.9121 1.08075 10.1215 1.81559 5.43605C3.32308 -1.32335 10.7053 2.34693 10.7617 7.75263C10.4899 9.34937 8.83625 9.94941 8.03644 11.3074C6.67616 14.2904 9.51061 17.1291 11.157 19.3813C12.9419 21.5393 15.8921 24.103 18.8077 22.4369C20.2632 21.6983 21.2625 20.1184 22.9342 19.8699C24.2748 19.7632 25.4928 20.5943 26.5094 21.3991C31.4429 24.9547 24.942 29.8472 20.8157 28.8213C19.0598 28.6328 17.3525 28.0929 15.7523 27.3532C12.7623 28.048 19.8354 29.9263 20.6241 29.8645C24.5088 30.6606 30.332 27.8786 29.4151 23.2795C28.7347 20.7397 25.4936 18.241 22.8499 18.2438Z" fill="black"/>
<path d="M19.109 10.3932C18.7831 10.697 18.4461 10.9883 18.0913 11.2583C17.5658 11.6483 18.1891 12.4594 18.7015 12.061C21.5013 9.77865 24.2943 7.32864 26.3219 4.31624C26.5457 2.35382 23.9137 4.62648 23.4115 5.20026C22.3178 6.34225 21.6335 7.83457 20.5119 8.9572C20.0688 9.44737 19.5934 9.94168 19.109 10.3932Z" fill="black"/>
<path d="M16.6286 6.2318C17.3518 6.47581 17.4726 5.28395 17.8066 4.85977C18.3861 3.67546 18.986 2.49116 19.7295 1.41C20.4589 0.368289 18.706 -0.6395 18.1711 0.51148C17.5668 1.78228 17.1688 3.12476 16.7823 4.46526C16.7413 5.01441 16.1189 5.80319 16.6286 6.2318Z" fill="black"/>
<path d="M28.8025 10.2805C27.4718 10.7274 26.1513 11.2752 24.9751 12.0572C24.5805 12.4376 23.586 12.7779 23.7952 13.4348C23.905 13.6314 24.1534 13.7017 24.3499 13.5919C25.8499 12.7186 27.5335 12.2944 29.2369 12.0256C30.4929 11.8281 30.0022 9.86694 28.8025 10.2805Z" fill="black"/>
</g>
<defs>
<clipPath id="clip0_111_1644">
<rect width="30" height="30" fill="white"/>
</clipPath>
</defs>
</svg>
