<svg width="177" height="128" viewBox="0 0 177 128" fill="none" xmlns="http://www.w3.org/2000/svg">
<path d="M106 53.4118L165.947 53.4118C167.818 53.4118 169.612 54.1555 170.934 55.4792C172.257 56.803 173 58.5985 173 60.4706L173 116.941C173 118.813 172.257 120.609 170.934 121.933C169.612 123.256 167.818 124 165.947 124L113.053 124C111.182 124 109.388 123.256 108.066 121.933C106.743 120.609 106 118.813 106 116.941L106 39.2941C106 29.9335 109.715 20.9563 116.328 14.3374C122.941 7.71847 131.911 4 141.263 4" stroke="#D5EEC1" stroke-width="7" stroke-linecap="round" stroke-linejoin="round"/>
<path d="M4.00001 53.4118L63.9474 53.4118C65.8178 53.4118 67.6117 54.1555 68.9343 55.4792C70.257 56.803 71 58.5985 71 60.4706L71 116.941C71 118.813 70.257 120.609 68.9343 121.933C67.6117 123.256 65.8178 124 63.9474 124L11.0526 124C9.18216 124 7.38829 123.256 6.06566 121.933C4.74304 120.609 4 118.813 4 116.941L4.00001 39.2941C4.00001 29.9335 7.71523 20.9563 14.3284 14.3374C20.9415 7.71847 29.9108 4 39.2632 4" stroke="#D5EEC1" stroke-width="7" stroke-linecap="round" stroke-linejoin="round"/>
</svg>
