<svg width="41" height="42" viewBox="0 0 41 42" fill="none" xmlns="http://www.w3.org/2000/svg">
<g clip-path="url(#clip0_44_1190)">
<path d="M40.3236 1.67513C40.3175 1.64451 40.3062 1.61631 40.2974 1.58691C40.2873 1.55347 40.2801 1.51964 40.2664 1.48741C40.2519 1.45237 40.2317 1.42014 40.2136 1.38711C40.2003 1.36294 40.1894 1.33756 40.1741 1.3142C40.1004 1.20342 40.0053 1.10836 39.8946 1.03464C39.8716 1.01933 39.847 1.00926 39.8233 0.995968C39.7898 0.977439 39.7572 0.957298 39.7213 0.942393C39.6895 0.9291 39.6561 0.921849 39.6231 0.911779C39.5932 0.902917 39.5646 0.891235 39.5336 0.885192C39.4684 0.871899 39.4023 0.865051 39.3362 0.865051H17.8602C17.3039 0.865051 16.8531 1.31581 16.8531 1.87211C16.8531 2.4284 17.3039 2.87916 17.8602 2.87916H36.9052L0.355959 39.428C-0.0375983 39.8216 -0.0375983 40.4588 0.355959 40.852C0.552536 41.049 0.810342 41.1473 1.06815 41.1473C1.32595 41.1473 1.58376 41.049 1.78034 40.8524L38.3292 4.30314V23.3478C38.3292 23.9041 38.7799 24.3548 39.3362 24.3548C39.8925 24.3548 40.3433 23.9041 40.3433 23.3478V1.87211C40.3433 1.80604 40.3364 1.73998 40.3236 1.67513Z" fill="white"/>
</g>
<defs>
<clipPath id="clip0_44_1190">
<rect width="40.2822" height="40.2822" fill="white" transform="translate(0.0612793 0.865051)"/>
</clipPath>
</defs>
</svg>
