<svg width="155" height="149" viewBox="0 0 155 149" fill="none" xmlns="http://www.w3.org/2000/svg">
<path d="M58.0171 58.9679C61.9141 63.07 66.3145 67.7128 70.92 71.386C71.181 71.5911 71.4794 71.6843 71.7964 71.6843C72.132 71.6843 72.449 71.5725 72.71 71.3487C78.1732 66.6127 82.7415 61.9139 87.1046 56.5626C87.4402 56.1524 87.5148 55.5743 87.291 55.0896C87.0673 54.6048 86.5825 54.2878 86.0604 54.2691C84.8111 54.2318 83.6178 54.2691 82.4804 54.2878C81.8092 54.3064 81.1006 54.3251 80.4107 54.3251C80.448 52.8334 80.5226 50.8383 80.5972 48.8805C80.6718 46.9973 80.7463 45.2259 80.765 43.8648V43.6224C80.8023 42.0375 80.8396 40.9001 79.9819 40.0237C79.236 39.2592 78.1546 39.166 77.185 39.166L65.9975 39.1847C65.1584 39.166 63.9651 39.2592 63.1633 40.117C62.3616 40.956 62.3429 42.1121 62.4175 43.0071C62.548 44.6852 62.6412 47.3702 62.7345 49.9433C62.7904 51.4909 62.8277 52.9826 62.9023 54.2505C62.3243 54.2691 61.7835 54.2691 61.2428 54.2878C60.0495 54.3064 58.8002 54.3251 56.9543 54.4183C56.4135 54.437 55.9287 54.7912 55.7236 55.2947C55.5185 55.7981 55.6304 56.3948 56.022 56.7863C56.6186 57.5135 57.3085 58.2407 58.0171 58.9679ZM61.2615 57.1406C62.1937 57.122 63.1633 57.1033 64.394 57.066C64.7669 57.0474 65.1211 56.8796 65.3822 56.5999C65.6432 56.3202 65.7551 55.9473 65.7365 55.5743C65.6432 54.1386 65.5686 52.0876 65.5127 49.906C65.4195 47.2956 65.3262 44.592 65.1957 42.8392C65.1584 42.4104 65.1957 42.1866 65.2144 42.0934C65.3076 42.0561 65.5314 42.0188 65.9602 42.0188H65.9788L77.185 42.0002C77.5952 42.0002 77.819 42.0188 77.9308 42.0561C77.9681 42.3731 77.9681 43.0071 77.9495 43.5851V43.8275C77.9122 45.17 77.8562 46.9413 77.7817 48.8059C77.6698 51.4909 77.5766 54.2691 77.5766 55.7422C77.5766 56.5066 78.1732 57.122 78.9377 57.1406C80.187 57.1779 81.3803 57.1406 82.5363 57.122C82.7042 57.122 82.872 57.122 83.0211 57.1033C79.5717 61.1308 75.9171 64.804 71.7591 68.4773C67.657 65.0651 63.6854 60.8884 60.1427 57.1592C60.5343 57.1406 60.8885 57.1406 61.2615 57.1406Z" fill="#222222"/>
<path d="M147.909 97.2852C144.795 92.8661 142.166 89.4912 139.63 86.2095C136.646 82.3685 133.831 78.7326 130.288 73.5677C130.046 73.1761 129.617 72.8964 129.02 72.71C120.704 71.0318 107.578 68.7943 95.6257 66.9857C101.089 57.4577 100.548 46.5312 94.0408 36.7235C91.6728 33.1435 87.9436 30.272 83.2635 28.4261C81.8837 27.8854 80.448 27.4379 78.9563 27.0836C76.7002 20.7813 69.9504 8.86663 60.2918 1.22184C59.6952 0.737051 58.8002 0.848925 58.334 1.44559C57.8492 2.04226 57.9611 2.93726 58.5578 3.4034C66.6314 9.78028 73.0083 19.9609 75.7306 26.4683C74.0897 26.2445 72.4303 26.1513 70.8081 26.17C69.7453 23.3731 68.496 20.2592 65.6245 17.6115C65.0652 17.0894 64.1702 17.1267 63.6481 17.6861C63.126 18.2455 63.1633 19.1405 63.7227 19.6626C66.2585 21.9933 67.3027 24.8088 68.3282 27.5311L68.5146 28.0532C68.5146 28.0718 68.5333 28.0905 68.5333 28.1091C68.8316 28.9109 69.13 29.8432 69.1113 30.7382C69.0927 31.5213 68.7757 32.2112 68.3095 32.5468C67.5823 33.0689 66.389 32.8265 65.6059 32.3044C64.5431 31.6145 63.7599 30.4212 63.0141 29.2838C62.6598 28.7617 62.3802 28.221 62.0818 27.6616C61.3919 26.3378 60.5902 24.8461 58.7442 23.2985C58.1476 22.7951 57.2712 22.8697 56.7678 23.4663C56.2643 24.063 56.3389 24.9393 56.9356 25.4428C58.2967 26.5802 58.8747 27.6243 59.5087 28.8177C56.0965 30.5144 53.0572 32.9571 50.5401 35.9777C47.7432 29.5822 44.5734 23.5409 39.0915 18.8049C38.5135 18.3014 37.6185 18.3574 37.115 18.954C36.6116 19.5321 36.6675 20.4271 37.2642 20.9305C42.7088 25.6479 45.7854 31.9502 48.6195 38.5881C45.5616 43.2309 43.9208 48.6196 43.9767 53.8777C44.0326 58.9307 45.6548 64.0583 48.5636 68.496C41.7206 69.8572 29.0787 72.4303 20.6881 74.6491C19.6998 74.8729 18.9167 75.5441 18.2455 76.5137C11.9805 84.4941 7.46817 90.2743 1.05401 99.3549C0.792966 99.7091 0.737028 100.175 0.867549 100.585C0.99807 100.996 1.3337 101.331 1.7439 101.48C8.56828 103.811 14.0688 105.452 19.1778 106.869C19.3269 115.409 19.588 126.522 19.9422 133.178C19.9795 133.756 20.3711 134.26 20.9305 134.446C32.64 137.989 71.1064 148.002 73.7355 148.039H73.7914C74.3881 148.039 76.4577 147.815 103.326 140.488C116.975 136.758 130.493 132.992 130.624 132.955C131.239 132.787 131.649 132.227 131.649 131.594C131.649 131.463 131.519 118.187 131.295 104.52C136.143 103.028 141.252 101.387 147.163 99.3735C147.573 99.2243 147.909 98.9074 148.039 98.4785C148.226 98.1056 148.17 97.6581 147.909 97.2852ZM46.7922 53.859C46.7363 48.9365 48.3585 43.8649 51.3605 39.5577C51.3605 39.539 51.3791 39.539 51.3791 39.5204C51.3791 39.5204 51.3791 39.5204 51.3791 39.5017C53.8963 35.9031 57.178 33.0689 60.9258 31.2416C61.7276 32.4536 62.6785 33.7588 64.0583 34.6538C64.9533 35.2505 66.128 35.6421 67.3027 35.6421C68.2163 35.6421 69.13 35.3997 69.9504 34.8216C71.1251 33.9826 71.8522 32.4909 71.9082 30.8314C71.9268 30.1788 71.8522 29.5635 71.7217 28.9668C78.9377 29.0787 87.4774 31.8756 91.7101 38.2525C95.029 43.2682 96.6698 48.489 96.5393 53.7658C96.4274 58.4459 94.9171 63.1074 92.1389 67.2654C92.0084 67.4519 91.8779 67.6383 91.7473 67.8248C88.8572 71.9268 84.4755 75.1153 79.4224 76.8307C74.3694 78.5461 68.9435 78.6766 64.1702 77.185C59.5273 75.7306 55.2202 72.6727 52.069 68.5706C48.7314 64.2634 46.8482 59.0239 46.7922 53.859ZM4.4662 99.4667C10.265 91.2999 14.6095 85.7621 20.483 78.2664L20.8559 77.8003C29.4516 79.87 38.0846 81.8651 46.4566 83.8042C54.3811 85.6315 62.548 87.5334 70.6962 89.4912C68.4587 92.5864 66.128 95.9613 63.8532 99.2243C60.4037 104.203 56.861 109.33 53.5793 113.6C43.2682 110.412 35.8098 108.435 29.2092 106.701C21.322 104.613 14.4417 102.804 4.4662 99.4667ZM22.7205 132.078C22.3848 125.608 22.1611 115.651 22.0119 107.671C24.1935 108.268 26.3191 108.827 28.482 109.386C35.5861 111.251 42.9325 113.19 53.6726 116.528C53.8031 116.565 53.9522 116.584 54.0828 116.584C54.5116 116.584 54.9218 116.397 55.1829 116.043C58.651 111.568 62.4547 106.086 66.128 100.791C67.9926 98.1056 69.8944 95.346 71.759 92.7542C71.9828 101.686 72.0014 109.778 72.0201 117.628C72.0387 126.205 72.0573 135.062 72.337 145C65.1211 143.508 35.2132 135.789 22.7205 132.078ZM73.0456 87.1605C64.3193 85.0535 55.5558 83.0211 47.0719 81.0633C40.2289 79.4784 33.1994 77.8562 26.1513 76.1781C32.4722 74.6678 40.9375 72.8591 50.3909 70.9946C53.8404 75.2085 58.4086 78.3597 63.3311 79.8886C65.811 80.6531 68.44 81.0447 71.1064 81.0447C74.183 81.0447 77.3155 80.5412 80.3175 79.5157C85.8926 77.6325 90.7218 74.0898 93.9475 69.5588C103.681 71.0132 114.346 72.7846 122.606 74.3135C115.297 76.2154 107.913 78.1173 100.697 79.9818C91.6168 82.3499 82.2007 84.7738 73.0456 87.1605ZM75.1525 145.037C74.8542 135.099 74.8356 126.224 74.8356 117.646C74.8169 109.89 74.7983 101.909 74.5932 93.0899C76.2154 95.346 77.8748 97.6954 79.497 99.9888C83.3381 105.415 87.3096 111.027 90.9269 115.689C91.188 116.043 91.5982 116.229 92.027 116.229C92.1576 116.229 92.3067 116.211 92.4372 116.173C101.984 113.209 109.61 110.971 116.323 109.013C120.518 107.783 124.489 106.627 128.554 105.396C128.741 116.528 128.853 127.23 128.89 130.568C109.573 135.975 81.8464 143.564 75.1525 145.037ZM129.487 102.208C124.806 103.643 120.331 104.949 115.539 106.347C109.013 108.249 101.667 110.393 92.5305 113.227C89.1183 108.771 85.3891 103.494 81.7718 98.3853C79.6648 95.3833 77.4833 92.3254 75.3949 89.4539C84.028 87.1978 92.8661 84.923 101.425 82.7228C110.281 80.4293 119.436 78.08 128.368 75.7492C131.78 80.6904 134.633 84.3636 137.411 87.9436C139.63 90.8151 141.923 93.7611 144.534 97.397C138.996 99.243 134.148 100.791 129.487 102.208Z" fill="#222222"/>
<circle cx="138.5" cy="130.5" r="16.5" fill="black"/>
<path fill-rule="evenodd" clip-rule="evenodd" d="M147.614 123.649C148.033 124.016 148.072 124.656 147.698 125.071L137.184 136.741C136.809 137.157 136.164 137.184 135.756 136.799L129.672 131.072C129.292 130.715 129.256 130.119 129.581 129.713C129.941 129.264 130.61 129.202 131.037 129.586L135.757 133.832C136.168 134.201 136.799 134.168 137.169 133.758L146.212 123.732C146.578 123.326 147.202 123.289 147.614 123.649Z" fill="white"/>
</svg>
