<svg width="47" height="47" viewBox="0 0 47 47" fill="none" xmlns="http://www.w3.org/2000/svg">
<path d="M23.5002 0.000244141C10.5423 0.000244141 0.000244141 10.5423 0.000244141 23.5002C0.000244141 36.458 10.5423 47.0001 23.5002 47.0001C36.458 47.0001 47.0001 36.4581 47.0001 23.5002C47.0001 10.5422 36.458 0.000244141 23.5002 0.000244141ZM23.5002 44.0626C12.162 44.0626 2.93774 34.8383 2.93774 23.5002C2.93774 12.162 12.162 2.93774 23.5002 2.93774C34.8383 2.93774 44.0626 12.162 44.0626 23.5002C44.0626 34.8383 34.8383 44.0626 23.5002 44.0626ZM36.5353 23.5002C36.5353 24.3114 35.8777 24.9689 35.0666 24.9689H24.9689V35.0666C24.9689 35.8778 24.3113 36.5353 23.5002 36.5353C22.689 36.5353 22.0314 35.8778 22.0314 35.0666V24.9689H11.9337C11.1226 24.9689 10.465 24.3114 10.465 23.5002C10.465 22.6889 11.1226 22.0314 11.9337 22.0314H22.0314V11.9337C22.0314 11.1225 22.689 10.465 23.5002 10.465C24.3113 10.465 24.9689 11.1225 24.9689 11.9337V22.0314H35.0666C35.8777 22.0314 36.5353 22.689 36.5353 23.5002Z" fill="black"/>
</svg>
