<svg width="75" height="47" viewBox="0 0 75 47" fill="none" xmlns="http://www.w3.org/2000/svg">
<path d="M1 43.9205C1.73109 43.8292 1.23256 43.3592 1.62693 43.0087C1.94549 42.7255 4.02137 43.9319 4.30562 44.0345C11.9236 46.7855 20.4532 46.3264 28.0719 43.9205C46.2893 38.1677 55.6081 21.0395 57.4235 2.88525" stroke="#1E1E1E" stroke-width="2" stroke-linecap="round" stroke-linejoin="round"/>
<path d="M54.859 1.85938C54.8853 1.81261 55.7345 0.409343 55.6569 1.28945C55.5134 2.91488 53.9269 4.25981 52.7502 5.165C47.6452 9.09191 41.4531 11.7552 35.3672 13.657" stroke="#1E1E1E" stroke-width="2" stroke-linecap="round" stroke-linejoin="round"/>
<path d="M57.9365 2.37217C57.9365 0.978286 59.0118 4.952 59.7033 6.16223C63.0271 11.9788 68.2159 15.4643 73.8377 18.7863" stroke="#1E1E1E" stroke-width="2" stroke-linecap="round" stroke-linejoin="round"/>
</svg>
