<svg width="93" height="93" viewBox="0 0 93 93" fill="none" xmlns="http://www.w3.org/2000/svg">
<g clip-path="url(#clip0_16_92)">
<path d="M66.4606 36.0642L49.0231 26.0995C48.2539 25.6628 47.3845 25.4332 46.5 25.4332C45.6155 25.4332 44.7461 25.6628 43.9769 26.0995L26.5394 36.0642C25.7615 36.5098 25.115 37.1528 24.665 37.9281C24.2151 38.7035 23.9776 39.5838 23.9766 40.4803V59.1368C23.9782 60.4852 24.5146 61.7778 25.468 62.7313C26.4214 63.6847 27.7141 64.2211 29.0625 64.2227H63.9375C65.2859 64.2211 66.5786 63.6847 67.532 62.7313C68.4854 61.7778 69.0218 60.4852 69.0234 59.1368V40.4803C69.0226 39.5838 68.7852 38.7034 68.3352 37.928C67.8852 37.1526 67.2386 36.5097 66.4606 36.0642ZM51.5859 59.8633H41.4141V51.1446H51.5859V59.8633Z" fill="#FFDF41"/>
<path d="M92.2734 23.25C92.2756 21.5729 91.7495 19.9377 90.7697 18.5766C89.79 17.2154 88.4063 16.1975 86.8153 15.6672C85.2242 15.137 83.5065 15.1214 81.9061 15.6227C80.3057 16.1239 78.9038 17.1166 77.8994 18.4597L54.4555 9.44303C54.4771 9.20409 54.4922 8.96318 54.4922 8.71875C54.4922 6.59909 53.6502 4.56625 52.1513 3.06742C50.6525 1.56859 48.6197 0.726563 46.5 0.726562C44.3803 0.726563 42.3475 1.56859 40.8487 3.06742C39.3498 4.56625 38.5078 6.59909 38.5078 8.71875C38.5078 8.96318 38.5229 9.20409 38.5445 9.443L15.1006 18.4596C14.34 17.4449 13.3487 16.626 12.2087 16.0705C11.0688 15.5151 9.81288 15.2392 8.54507 15.2656C7.27725 15.292 6.03395 15.62 4.91809 16.2224C3.80223 16.8248 2.8459 17.6843 2.12825 18.7298C1.4106 19.7753 0.95228 20.9767 0.791224 22.2345C0.630169 23.4923 0.77101 24.7704 1.20209 25.963C1.63317 27.1556 2.34209 28.2283 3.27017 29.0924C4.19825 29.9566 5.3188 30.5872 6.53906 30.9322V62.0678C5.31766 62.412 4.19586 63.0424 3.2666 63.9065C2.33734 64.7707 1.62737 65.8439 1.19551 67.0371C0.76364 68.2303 0.622311 69.5093 0.783226 70.7681C0.944141 72.0268 1.40267 73.2291 2.12082 74.2753C2.83898 75.3215 3.79609 76.1816 4.91286 76.7842C6.02963 77.3868 7.27391 77.7146 8.54263 77.7405C9.81135 77.7664 11.068 77.4897 12.2084 76.9331C13.3489 76.3766 14.3403 75.5564 15.1006 74.5403L38.5445 83.557C38.4434 84.6628 38.5739 85.7776 38.9277 86.8301C39.2815 87.8827 39.8509 88.85 40.5995 89.6702C41.348 90.4903 42.2594 91.1455 43.2753 91.5937C44.2913 92.0419 45.3896 92.2734 46.5 92.2734C47.6104 92.2734 48.7087 92.0419 49.7247 91.5937C50.7406 91.1455 51.652 90.4903 52.4006 89.6702C53.1491 88.85 53.7185 87.8827 54.0723 86.8301C54.4261 85.7776 54.5566 84.6628 54.4555 83.557L77.8994 74.5403C78.66 75.555 79.6513 76.374 80.7913 76.9295C81.9312 77.4849 83.1871 77.7608 84.4549 77.7344C85.7228 77.708 86.9661 77.3801 88.0819 76.7776C89.1978 76.1752 90.1541 75.3157 90.8718 74.2702C91.5894 73.2247 92.0478 72.0233 92.2088 70.7655C92.3699 69.5077 92.229 68.2296 91.7979 67.037C91.3669 65.8445 90.6579 64.7717 89.7299 63.9076C88.8018 63.0434 87.6812 62.4128 86.4609 62.0678V30.9322C88.1326 30.4567 89.6041 29.4498 90.6527 28.0638C91.7014 26.6778 92.2703 24.988 92.2734 23.25ZM84.2813 19.6172C84.9998 19.6172 85.7021 19.8302 86.2995 20.2294C86.8969 20.6286 87.3626 21.196 87.6375 21.8598C87.9125 22.5236 87.9844 23.254 87.8443 23.9587C87.7041 24.6634 87.3581 25.3107 86.85 25.8188C86.342 26.3268 85.6947 26.6728 84.99 26.813C84.2853 26.9532 83.5548 26.8812 82.891 26.6063C82.2272 26.3313 81.6599 25.8657 81.2607 25.2683C80.8615 24.6709 80.6484 23.9685 80.6484 23.25C80.6493 22.2868 81.0324 21.3633 81.7135 20.6822C82.3945 20.0011 83.318 19.6181 84.2813 19.6172ZM46.5 5.08594C47.2185 5.08594 47.9209 5.299 48.5183 5.69818C49.1157 6.09736 49.5813 6.66472 49.8563 7.32853C50.1312 7.99234 50.2032 8.72278 50.063 9.42748C49.9228 10.1322 49.5769 10.7795 49.0688 11.2875C48.5607 11.7956 47.9134 12.1416 47.2087 12.2818C46.504 12.4219 45.7736 12.35 45.1098 12.075C44.446 11.8001 43.8786 11.3344 43.4794 10.737C43.0802 10.1396 42.8672 9.43725 42.8672 8.71875C42.8681 7.75554 43.2511 6.83204 43.9322 6.15095C44.6133 5.46985 45.5368 5.08683 46.5 5.08594ZM5.08594 23.25C5.08594 22.5315 5.299 21.8291 5.69817 21.2317C6.09735 20.6343 6.66472 20.1687 7.32853 19.8937C7.99234 19.6188 8.72278 19.5468 9.42747 19.687C10.1322 19.8272 10.7795 20.1732 11.2875 20.6812C11.7956 21.1893 12.1416 21.8366 12.2818 22.5413C12.4219 23.246 12.35 23.9764 12.075 24.6402C11.8001 25.304 11.3344 25.8714 10.737 26.2706C10.1396 26.6698 9.43725 26.8828 8.71875 26.8828C7.75554 26.8819 6.83204 26.4989 6.15094 25.8178C5.46985 25.1367 5.08682 24.2132 5.08594 23.25ZM8.71875 73.3828C8.00025 73.3828 7.29788 73.1698 6.70047 72.7706C6.10305 72.3714 5.63743 71.804 5.36247 71.1402C5.08751 70.4764 5.01557 69.746 5.15574 69.0413C5.29591 68.3366 5.6419 67.6893 6.14996 67.1812C6.65802 66.6732 7.30532 66.3272 8.01002 66.187C8.71472 66.0468 9.44516 66.1188 10.109 66.3937C10.7728 66.6687 11.3401 67.1343 11.7393 67.7317C12.1385 68.3291 12.3516 69.0315 12.3516 69.75C12.3507 70.7132 11.9676 71.6367 11.2866 72.3178C10.6055 72.9989 9.68196 73.3819 8.71875 73.3828ZM46.5 87.9141C45.7815 87.9141 45.0791 87.701 44.4817 87.3018C43.8843 86.9026 43.4187 86.3353 43.1437 85.6715C42.8688 85.0077 42.7968 84.2772 42.937 83.5725C43.0772 82.8678 43.4232 82.2205 43.9312 81.7125C44.4393 81.2044 45.0866 80.8584 45.7913 80.7182C46.496 80.5781 47.2264 80.65 47.8902 80.925C48.554 81.1999 49.1214 81.6656 49.5206 82.263C49.9198 82.8604 50.1328 83.5628 50.1328 84.2813C50.1319 85.2445 49.7489 86.168 49.0678 86.8491C48.3867 87.5302 47.4632 87.9132 46.5 87.9141ZM52.8818 79.4909C51.8338 78.0946 50.3582 77.0791 48.6797 76.5991V69.75C48.6797 69.1719 48.45 68.6175 48.0413 68.2087C47.6325 67.8 47.0781 67.5703 46.5 67.5703C45.9219 67.5703 45.3675 67.8 44.9587 68.2087C44.55 68.6175 44.3203 69.1719 44.3203 69.75V76.5991C42.6418 77.0791 41.1662 78.0946 40.1182 79.4909L16.6742 70.4743C16.7676 69.5011 16.6757 68.519 16.4034 67.58L20.4814 65.07C20.7252 64.9199 20.937 64.7234 21.1048 64.4915C21.2726 64.2596 21.393 63.997 21.4593 63.7185C21.5256 63.4401 21.5364 63.1513 21.4911 62.8687C21.4457 62.5861 21.3452 62.3152 21.1952 62.0715C21.0452 61.8277 20.8486 61.6159 20.6167 61.4481C20.3849 61.2803 20.1222 61.1598 19.8438 61.0936C19.5653 61.0273 19.2766 61.0165 18.994 61.0618C18.7114 61.1071 18.4405 61.2077 18.1967 61.3577L14.1135 63.871C13.1972 63.0272 12.0962 62.4097 10.8984 62.0678V30.9322C12.0962 30.5903 13.1972 29.9728 14.1135 29.129L22.1077 34.0491C22.5998 34.3484 23.1905 34.4407 23.7505 34.3059C24.3105 34.171 24.7944 33.8199 25.0963 33.3293C25.3982 32.8387 25.4937 32.2486 25.3617 31.6879C25.2298 31.1271 24.8813 30.6414 24.3923 30.3369L16.4035 25.42C16.6757 24.481 16.7676 23.499 16.6742 22.5258L40.1182 13.5092C41.1662 14.9054 42.6418 15.9209 44.3203 16.401V20.3438C44.3203 20.9218 44.55 21.4763 44.9587 21.885C45.3675 22.2938 45.9219 22.5234 46.5 22.5234C47.0781 22.5234 47.6325 22.2938 48.0413 21.885C48.45 21.4763 48.6797 20.9218 48.6797 20.3438V16.401C50.3582 15.9209 51.8338 14.9054 52.8818 13.5091L76.3258 22.5257C76.2324 23.4989 76.3243 24.4809 76.5965 25.4199L68.6077 30.3369C68.3639 30.4869 68.1521 30.6835 67.9843 30.9153C67.8165 31.1472 67.696 31.4099 67.6298 31.6883C67.5635 31.9667 67.5527 32.2555 67.598 32.5381C67.6433 32.8207 67.7439 33.0916 67.8939 33.3354C68.0439 33.5791 68.2404 33.791 68.4723 33.9587C68.7042 34.1265 68.9668 34.247 69.2453 34.3133C69.5237 34.3796 69.8125 34.3904 70.0951 34.345C70.3777 34.2997 70.6486 34.1992 70.8923 34.0492L78.8865 29.1291C79.8028 29.9728 80.9038 30.5903 82.1016 30.9322V62.0678C80.9038 62.4097 79.8028 63.0272 78.8865 63.871L74.8033 61.3576C74.5595 61.2076 74.2886 61.1071 74.006 61.0618C73.7234 61.0165 73.4347 61.0272 73.1562 61.0935C72.8778 61.1598 72.6151 61.2803 72.3833 61.4481C72.1514 61.6159 71.9548 61.8277 71.8048 62.0714C71.6548 62.3152 71.5543 62.5861 71.5089 62.8687C71.4636 63.1513 71.4744 63.4401 71.5407 63.7185C71.607 63.9969 71.7274 64.2596 71.8952 64.4915C72.063 64.7234 72.2748 64.9199 72.5186 65.0699L76.5966 67.58C76.3243 68.519 76.2324 69.5011 76.3258 70.4743L52.8818 79.4909ZM87.9141 69.75C87.9141 70.4685 87.701 71.1709 87.3018 71.7683C86.9026 72.3657 86.3353 72.8313 85.6715 73.1063C85.0077 73.3812 84.2772 73.4532 83.5725 73.313C82.8678 73.1728 82.2205 72.8269 81.7125 72.3188C81.2044 71.8107 80.8584 71.1634 80.7182 70.4587C80.5781 69.754 80.65 69.0236 80.925 68.3598C81.1999 67.696 81.6656 67.1286 82.263 66.7294C82.8604 66.3303 83.5628 66.1172 84.2813 66.1172C85.2445 66.1181 86.168 66.5011 86.8491 67.1822C87.5302 67.8633 87.9132 68.7868 87.9141 69.75Z" fill="black"/>
</g>
<defs>
<clipPath id="clip0_16_92">
<rect width="93" height="93" fill="white"/>
</clipPath>
</defs>
</svg>
