<svg width="417" height="579" viewBox="0 0 417 579" fill="none" xmlns="http://www.w3.org/2000/svg">
<mask id="mask0_2181_53" style="mask-type:alpha" maskUnits="userSpaceOnUse" x="0" y="0" width="417" height="579">
<rect width="417" height="579" fill="#D9D9D9"/>
</mask>
<g mask="url(#mask0_2181_53)">
<path d="M227.048 354.325C230.468 362.895 235.036 370.565 243.835 374.75C255.287 380.209 268.241 377.152 274.731 366.037C287.099 344.866 273.256 312.222 289.602 292.176C306.795 271.14 339.745 294.012 361.028 285.517C417.493 262.937 433.491 170.38 389.525 129.295C375.99 116.657 356.942 108.729 339.565 103.025C319.368 96.3623 315.587 76.5926 308.637 59.0905C300.264 38.049 286.016 20.7306 265.729 10.2339C244.205 -0.891351 219.703 -0.905928 204.941 21.7769C188.324 47.3425 202.071 81.2756 194.149 108.945C184.145 143.894 128.88 134.77 112.095 166.728C99.3212 191.07 101.359 222.834 111.006 247.664C123.035 278.554 152.277 289.439 180.937 300.551C194.141 305.659 207.339 312.851 215.208 324.992C220.718 333.422 223.136 344.473 227.048 354.325Z" fill="#FFEB88"/>
<path d="M174.134 466.153C178.926 467.645 183.732 468.344 188.515 466.061C194.745 463.095 197.892 456.575 195.421 450.025C190.717 437.546 172.184 432.208 169.318 418.434C166.324 403.963 187.276 397.883 190.981 385.982C200.791 354.394 167.178 315.92 134.758 320.413C124.782 321.799 114.906 327.129 106.542 332.514C96.8066 338.762 87.1604 333.585 77.3859 330.523C65.629 326.85 53.4315 326.934 42.046 331.906C29.9709 337.186 21.5688 347.53 26.0916 361.538C31.1964 377.318 50.2405 383.138 59.2129 395.966C70.5477 412.168 47.7562 432.385 55.5036 450.426C61.4085 464.163 75.5237 474.187 89.3172 478.62C106.487 484.124 121.105 475.502 135.62 467.204C142.302 463.377 149.863 460.266 157.687 461.103C163.136 461.664 168.632 464.429 174.134 466.153Z" fill="#90FFBD"/>
<path d="M158.253 102.963C144.438 97.1799 131.262 91.735 119.365 86.6637C113.399 84.1132 107.742 81.632 102.444 79.3829C99.8062 78.2068 97.2419 77.0905 94.7875 76.0637C93.5603 75.5503 92.363 75.0003 91.2023 74.4802C90.0415 73.9601 88.9107 73.4033 87.7865 72.9131C78.9061 68.778 71.6787 65.3818 66.7661 62.9593C61.8534 60.5369 59.189 59.0949 59.2651 58.8522C59.3778 58.6393 62.231 59.6256 67.3093 61.6955C72.4175 63.7288 79.7441 66.7793 88.7603 70.5984C89.8844 71.0886 91.0384 71.5423 92.1991 72.0624C93.3897 72.546 94.5803 73.0295 95.874 73.5361C98.3583 74.5263 100.916 75.5761 103.613 76.679C108.941 78.8915 114.614 81.2032 120.641 83.6805C132.626 88.6419 145.826 93.9838 159.641 99.7668C169.01 103.752 177.401 107.366 184.881 110.602C188.606 112.238 192.051 113.769 195.351 115.18C198.62 116.628 201.713 117.993 204.517 119.487C207.321 120.982 209.8 122.577 211.923 124.309C214.046 126.041 215.777 127.88 217.072 129.729C218.405 131.609 219.265 133.469 219.876 135.186C220.486 136.904 220.848 138.479 220.989 139.874C221.1 140.635 220.302 140.716 220.132 140.028C219.864 138.713 219.377 137.218 218.646 135.647C217.916 134.076 216.973 132.392 215.631 130.749C214.29 129.105 212.615 127.496 210.513 125.963C208.446 124.461 205.988 123.065 203.271 121.763C200.517 120.431 197.474 119.228 194.181 117.884C192.535 117.212 190.822 116.546 189 115.791C187.214 115.066 185.391 114.31 183.532 113.525C176.036 110.459 167.622 106.948 158.253 102.963Z" fill="#080C0D"/>
<path d="M233.322 152.556C232.269 150.783 230.868 149.213 229.45 147.812C227.995 146.382 226.458 145.128 224.934 144.007C223.41 142.886 221.863 141.867 220.426 140.939C218.959 140.047 217.595 139.178 216.317 138.502C213.786 137.047 211.687 135.883 210.227 135.058C208.796 134.195 208.034 133.635 208.147 133.422C208.26 133.209 209.18 133.351 210.806 133.824C212.432 134.297 214.697 135.108 217.474 136.337C218.878 136.933 220.361 137.655 221.924 138.504C223.488 139.352 225.131 140.327 226.825 141.465C228.518 142.602 230.195 143.909 231.863 145.452C233.493 146.966 235.085 148.751 236.341 150.874C237.191 152.298 237.914 153.803 238.298 155.275C238.542 156.022 238.616 156.753 238.757 157.478C238.827 157.84 238.831 158.209 238.865 158.541C238.869 158.91 238.902 159.242 238.906 159.611C238.88 162.333 238.143 164.658 237.351 166.45C236.87 167.338 236.486 168.183 236.015 168.835C235.783 169.195 235.58 169.517 235.378 169.84C235.139 170.133 234.9 170.426 234.691 170.682C234.482 170.938 234.273 171.194 234.064 171.451C233.855 171.707 233.639 171.897 233.46 172.116C233.065 172.526 232.73 172.862 232.425 173.161C232.276 173.344 231.653 172.837 231.766 172.624C231.962 172.235 232.157 171.846 232.442 171.347C232.585 171.097 232.697 170.884 232.87 170.598C233.012 170.349 233.118 170.069 233.254 169.753C233.39 169.438 233.562 169.151 233.698 168.835C233.834 168.519 234 168.167 234.099 167.821C234.43 167.116 234.652 166.321 234.94 165.52C235.406 163.827 235.808 161.839 235.689 159.669C235.692 159.367 235.635 159.137 235.571 158.842C235.544 158.576 235.481 158.28 235.454 158.014C235.297 157.459 235.236 156.861 234.976 156.283C234.605 154.944 234.048 153.759 233.322 152.556Z" fill="#080C0D"/>
<path d="M243.405 190.043C239.72 184.172 234.904 179.39 230.264 175.361C225.625 171.333 221.074 168.169 217.151 165.579C209.313 160.465 204.032 158.047 204.22 157.591C204.333 157.378 205.776 157.702 208.254 158.625C210.768 159.579 214.286 161.169 218.448 163.467C222.579 165.8 227.39 168.871 232.331 172.902C234.784 174.903 237.263 177.169 239.667 179.679C242.04 182.224 244.338 185.013 246.373 188.197C249.092 192.488 250.753 196.952 251.275 201.096C251.796 205.24 251.2 208.96 250.124 211.923C249.601 213.386 248.961 214.694 248.272 215.838C248.099 216.124 247.927 216.41 247.784 216.66C247.612 216.946 247.433 217.165 247.26 217.451C246.909 217.957 246.587 218.426 246.258 218.829C244.921 220.543 243.67 221.778 242.651 222.653C242.405 222.88 241.85 222.365 242.022 222.079C242.822 221.024 243.757 219.654 244.851 217.864C245.879 216.081 246.962 213.856 247.66 211.133C248.357 208.409 248.698 205.152 248.098 201.553C247.431 197.961 245.89 194.021 243.405 190.043Z" fill="#080C0D"/>
<path d="M242.483 227.941C235.015 221.179 228.038 214.634 221.632 208.738C220.008 207.291 218.45 205.837 216.936 204.48C215.385 203.093 213.907 201.766 212.466 200.468C210.995 199.207 209.627 197.97 208.266 196.798C207.601 196.194 206.905 195.627 206.276 195.053C205.617 194.515 204.958 193.978 204.366 193.434C194.339 184.95 187.745 180.18 188.066 179.711C188.216 179.528 189.992 180.489 193.146 182.452C193.901 182.946 194.826 183.457 195.734 184.137C196.672 184.78 197.684 185.483 198.732 186.216C199.816 186.979 200.967 187.735 202.169 188.654C203.37 189.573 204.608 190.522 205.948 191.494C206.637 191.995 207.259 192.502 207.985 193.033C208.644 193.57 209.339 194.138 210.035 194.705C211.426 195.84 212.92 196.998 214.391 198.258C215.862 199.519 217.436 200.803 219.016 202.154C220.597 203.504 222.184 204.921 223.838 206.331C230.401 212.112 237.474 218.612 244.905 225.345C265.077 243.812 277.735 253.406 283.624 257.845C283.99 258.143 283.586 258.789 283.16 258.563C281.553 257.618 279.484 256.418 276.946 254.896C275.692 254.117 274.321 253.182 272.847 252.223C272.092 251.729 271.337 251.235 270.508 250.681C269.717 250.157 268.881 249.537 268.046 248.917C267.211 248.296 266.309 247.683 265.401 247.003C264.493 246.323 263.518 245.649 262.603 244.903C261.621 244.163 260.669 243.387 259.651 242.617C258.633 241.848 257.572 240.982 256.51 240.116C254.417 238.347 252.118 236.532 249.828 234.482C248.65 233.46 247.472 232.438 246.22 231.356C245.029 230.201 243.741 229.09 242.483 227.941Z" fill="#080C0D"/>
<path d="M190.946 223.636C184.238 219.079 177.532 215.193 171.147 212.484C167.921 211.133 164.825 210.07 161.829 209.333C158.833 208.597 156.004 208.179 153.408 208.073C148.18 207.831 144.046 208.788 141.249 209.676C138.452 210.564 136.917 211.324 136.824 211.065C136.737 210.872 138.002 209.77 140.782 208.38C142.16 207.737 143.937 207.053 146.097 206.498C148.227 205.98 150.739 205.59 153.521 205.543C156.303 205.496 159.354 205.791 162.543 206.441C165.731 207.091 169.056 208.096 172.415 209.434C179.199 212.103 186.112 216.035 192.966 220.712C197.62 223.899 201.626 226.984 205.104 229.821C208.581 232.657 211.53 235.246 214.046 237.542C219.108 242.098 222.47 245.45 224.663 247.544C224.926 247.82 224.448 248.405 224.126 248.203C221.604 246.512 217.758 243.679 212.404 239.555C209.708 237.479 206.647 235.103 203.117 232.406C199.52 229.716 195.527 226.764 190.946 223.636Z" fill="#080C0D"/>
<path d="M253.94 271.366C247.769 267.795 242.243 263.958 237.365 260.222C232.524 256.517 228.301 252.95 224.833 249.877C217.964 243.725 214.138 239.446 214.474 239.11C214.839 238.738 219.201 242.357 226.452 247.967C230.062 250.79 234.391 254.078 239.315 257.607C244.203 261.106 249.686 264.848 255.71 268.299C263.87 272.943 270.778 275.835 276.223 276.558C278.949 276.953 281.275 276.717 283.089 276.063C283.548 275.949 283.963 275.739 284.348 275.566C284.727 275.326 285.112 275.153 285.424 274.919C285.58 274.803 285.773 274.716 285.929 274.6C286.085 274.483 286.241 274.367 286.367 274.287C286.649 274.09 286.858 273.834 287.141 273.637C287.386 273.411 287.972 273.889 287.8 274.175C287.59 274.431 287.388 274.754 287.149 275.047C287.03 275.193 286.91 275.339 286.725 275.493C286.605 275.639 286.419 275.792 286.263 275.909C285.958 276.208 285.549 276.485 285.178 276.791C284.769 277.068 284.331 277.381 283.849 277.597C281.906 278.634 279.178 279.213 276.111 279.088C273.043 278.963 269.611 278.236 265.92 276.932C262.133 275.671 258.181 273.789 253.94 271.366Z" fill="#080C0D"/>
<path d="M285.347 265.224C284.49 263.733 283.508 262.322 282.472 261.05C281.4 259.749 280.305 258.551 279.216 257.419C277.01 255.192 274.903 253.291 273.102 251.761C269.465 248.672 266.957 247.113 267.146 246.658C267.258 246.445 268.039 246.534 269.363 247.004C270.687 247.474 272.493 248.398 274.575 249.731C276.658 251.064 279.053 252.836 281.496 255.072C282.718 256.191 283.953 257.442 285.135 258.833C286.317 260.224 287.446 261.754 288.462 263.498C289.152 264.67 289.649 265.929 290.006 267.135C290.334 268.378 290.498 269.67 290.324 270.93C290.18 272.154 289.696 273.344 289.046 274.216C288.396 275.088 287.622 275.737 286.902 276.247C285.417 277.169 284.049 277.577 282.932 277.825C281.816 278.072 280.879 278.1 280.177 278.138C279.978 278.158 279.831 277.367 279.993 277.317C280.601 277.02 281.408 276.703 282.365 276.203C283.291 275.74 284.367 275.094 285.35 274.188C286.332 273.283 287.052 272.102 287.103 270.619C287.124 269.173 286.493 267.257 285.347 265.224Z" fill="#080C0D"/>
<path d="M35.718 123.59C30.9594 119.708 26.2644 116.122 22.0616 112.754C17.829 109.423 14.0886 106.311 11.0235 103.567C4.89316 98.0785 1.70662 94.1379 2.01196 93.8383C2.37703 93.4655 6.1675 96.7405 12.6426 101.657C15.8802 104.115 19.7333 107.014 24.0488 110.169C28.371 113.39 33.1257 116.903 37.9941 120.874C44.5829 126.249 49.4061 131.098 52.7323 135.091C53.6012 136.044 54.3073 137.047 54.9999 137.917C55.6626 138.823 56.282 139.633 56.7916 140.354C57.7877 141.898 58.5872 143.159 59.1902 144.139C59.3501 144.391 58.7259 144.858 58.5362 144.642C57.7472 143.815 56.732 142.743 55.4903 141.426C54.8545 140.785 54.1455 140.085 53.3932 139.288C52.6409 138.492 51.8153 137.635 50.8569 136.793C47.2089 133.268 42.2635 128.868 35.718 123.59Z" fill="#080C0D"/>
<path d="M79.2102 176.991C75.5671 172.19 72.3362 167.482 69.5147 163.169C66.6566 158.825 64.2079 154.877 62.159 151.56C58.091 144.888 55.7117 140.631 56.1201 140.354C56.5285 140.078 59.6283 143.826 64.2309 150.141C68.8335 156.456 74.909 165.374 82.0489 174.856C86.901 181.314 90.8967 186.28 94.0332 190.058C94.7691 191.024 95.5282 191.887 96.214 192.691C96.8999 193.494 97.5126 194.238 98.052 194.922C99.1906 196.216 100.11 197.332 100.802 198.201C100.992 198.417 100.448 199.01 100.228 198.83C99.3563 198.18 98.2582 197.284 96.8672 196.15C96.1718 195.582 95.4695 194.949 94.6575 194.225C93.882 193.532 92.9968 192.749 92.1346 191.863C88.5233 188.368 84.1355 183.508 79.2102 176.991Z" fill="#080C0D"/>
<path d="M84.5726 241.414C88.1432 235.243 91.6513 229.448 94.4552 223.993C97.2658 218.604 99.4022 213.519 100.3 209.131C100.749 206.936 100.879 204.909 100.673 203.217C100.498 201.489 100.017 200.061 99.4673 198.941C99.2072 198.364 98.8941 197.925 98.6475 197.48C98.3711 197.072 98.138 196.76 97.9415 196.477C97.5186 195.95 97.3153 195.601 97.4415 195.521C97.531 195.411 97.8836 195.577 98.4626 195.988C98.7853 196.19 99.0848 196.496 99.4875 196.824C99.8304 197.226 100.276 197.651 100.669 198.215C101.455 199.344 102.252 200.908 102.654 202.882C103.085 204.819 103.079 207.069 102.79 209.516C102.109 214.386 100.103 219.76 97.3854 225.408C94.6682 231.056 91.2035 236.947 87.6329 243.118C82.7427 251.504 78.9466 258.1 77.0732 263.461C76.1698 266.138 75.7046 268.502 75.93 270.393C76.0245 271.323 76.3115 272.167 76.6516 272.871C76.7383 273.064 76.8548 273.22 76.9049 273.383C77.0215 273.539 77.1014 273.665 77.218 273.821C77.4145 274.103 77.6409 274.349 77.8673 274.594C78.0936 274.84 77.586 275.462 77.2932 275.223C77.0369 275.014 76.7143 274.812 76.4147 274.507C76.2682 274.387 76.1151 274.201 75.9687 274.082C75.8521 273.926 75.699 273.74 75.5458 273.554C74.9996 272.804 74.5363 271.877 74.2521 270.731C73.6904 268.505 73.8792 265.732 74.616 262.737C76.0963 256.812 79.6823 249.8 84.5726 241.414Z" fill="#080C0D"/>
<path d="M105.737 261.056C104.251 263.624 102.693 266.132 101.048 268.448C99.4025 270.764 97.7073 272.917 95.7856 274.824C93.9304 276.724 91.8489 278.379 89.5371 279.42C88.3812 279.94 87.1752 280.297 85.9422 280.389C84.7093 280.48 83.4859 280.336 82.4417 279.972C80.3168 279.214 78.8391 277.886 77.7737 276.652C76.7083 275.417 75.982 274.215 75.4821 273.258C74.9455 272.272 74.6286 271.465 74.4715 270.91C74.3145 270.355 74.2808 270.023 74.3771 269.979C74.4734 269.936 74.7296 270.145 75.1092 270.576C75.4588 271.045 75.9916 271.662 76.6476 272.502C77.3036 273.342 78.1724 274.295 79.2109 275.264C80.2493 276.233 81.62 277.168 83.1728 277.581C84.7554 277.958 86.5432 277.709 88.2934 276.759C90.0802 275.839 91.8064 274.321 93.439 272.544C96.7343 268.953 99.752 264.282 102.67 259.285C104.672 255.859 106.333 252.702 107.864 249.928C109.359 247.124 110.688 244.673 111.882 242.537C114.232 238.236 116.016 235.302 117.316 233.558C117.495 233.339 118.171 233.707 118.065 233.986C117.227 235.985 116.075 239.191 114.217 243.71C113.273 245.988 112.156 248.553 110.771 251.446C109.38 254.273 107.762 257.526 105.737 261.056Z" fill="#080C0D"/>
<path d="M133.515 214.523C129.976 217.367 127.316 220.927 125.114 224.374C122.912 227.82 121.162 231.087 119.593 233.831C118.062 236.605 116.706 238.791 115.681 240.272C114.656 241.752 113.919 242.431 113.743 242.348C113.53 242.236 113.834 241.265 114.477 239.655C115.149 238.009 116.086 235.664 117.338 232.784C118.591 229.904 120.151 226.422 122.296 222.746C124.441 219.07 127.26 215.091 131.231 211.868C133.93 209.68 136.77 208.217 139.361 207.282C141.988 206.378 144.404 206.032 146.435 205.859C150.569 205.574 153.382 206.162 155.164 206.518C155.37 206.564 155.348 207.339 155.082 207.366C153.317 207.511 150.512 207.662 146.764 208.445C144.894 208.87 142.764 209.388 140.475 210.325C138.349 211.212 135.938 212.599 133.515 214.523Z" fill="#080C0D"/>
<path d="M225.797 322.904C230.747 315.116 236.032 307.966 241.401 301.982C246.77 295.998 252.357 291.167 257.567 287.919C262.807 284.634 267.61 283.005 270.973 282.396C271.402 282.318 271.764 282.248 272.163 282.208C272.562 282.167 272.894 282.133 273.226 282.1C273.891 282.032 274.459 282.008 274.895 281.998C275.802 282.006 276.281 282.092 276.294 282.225C276.321 282.491 274.467 282.746 271.314 283.771C268.155 284.73 263.747 286.621 258.956 290.028C254.128 293.405 248.94 298.195 243.837 304.152C238.734 310.109 233.672 317.136 228.781 324.851C225.418 330.094 222.613 334.878 220.093 339.163C217.574 343.447 215.442 347.256 213.559 350.536C209.8 357.162 207.107 361.733 205.317 364.601C205.085 364.96 204.38 364.628 204.575 364.239C205.903 361.116 207.993 356.237 211.291 349.356C212.924 345.933 214.909 342.005 217.283 337.601C219.649 333.131 222.411 328.251 225.797 322.904Z" fill="#080C0D"/>
<path d="M275.912 305.262C277.914 301.164 279.686 297.124 280.555 293.443C281.008 291.618 281.165 289.856 280.95 288.4C280.735 286.945 280.052 285.839 279.011 285.172C277.999 284.469 276.756 284.125 275.629 283.938C274.502 283.75 273.484 283.652 272.673 283.6C270.985 283.502 270.041 283.464 270.014 283.198C269.957 282.969 270.89 282.572 272.635 282.227C273.492 282.073 274.585 281.928 275.898 281.963C277.211 281.998 278.707 282.182 280.374 283.053C281.189 283.474 281.994 284.131 282.583 284.978C283.203 285.788 283.643 286.818 283.847 287.838C284.329 289.938 284.139 292.038 283.75 294.16C282.935 298.372 281.147 302.582 279.062 306.856C277.611 309.757 276.215 312.215 274.895 314.431C273.606 316.609 272.385 318.479 271.271 320.07C269.079 323.28 267.45 325.426 266.448 326.804C266.299 326.987 265.623 326.619 265.7 326.376C266.305 324.737 267.362 322.246 269.055 318.75C270.749 315.254 273.122 310.85 275.912 305.262Z" fill="#080C0D"/>
<path d="M254.909 377.866C254.361 373.456 254.152 369.079 254.259 364.838C254.402 360.627 254.862 356.551 255.584 352.751C256.306 348.951 257.322 345.39 258.37 342.161C258.946 340.558 259.456 338.962 260.082 337.522C260.377 336.787 260.672 336.052 260.936 335.354C261.268 334.649 261.569 333.98 261.871 333.312C264.289 328.03 266.667 323.995 268.368 321.237C270.142 318.539 271.24 317.118 271.453 317.231C271.666 317.343 270.963 319.026 269.542 321.89C268.193 324.814 266.162 328.948 264.149 334.255C263.914 334.917 263.612 335.586 263.347 336.284C263.083 336.982 262.854 337.711 262.589 338.409C262.066 339.872 261.617 341.395 261.107 342.991C260.191 346.207 259.362 349.615 258.729 353.305C257.493 360.649 257.253 368.865 258.389 377.412C259.145 383.211 260.21 388.408 261.28 393C262.35 397.592 263.396 401.615 264.292 405.15C266.077 412.154 267.255 417.138 267.881 420.331C267.958 420.76 267.24 420.967 267.067 420.581C265.922 417.575 264.131 412.822 261.85 405.902C260.695 402.46 259.45 398.457 258.173 393.819C256.83 389.187 255.656 383.901 254.909 377.866Z" fill="#080C0D"/>
<path d="M192.672 397.813C193.871 390.439 195.796 383.596 198.001 377.531C198.259 376.766 198.553 376.031 198.848 375.296C199.143 374.561 199.371 373.833 199.703 373.128C200.299 371.724 200.865 370.357 201.438 369.057C202.011 367.756 202.621 366.486 203.208 365.318C203.516 364.716 203.758 364.121 204.036 363.556C204.314 362.99 204.629 362.455 204.908 361.889C205.471 360.825 206.005 359.797 206.509 358.806C207.049 357.844 207.529 356.956 208.017 356.134C208.504 355.313 208.962 354.528 209.36 353.816C209.757 353.104 210.199 352.488 210.543 351.916C212.026 349.651 212.945 348.449 213.158 348.562C213.37 348.675 212.877 350.101 211.784 352.563C211.512 353.195 211.211 353.863 210.85 354.605C210.525 355.376 210.134 356.155 209.786 357.029C209.372 357.911 208.995 358.822 208.521 359.777C208.083 360.761 207.653 361.812 207.163 362.936C206.914 363.465 206.672 364.06 206.424 364.589C206.182 365.184 205.94 365.78 205.699 366.375C205.215 367.565 204.672 368.829 204.165 370.123C203.659 371.417 203.159 372.777 202.629 374.173C202.364 374.872 202.099 375.57 201.871 376.298C201.643 377.027 201.348 377.762 201.12 378.49C199.174 384.462 197.369 391.159 196.209 398.26C194.612 407.991 194.331 415.809 194.339 421.851C194.343 422.22 194.347 422.589 194.285 422.965C194.288 423.334 194.292 423.702 194.326 424.035C194.364 424.736 194.365 425.407 194.329 426.049C194.36 426.684 194.324 427.325 194.348 427.894C194.342 428.499 194.367 429.067 194.384 429.569C194.467 431.709 194.509 433.451 194.548 434.823C194.552 435.192 193.791 435.303 193.72 434.941C193.453 433.625 193.108 431.881 192.722 429.737C192.602 429.212 192.541 428.614 192.451 428.053C192.39 427.454 192.293 426.826 192.195 426.198C192.128 425.534 192.06 424.869 191.956 424.175C191.923 423.842 191.882 423.443 191.812 423.081C191.808 422.712 191.738 422.35 191.734 421.981C191.187 415.926 191.042 407.883 192.672 397.813Z" fill="#080C0D"/>
<path d="M142.894 314.228C143.896 315.167 144.897 316.106 145.899 317.045C146.901 317.984 147.866 318.893 148.891 319.73C149.374 320.184 149.886 320.602 150.369 321.057C150.851 321.512 151.394 321.893 151.906 322.311C152.931 323.147 153.919 323.953 154.974 324.753C159.06 327.964 163.083 330.88 166.959 333.676C174.712 339.269 181.799 344.257 187.525 348.746C193.282 353.198 197.708 357.113 200.617 359.974C202.102 361.368 203.16 362.536 203.883 363.369C204.569 364.173 204.918 364.641 204.829 364.751C204.434 365.16 197.874 359.077 186.052 350.775C180.19 346.603 172.99 341.827 165.082 336.351C161.146 333.628 157.02 330.689 152.838 327.521C151.783 326.722 150.758 325.886 149.703 325.086C149.191 324.668 148.649 324.287 148.129 323.802C147.617 323.384 147.098 322.9 146.585 322.482C145.554 321.579 144.552 320.64 143.52 319.737C142.488 318.835 141.516 317.859 140.478 316.89C134.98 311.673 130.236 306.95 125.863 302.895C121.49 298.84 117.493 295.519 113.86 292.799C106.593 287.358 100.902 284.545 97.2067 282.872C96.7145 282.653 96.9726 281.888 97.4947 282.07C98.4657 282.375 99.5465 282.769 100.833 283.209C101.179 283.308 101.459 283.414 101.811 283.58C102.127 283.716 102.443 283.851 102.825 283.98C103.494 284.282 104.229 284.577 105 284.901C105.772 285.226 106.521 285.653 107.329 286.008C107.718 286.203 108.144 286.429 108.569 286.654C108.782 286.767 108.995 286.88 109.208 286.992C109.421 287.105 109.634 287.218 109.847 287.33C110.705 287.848 111.593 288.328 112.554 288.869C113.486 289.446 114.388 290.059 115.356 290.666C119.241 293.226 123.467 296.491 128.033 300.459C132.556 304.331 137.432 309.041 142.894 314.228Z" fill="#080C0D"/>
<path d="M74.6551 284.959C74.8853 283.257 75.6472 281.501 76.9283 280.229C78.246 278.988 79.8537 278.287 81.3688 277.999C82.9139 277.675 84.3896 277.659 85.7757 277.754C87.1618 277.848 88.495 278.082 89.7318 278.359C94.7524 279.529 98.8434 281.464 102.213 283.237C105.546 284.98 108.098 286.635 109.834 287.869C111.534 289.073 112.39 289.893 112.307 290.069C112.194 290.282 111.077 289.858 109.181 289.043C107.286 288.228 104.568 286.926 101.166 285.492C97.8002 284.088 93.7063 282.455 89.0817 281.548C86.7911 281.142 84.3146 280.89 82.1482 281.378C81.0318 281.626 80.1052 282.089 79.4347 282.762C78.7643 283.434 78.3203 284.352 78.199 285.472C77.9852 287.005 78.3165 288.616 78.7375 290.118C79.1951 291.65 79.8386 293.028 80.5052 294.303C81.875 296.884 83.4635 298.972 84.9152 300.705C87.8551 304.201 90.3211 306.334 91.872 307.721C92.0916 307.9 91.6206 308.553 91.4077 308.44C90.4531 307.966 89.2789 307.313 87.8715 306.348C86.4642 305.383 84.7939 304.142 83.0465 302.473C81.2991 300.803 79.4082 298.712 77.7157 295.929C76.9026 294.535 76.0395 292.977 75.4885 291.186C74.8643 289.336 74.3893 287.303 74.6551 284.959Z" fill="#080C0D"/>
<path d="M144.16 352.509C135.864 345.863 128.157 339.393 121.145 333.491C114.134 327.588 107.787 322.289 102.466 317.827C91.8607 308.931 85.1986 303.497 85.4606 303.101C85.7592 302.735 92.9221 307.481 103.982 315.893C109.513 320.1 116.008 325.215 123.139 330.972C130.27 336.728 138.104 343.118 146.333 349.77C157.557 358.804 166.498 365.854 173.449 371.158C174.321 371.809 175.126 372.466 175.961 373.086C176.76 373.676 177.558 374.267 178.29 374.864C179.748 375.992 181.162 377.023 182.4 377.972C184.905 379.833 186.905 381.343 188.466 382.494C188.868 382.822 188.464 383.467 188.001 383.212C186.292 382.244 184.149 380.984 181.435 379.38C180.107 378.541 178.64 377.649 177.093 376.631C176.301 376.107 175.48 375.619 174.615 375.035C173.786 374.482 172.885 373.868 171.983 373.254C164.704 368.353 155.421 361.573 144.16 352.509Z" fill="#080C0D"/>
<path d="M127.755 364.548C129.046 361.395 131.166 358.796 133.434 356.988C135.701 355.18 138.073 354.066 140.159 353.452C142.246 352.837 143.98 352.728 145.16 352.776C145.765 352.782 146.244 352.868 146.523 352.974C146.833 353.043 146.979 353.162 146.993 353.295C147.046 353.827 144.528 354.15 141.037 355.814C139.31 356.66 137.344 357.8 135.535 359.494C133.689 361.159 132.06 363.305 131.017 365.929C129.597 369.464 129.478 372.599 129.558 375.041C129.638 377.484 129.917 379.235 130.031 380.365C130.045 380.498 129.334 380.772 129.254 380.646C128.651 379.666 127.678 378.019 127.039 375.364C126.705 374.055 126.477 372.467 126.524 370.615C126.541 368.8 126.9 366.716 127.755 364.548Z" fill="#080C0D"/>
<path d="M152.605 420.848C143.169 409.249 136.272 397.526 132.151 388.678C130.09 384.254 128.732 380.463 128.027 377.816C127.322 375.168 127.196 373.602 127.426 373.545C127.655 373.489 128.232 374.874 129.322 377.348C130.413 379.823 132.076 383.314 134.353 387.548C138.935 395.98 146.058 407.277 155.304 418.661C161.627 426.379 167.106 432.068 171.831 435.617C174.227 437.389 176.399 438.612 178.298 439.125C180.233 439.667 181.844 439.335 182.877 438.593C183.159 438.396 183.722 438.977 183.38 439.247C182.895 439.766 182.138 440.246 181.198 440.576C180.258 440.906 179.158 440.985 177.964 440.803C175.584 440.508 173.02 439.391 170.335 437.75C165.019 434.328 159.045 428.723 152.605 420.848Z" fill="#080C0D"/>
<path d="M185.261 421.396C186.251 422.873 187.174 424.358 187.963 425.855C188.753 427.353 189.484 428.924 189.918 430.559C190.102 431.38 190.256 432.237 190.277 433.108C190.299 433.978 190.187 434.863 189.869 435.701C189.581 436.502 189.087 437.257 188.536 437.783C188.022 438.339 187.427 438.769 186.856 439.095C185.677 439.719 184.634 440.026 183.68 440.223C182.727 440.421 181.929 440.502 181.258 440.503C179.951 440.535 179.23 440.373 179.173 440.144C179.146 439.878 179.82 439.574 180.99 439.187C181.574 438.993 182.285 438.72 183.056 438.373C183.827 438.026 184.723 437.599 185.474 437.053C186.254 436.47 186.851 435.738 187.059 434.811C187.304 433.913 187.153 432.753 186.759 431.517C186.365 430.282 185.691 428.94 184.915 427.575C184.138 426.21 183.259 424.822 182.276 423.411C179.672 419.579 177.54 416.438 176.14 413.894C174.711 411.387 173.91 409.453 173.45 408.224C173.4 408.062 174.03 407.662 174.177 407.781C175.046 408.734 176.404 410.208 178.272 412.402C180.169 414.559 182.54 417.408 185.261 421.396Z" fill="#080C0D"/>
<path d="M167.37 398.937C163.821 392.078 160.581 385.961 157.989 381.591C156.822 379.359 155.71 377.659 155.073 376.347C154.406 375.071 154.126 374.294 154.348 374.171C154.571 374.047 155.157 374.525 156.202 375.561C157.18 376.603 158.612 378.136 160.134 380.231C163.267 384.312 166.972 390.382 170.529 397.307C172.955 402.03 174.623 405.889 175.767 408.896C176.942 411.865 177.636 414.078 178.044 415.447C178.094 415.609 177.426 415.979 177.31 415.823C176.421 414.671 175.155 412.785 173.499 410.032C171.806 407.25 169.79 403.593 167.37 398.937Z" fill="#080C0D"/>
<path d="M112.81 399.907C112.232 397.851 111.883 395.737 111.903 393.62C111.893 391.539 112.289 389.485 113.015 387.699C113.703 385.883 114.685 384.306 115.833 383.048C116.944 381.76 118.186 380.761 119.388 380.035C121.786 378.516 123.968 377.858 125.447 377.54C126.201 377.363 126.77 377.339 127.205 377.328C127.61 377.354 127.817 377.4 127.86 377.497C127.873 377.63 127.724 377.813 127.375 378.016C127.027 378.219 126.515 378.472 125.878 378.806C124.602 379.472 122.719 380.436 120.83 382.004C118.941 383.572 117.024 385.848 116.044 388.768C115.558 390.261 115.321 391.897 115.326 393.608C115.332 395.32 115.647 397.101 116.169 398.928C116.89 401.407 117.844 403.526 118.807 405.409C119.77 407.292 120.707 408.91 121.52 410.304C123.212 413.087 124.551 415.033 125.321 416.331C125.437 416.487 124.857 417.05 124.674 416.901C123.502 415.945 121.672 414.452 119.425 411.826C118.316 410.495 117.084 408.941 115.944 406.976C114.775 405.046 113.631 402.711 112.81 399.907Z" fill="#080C0D"/>
<path d="M149.218 445.702C139.516 436.446 131.658 427.171 126.317 420.192C120.975 413.214 118.187 408.561 118.529 408.291C118.937 408.015 122.44 412.091 128.206 418.624C134.002 425.12 142.055 434.006 151.611 443.142C158.118 449.365 163.466 454.093 167.652 457.63C169.715 459.435 171.539 460.862 173.047 462.152C174.547 463.377 175.822 464.355 176.744 465.168C177 465.377 176.595 466.023 176.279 465.887C175.178 465.294 173.761 464.564 172.081 463.56C170.431 462.518 168.362 461.318 166.113 459.666C161.532 456.539 155.835 452.014 149.218 445.702Z" fill="#080C0D"/>
<path d="M185.433 463.783C186.262 462.691 186.632 461.042 186.773 459.45C186.913 457.858 186.811 456.189 186.59 454.667C186.176 451.587 185.325 448.819 184.461 446.591C182.696 442.103 180.532 439.972 180.831 439.606C180.98 439.423 181.782 439.711 182.887 440.673C184.021 441.599 185.43 443.235 186.706 445.557C187.976 447.812 189.18 450.745 189.796 454.174C190.105 455.889 190.293 457.75 190.193 459.741C190.125 460.721 189.997 461.775 189.699 462.813C189.402 463.85 188.971 464.901 188.238 465.949C187.737 466.638 187.126 467.237 186.399 467.68C185.672 468.123 184.895 468.403 184.17 468.544C182.655 468.832 181.292 468.635 180.188 468.344C177.907 467.702 176.257 466.661 174.886 465.726C172.175 463.819 170.693 462.122 169.744 461.044C169.628 460.888 170.106 460.302 170.282 460.385C171.523 461.031 173.452 462.178 176.169 463.48C177.543 464.113 179.159 464.822 180.905 465.149C181.759 465.297 182.673 465.372 183.457 465.158C184.205 464.915 184.872 464.545 185.433 463.783Z" fill="#080C0D"/>
<path d="M274.59 469.576C272.408 461.638 270.888 453.936 269.841 446.925C268.727 439.92 267.983 433.583 267.281 428.316C266.609 423.012 266.044 418.772 265.481 415.874C264.949 412.94 264.521 411.372 264.78 411.279C264.973 411.192 265.859 412.646 266.791 415.54C267.752 418.397 268.759 422.693 269.727 427.933C271.736 438.473 273.722 453.078 277.986 468.627C279.463 473.916 280.945 478.6 282.44 482.746C283.899 486.862 285.4 490.403 286.75 493.455C289.518 499.554 291.781 503.655 293.224 506.295C293.427 506.644 292.766 507.08 292.533 506.768C290.652 504.441 287.744 500.606 284.452 494.629C282.836 491.603 281.069 488.089 279.404 483.927C277.74 479.765 276.081 474.998 274.59 469.576Z" fill="#080C0D"/>
<path d="M107.48 425.797C106.809 424.152 106.272 422.495 106 420.81C105.692 419.095 105.62 417.39 105.923 415.748C106.19 414.076 106.905 412.526 107.891 411.318C108.876 410.11 110.078 409.384 111.198 408.834C111.487 408.704 111.746 408.61 112.035 408.48C112.294 408.387 112.589 408.323 112.849 408.23C113.108 408.136 113.374 408.109 113.603 408.052C113.832 407.996 114.098 407.969 114.297 407.948C115.221 407.787 115.995 407.81 116.63 407.779C117.913 407.85 118.605 408.048 118.595 408.284C118.622 408.55 117.941 408.787 116.802 409.138C115.699 409.518 114.005 410.026 112.394 411.029C111.607 411.545 110.804 412.231 110.25 413.059C109.666 413.924 109.302 414.969 109.187 416.155C108.928 418.565 109.631 421.516 110.828 424.383C111.635 426.382 112.549 428.103 113.375 429.63C114.202 431.158 115.008 432.486 115.727 433.622C117.137 435.93 118.206 437.534 118.882 438.573C118.962 438.699 118.448 439.255 118.272 439.172C117.23 438.506 115.597 437.295 113.669 435.174C112.69 434.132 111.655 432.86 110.592 431.323C109.47 429.859 108.41 428.019 107.48 425.797Z" fill="#080C0D"/>
<path d="M132.223 456.223C124.908 449.646 119.433 442.681 115.72 437.518C112.036 432.318 110.143 428.884 110.485 428.614C110.894 428.338 113.537 431.226 117.645 435.979C121.784 440.696 127.453 447.272 134.542 453.603C139.341 457.884 143.414 460.962 146.661 463.185C147.057 463.447 147.423 463.745 147.819 464.007C148.215 464.269 148.574 464.501 148.934 464.733C149.652 465.198 150.298 465.602 150.876 466.014C152.087 466.697 153.055 467.303 153.811 467.797C154.023 467.91 153.729 468.645 153.486 468.569C152.655 468.318 151.514 467.997 150.124 467.534C149.426 467.269 148.721 466.937 147.919 466.649C147.5 466.49 147.111 466.295 146.655 466.106C146.23 465.881 145.804 465.655 145.348 465.467C141.729 463.551 137.241 460.682 132.223 456.223Z" fill="#080C0D"/>
<path d="M162.866 464.394C162.685 465.587 162.304 466.801 161.475 467.892C160.676 468.947 159.444 469.71 158.291 469.928C157.108 470.182 156.091 470.084 155.2 469.906C154.751 469.784 154.338 469.691 153.956 469.562C153.78 469.479 153.574 469.433 153.397 469.35C153.221 469.267 153.045 469.184 152.905 469.131C151.634 468.522 150.696 467.878 150.104 467.334C149.511 466.79 149.272 466.411 149.384 466.198C149.497 465.986 149.999 465.968 150.72 466.13C151.472 466.255 152.443 466.56 153.673 466.77C153.842 466.787 153.982 466.84 154.151 466.856C154.321 466.873 154.461 466.926 154.63 466.942C154.939 467.011 155.278 467.044 155.581 467.047C156.222 467.083 156.887 467.015 157.442 466.858C157.96 466.671 158.369 466.395 158.72 465.889C159.042 465.42 159.307 464.721 159.425 463.904C159.583 462.813 159.572 461.706 159.537 460.703C159.502 459.699 159.378 458.805 159.297 458.008C159.105 456.449 158.917 455.259 158.843 454.528C158.83 454.395 159.534 454.055 159.577 454.152C160.14 454.733 160.972 455.655 161.775 457.286C162.159 458.087 162.526 459.057 162.78 460.239C162.931 461.399 163.139 462.788 162.866 464.394Z" fill="#080C0D"/>
<path d="M166.583 506.32C156.255 498.505 147.059 490.272 139.376 482.054C135.535 477.945 132.128 473.825 129.105 469.834C128.362 468.802 127.626 467.836 126.92 466.833C126.214 465.83 125.574 464.821 124.941 463.878C124.622 463.373 124.308 462.935 123.989 462.43C123.705 461.955 123.386 461.45 123.102 460.975C122.536 460.026 121.97 459.076 121.41 458.193C120.88 457.273 120.417 456.346 119.923 455.456C119.677 455.011 119.43 454.566 119.22 454.151C119.01 453.736 118.794 453.254 118.584 452.839C118.193 451.972 117.773 451.142 117.353 450.311C116.97 449.511 116.683 448.667 116.336 447.896C116.019 447.089 115.709 446.348 115.399 445.608C115.155 444.86 114.882 444.149 114.645 443.468C114.408 442.787 114.207 442.136 114.007 441.485C113.777 440.87 113.679 440.242 113.522 439.688C113.238 438.541 112.967 437.528 112.777 436.641C112.616 435.717 112.505 434.956 112.408 434.328C112.25 433.102 112.182 432.437 112.315 432.424C112.448 432.41 112.678 433.025 113.066 434.194C113.259 434.779 113.503 435.526 113.723 436.377C114.011 437.221 114.378 438.191 114.758 439.294C116.347 443.699 119.054 449.87 123.465 456.943C124.025 457.826 124.651 458.703 125.247 459.616C125.561 460.054 125.844 460.529 126.157 460.968C126.47 461.406 126.82 461.874 127.133 462.312C127.795 463.219 128.465 464.192 129.164 465.128C129.864 466.064 130.629 466.994 131.365 467.96C134.405 471.781 137.865 475.761 141.693 479.737C149.379 487.653 158.494 495.76 168.706 503.419C175.62 508.694 182.042 513.078 187.9 516.882C193.722 520.656 198.915 523.856 203.516 526.511C212.687 531.859 219.273 535.22 223.517 537.341C224.082 537.619 223.751 538.324 223.192 538.112C218.759 536.447 211.829 533.658 202.299 528.75C197.549 526.277 192.177 523.297 186.199 519.64C180.125 516.026 173.6 511.618 166.583 506.32Z" fill="#080C0D"/>
<path d="M244.671 561.181C236.817 553.92 229.953 547.163 224.841 542.444C223.577 541.229 222.458 540.134 221.427 539.232C220.425 538.293 219.569 537.473 218.86 536.773C217.479 535.402 216.786 534.532 216.936 534.349C217.085 534.166 218.076 534.67 219.726 535.711C220.555 536.265 221.53 536.938 222.687 537.761C223.845 538.583 225.083 539.532 226.467 540.6C232.041 544.903 239.246 551.39 247.064 558.621C249.733 561.104 252.103 563.28 254.187 565.285C256.27 567.289 258.121 568.982 259.692 570.568C260.101 570.963 260.474 571.328 260.847 571.693C261.219 572.058 261.556 572.394 261.922 572.692C262.594 573.363 263.223 573.937 263.786 574.518C264.904 575.613 265.803 576.529 266.445 577.236C266.598 577.422 266.157 578.037 265.908 577.895C265.05 577.377 264.008 576.711 262.674 575.805C261.992 575.371 261.303 574.87 260.512 574.346C260.116 574.084 259.72 573.822 259.317 573.494C258.914 573.165 258.482 572.873 258.043 572.515C256.292 571.148 254.256 569.609 252.016 567.721C249.843 565.826 247.341 563.663 244.671 561.181Z" fill="#080C0D"/>
<path d="M239.244 201.645C239.038 199.283 238.439 197.027 238.131 195.312C237.786 193.568 237.738 192.431 238.153 192.221C238.605 192.041 239.46 192.861 240.42 194.375C240.899 195.132 241.406 196.155 241.86 197.318C242.314 198.48 242.655 199.856 242.773 201.355C242.916 203.422 242.479 205.078 241.886 206.179C241.78 206.458 241.571 206.714 241.458 206.927C241.279 207.147 241.166 207.359 241.017 207.543C240.682 207.879 240.436 208.105 240.221 208.295C240.161 208.368 239.486 208 239.479 207.934C239.452 207.668 239.448 207.299 239.444 206.93C239.424 206.731 239.434 206.495 239.413 206.295C239.423 206.059 239.433 205.823 239.406 205.557C239.364 204.487 239.369 203.211 239.244 201.645Z" fill="#080C0D"/>
<path d="M136.308 372.073C135.418 370.921 134.905 369.832 134.558 369.061C134.415 368.639 134.278 368.284 134.244 367.952C134.21 367.619 134.25 367.347 134.399 367.164C134.549 366.981 134.808 366.887 135.147 366.92C135.486 366.953 135.935 367.075 136.367 367.367C137.292 367.877 138.264 368.853 139.08 369.945C139.356 370.354 139.553 370.636 139.719 370.955C139.886 371.274 140.016 371.563 140.08 371.858C140.237 372.413 140.321 372.908 140.324 373.277C140.331 373.344 139.853 373.93 139.787 373.936C139.418 373.94 138.88 373.928 138.211 373.626C137.895 373.49 137.572 373.288 137.243 373.019C136.95 372.78 136.614 372.445 136.308 372.073Z" fill="#080C0D"/>
<path d="M124.109 398.761C122.883 397.273 122.077 395.945 121.437 394.936C121.278 394.683 121.184 394.424 121.061 394.202C120.938 393.979 120.851 393.786 120.831 393.587C120.724 393.195 120.727 392.893 120.876 392.71C121.025 392.527 121.321 392.463 121.733 392.555C121.939 392.602 122.145 392.648 122.425 392.754C122.564 392.807 122.704 392.86 122.814 392.949C122.954 393.002 123.063 393.092 123.24 393.175C124.414 393.828 125.685 395.109 126.867 396.5C127.254 396.998 127.597 397.399 127.843 397.844C128.12 398.253 128.323 398.602 128.46 398.957C128.8 399.661 128.993 400.246 129.07 400.675C129.077 400.741 128.599 401.327 128.533 401.333C128.127 401.307 127.479 401.205 126.671 400.851C126.282 400.655 125.886 400.393 125.417 400.072C124.971 399.647 124.525 399.222 124.109 398.761Z" fill="#080C0D"/>
<path d="M225.427 158.796C224.527 156.537 223.713 154.471 223.116 152.887C223.029 152.694 223.009 152.495 222.922 152.302C222.872 152.139 222.785 151.947 222.735 151.784C222.635 151.458 222.541 151.199 222.514 150.933C222.431 150.438 222.463 150.099 222.649 149.946C222.835 149.793 223.181 149.892 223.643 150.147C223.893 150.29 224.112 150.469 224.405 150.708C224.552 150.827 224.698 150.947 224.815 151.103C224.931 151.259 225.114 151.408 225.231 151.564C226.472 152.882 227.729 155.004 228.723 157.522C229.4 159.233 229.608 160.622 229.723 161.751C229.801 162.851 229.682 163.669 229.603 164.214C229.61 164.281 228.863 164.525 228.789 164.465C228.417 164.1 227.884 163.482 227.288 162.569C226.655 161.626 226.025 160.381 225.427 158.796Z" fill="#080C0D"/>
<path d="M112.503 422.03C112.439 421.735 112.472 421.396 112.475 421.093C112.478 420.791 112.547 420.482 112.653 420.202C112.729 419.959 112.835 419.68 112.948 419.467C112.971 419.364 113.061 419.254 113.084 419.151C113.143 419.078 113.167 418.975 113.226 418.902C113.661 418.22 114.049 417.744 114.414 417.371C115.144 416.626 115.768 416.159 116.224 416.348C116.679 416.537 116.857 417.291 116.639 418.455C116.53 419.037 116.325 419.662 116.15 420.25L116.103 420.456L116.057 420.662C116.004 420.802 116.011 420.869 115.988 420.972C115.972 421.141 115.955 421.311 116.005 421.474C116.059 422.005 116.31 422.819 116.407 423.447C116.474 424.112 116.565 424.674 116.473 425.086C116.479 425.152 115.855 425.618 115.819 425.589C115.436 425.46 114.884 425.314 114.232 424.843C113.909 424.641 113.603 424.269 113.26 423.867C113.1 423.615 112.94 423.363 112.81 423.074C112.687 422.851 112.55 422.496 112.503 422.03Z" fill="#080C0D"/>
<path d="M255.623 484.158C256.001 483.246 256.312 482.342 256.696 481.497C257.081 480.652 257.435 479.844 257.826 479.066C258.187 478.324 258.548 477.582 258.916 476.907C259.284 476.232 259.659 475.623 260.011 475.117C261.433 472.925 262.522 471.74 262.948 471.966C263.373 472.191 263.1 473.797 262.266 476.164C261.849 477.348 261.355 478.775 260.839 480.304C260.551 481.106 260.263 481.907 259.945 482.745C259.628 483.583 259.316 484.488 258.969 485.363C258.522 486.583 258.061 487.671 257.617 488.589C257.21 489.536 256.826 490.381 256.428 491.093C255.699 492.51 254.989 493.455 254.548 494.071C254.488 494.144 253.76 493.915 253.716 493.819C253.709 493.081 253.757 491.901 253.994 490.266C254.112 489.448 254.29 488.557 254.588 487.519C254.789 486.525 255.176 485.378 255.623 484.158Z" fill="#080C0D"/>
<path d="M322.402 198.922L304.844 202.399C302.874 201.124 301.019 199.154 299.281 196.488C297.543 193.823 296.673 190.694 296.673 187.101C296.673 183.508 297.601 180.843 299.455 179.104C301.425 177.25 304.264 175.859 307.973 174.932L321.532 171.629C324.546 170.702 326.747 169.543 328.138 168.153C329.529 166.762 330.224 164.792 330.224 162.242C330.224 160.04 329.123 158.012 326.921 156.158C324.835 154.188 321.185 153.203 315.97 153.203C311.334 153.203 306.872 153.782 302.584 154.941C298.412 156.1 295.051 157.548 292.501 159.287C290.647 157.78 288.967 155.926 287.46 153.724C286.069 151.522 285.374 148.972 285.374 146.075C285.374 139.933 288.619 135.471 295.109 132.69C301.715 129.792 310.059 128.344 320.142 128.344C329.297 128.344 336.946 129.792 343.088 132.69C349.231 135.587 353.866 139.585 356.995 144.684C360.124 149.784 361.689 155.636 361.689 162.242C361.689 172.325 358.386 180.321 351.78 186.232C345.29 192.026 335.497 196.256 322.402 198.922ZM299.107 225.519C299.107 220.768 300.614 216.885 303.627 213.872C306.64 210.743 310.696 209.178 315.796 209.178C320.895 209.178 324.951 210.743 327.964 213.872C330.978 216.885 332.484 220.768 332.484 225.519C332.484 230.271 330.978 234.211 327.964 237.34C324.951 240.353 320.895 241.86 315.796 241.86C310.696 241.86 306.64 240.353 303.627 237.34C300.614 234.211 299.107 230.271 299.107 225.519Z" fill="black"/>
</g>
</svg>
