<svg width="370" height="446" viewBox="0 0 370 446" fill="none" xmlns="http://www.w3.org/2000/svg">
<mask id="mask0_2269_63" style="mask-type:alpha" maskUnits="userSpaceOnUse" x="0" y="0" width="370" height="446">
<rect width="370" height="446" fill="#D9D9D9"/>
</mask>
<g mask="url(#mask0_2269_63)">
<path d="M110.687 362.25C113.617 369.593 117.532 376.166 125.072 379.752C134.884 384.429 145.984 381.81 151.545 372.285C162.143 354.145 150.281 326.174 164.288 308.997C179.02 290.972 207.253 310.57 225.49 303.291C273.872 283.943 287.58 204.635 249.908 169.43C238.31 158.601 221.989 151.808 207.099 146.92C189.793 141.211 186.553 124.271 180.598 109.275C173.423 91.245 161.215 76.4055 143.832 67.4112C125.388 57.8784 104.393 57.8659 91.7443 77.302C77.5059 99.2082 89.2857 128.284 82.4969 151.993C73.9251 181.94 26.5707 174.122 12.1886 201.505C1.2429 222.363 2.98868 249.581 11.2549 270.856C21.5626 297.325 46.6185 306.651 71.1768 316.173C82.4904 320.55 93.7993 326.713 100.542 337.116C105.263 344.339 107.335 353.808 110.687 362.25Z" fill="#EBD6FE"/>
<path d="M243.74 38.2407C231.902 33.2854 220.612 28.6198 210.418 24.2745C205.306 22.089 200.458 19.9629 195.918 18.0358C193.659 17.0281 191.461 16.0715 189.358 15.1917C188.307 14.7518 187.281 14.2805 186.286 13.8349C185.292 13.3892 184.323 12.9121 183.359 12.492C175.75 8.94888 169.557 6.03878 165.348 3.96306C161.138 1.88734 158.855 0.65178 158.92 0.443784C159.017 0.261371 161.462 1.1065 165.813 2.88013C170.19 4.62239 176.468 7.23621 184.194 10.5086C185.157 10.9287 186.146 11.3175 187.14 11.7632C188.161 12.1775 189.181 12.5918 190.289 13.0259C192.418 13.8743 194.609 14.7739 196.92 15.7189C201.486 17.6147 206.347 19.5955 211.511 21.7182C221.781 25.9695 233.091 30.5467 244.929 35.502C252.957 38.9164 260.147 42.013 266.556 44.7861C269.748 46.1884 272.7 47.4998 275.527 48.7089C278.328 49.9494 280.979 51.1189 283.381 52.3998C285.784 53.6808 287.908 55.0475 289.727 56.5315C291.546 58.0155 293.029 59.5911 294.14 61.1758C295.281 62.7861 296.018 64.3799 296.542 65.8515C297.065 67.3232 297.374 68.6726 297.496 69.8686C297.591 70.5206 296.907 70.59 296.761 70.0007C296.532 68.8732 296.114 67.5923 295.488 66.2461C294.863 64.8999 294.055 63.4572 292.905 62.0491C291.755 60.641 290.32 59.2619 288.519 57.9487C286.748 56.6612 284.642 55.4652 282.313 54.3494C279.954 53.2079 277.346 52.178 274.525 51.0258C273.114 50.4497 271.647 49.8794 270.085 49.2324C268.555 48.6109 266.993 47.9638 265.4 47.2912C258.977 44.6634 251.767 41.655 243.74 38.2407Z" fill="#080C0D"/>
<path d="M308.063 80.7354C307.161 79.2159 305.96 77.8706 304.745 76.6705C303.499 75.4449 302.181 74.3702 300.875 73.4095C299.57 72.4488 298.244 71.5764 297.013 70.7808C295.756 70.0165 294.587 69.2721 293.492 68.6927C291.323 67.4456 289.525 66.4486 288.273 65.7413C287.048 65.0026 286.395 64.5223 286.491 64.3399C286.588 64.1574 287.377 64.2787 288.77 64.684C290.163 65.0892 292.104 65.7841 294.484 66.8372C295.686 67.3481 296.957 67.9671 298.297 68.6942C299.636 69.4213 301.045 70.2566 302.496 71.2313C303.947 72.2061 305.384 73.3261 306.812 74.6483C308.21 75.9449 309.573 77.4751 310.65 79.2934C311.378 80.5141 311.998 81.8034 312.327 83.0646C312.536 83.705 312.599 84.3315 312.72 84.9522C312.78 85.2625 312.783 85.5786 312.812 85.8634C312.816 86.1795 312.845 86.4642 312.848 86.7804C312.826 89.1129 312.193 91.1045 311.515 92.6406C311.103 93.4016 310.774 94.1255 310.37 94.6842C310.171 94.9921 309.998 95.2686 309.825 95.5451C309.62 95.7961 309.415 96.047 309.236 96.2666C309.057 96.4861 308.878 96.7057 308.699 96.9252C308.52 97.1448 308.335 97.3074 308.181 97.4956C307.843 97.8464 307.556 98.1344 307.294 98.3911C307.166 98.5479 306.633 98.113 306.73 97.9306C306.897 97.5971 307.065 97.2636 307.309 96.8361C307.431 96.6223 307.528 96.4399 307.676 96.1948C307.798 95.981 307.888 95.7416 308.005 95.4709C308.121 95.2002 308.269 94.955 308.385 94.6843C308.502 94.4136 308.644 94.1115 308.729 93.8152C309.013 93.211 309.202 92.5301 309.449 91.8433C309.849 90.3931 310.194 88.6895 310.091 86.83C310.094 86.5708 310.045 86.3744 309.99 86.121C309.967 85.8932 309.913 85.6398 309.89 85.412C309.755 84.9366 309.703 84.424 309.48 83.9288C309.162 82.7815 308.685 81.7655 308.063 80.7354Z" fill="#080C0D"/>
<path d="M316.702 112.856C313.545 107.826 309.418 103.728 305.443 100.276C301.468 96.8247 297.568 94.1134 294.207 91.8941C287.491 87.5123 282.965 85.4399 283.127 85.0495C283.224 84.8671 284.46 85.1444 286.583 85.9358C288.737 86.7529 291.752 88.1156 295.318 90.084C298.858 92.0838 302.98 94.715 307.214 98.1691C309.316 99.8833 311.44 101.825 313.5 103.975C315.534 106.157 317.502 108.546 319.246 111.275C321.576 114.951 322.999 118.777 323.446 122.327C323.893 125.878 323.382 129.066 322.46 131.605C322.012 132.859 321.464 133.979 320.873 134.959C320.725 135.204 320.577 135.449 320.455 135.663C320.307 135.908 320.154 136.097 320.006 136.342C319.705 136.775 319.429 137.177 319.148 137.522C318.002 138.99 316.93 140.049 316.057 140.799C315.846 140.993 315.37 140.552 315.518 140.307C316.203 139.403 317.004 138.229 317.942 136.695C318.823 135.167 319.751 133.261 320.349 130.927C320.946 128.594 321.238 125.802 320.724 122.719C320.153 119.641 318.832 116.265 316.702 112.856Z" fill="#080C0D"/>
<path d="M315.912 145.33C309.513 139.535 303.536 133.928 298.046 128.875C296.654 127.635 295.32 126.39 294.022 125.227C292.693 124.038 291.427 122.901 290.192 121.789C288.932 120.709 287.76 119.648 286.593 118.645C286.023 118.127 285.427 117.641 284.888 117.149C284.324 116.689 283.759 116.228 283.251 115.762C274.66 108.492 269.009 104.405 269.285 104.003C269.413 103.846 270.935 104.67 273.637 106.352C274.284 106.775 275.077 107.213 275.855 107.795C276.659 108.347 277.526 108.949 278.424 109.577C279.353 110.231 280.339 110.879 281.369 111.666C282.398 112.454 283.459 113.267 284.608 114.099C285.198 114.528 285.731 114.963 286.352 115.418C286.917 115.879 287.513 116.365 288.109 116.851C289.301 117.823 290.581 118.815 291.841 119.896C293.102 120.976 294.45 122.076 295.805 123.233C297.159 124.391 298.52 125.605 299.937 126.813C305.56 131.766 311.62 137.336 317.988 143.106C335.273 158.929 346.119 167.15 351.165 170.953C351.479 171.209 351.132 171.762 350.767 171.569C349.39 170.759 347.617 169.731 345.443 168.427C344.368 167.759 343.193 166.957 341.931 166.136C341.283 165.713 340.636 165.289 339.927 164.815C339.248 164.366 338.532 163.834 337.817 163.303C337.101 162.771 336.329 162.246 335.55 161.663C334.772 161.08 333.937 160.503 333.152 159.864C332.311 159.23 331.496 158.565 330.623 157.905C329.751 157.246 328.841 156.504 327.932 155.762C326.138 154.246 324.168 152.691 322.206 150.934C321.197 150.058 320.187 149.183 319.115 148.256C318.094 147.266 316.99 146.314 315.912 145.33Z" fill="#080C0D"/>
<path d="M271.752 141.641C266.005 137.736 260.259 134.407 254.787 132.085C252.023 130.927 249.37 130.017 246.803 129.386C244.236 128.754 241.812 128.396 239.588 128.305C235.108 128.098 231.566 128.918 229.169 129.679C226.772 130.44 225.457 131.091 225.377 130.869C225.303 130.704 226.387 129.76 228.769 128.569C229.95 128.018 231.473 127.432 233.323 126.956C235.148 126.512 237.301 126.179 239.684 126.138C242.068 126.098 244.683 126.35 247.415 126.907C250.147 127.464 252.996 128.326 255.874 129.472C261.687 131.759 267.61 135.128 273.483 139.135C277.471 141.866 280.904 144.51 283.884 146.941C286.864 149.371 289.39 151.589 291.546 153.557C295.884 157.461 298.764 160.333 300.644 162.127C300.869 162.363 300.46 162.865 300.183 162.692C298.022 161.242 294.726 158.815 290.139 155.282C287.829 153.502 285.206 151.467 282.181 149.156C279.099 146.851 275.678 144.321 271.752 141.641Z" fill="#080C0D"/>
<path d="M325.73 182.539C320.442 179.479 315.707 176.191 311.527 172.99C307.379 169.815 303.76 166.759 300.789 164.126C294.903 158.855 291.625 155.188 291.913 154.9C292.225 154.581 295.964 157.682 302.176 162.489C305.27 164.908 308.979 167.725 313.199 170.749C317.387 173.748 322.085 176.954 327.247 179.911C334.239 183.891 340.158 186.368 344.823 186.988C347.159 187.326 349.153 187.124 350.707 186.564C351.1 186.466 351.455 186.286 351.785 186.138C352.11 185.932 352.44 185.784 352.707 185.584C352.841 185.484 353.006 185.41 353.14 185.31C353.274 185.21 353.407 185.11 353.515 185.041C353.757 184.873 353.936 184.654 354.178 184.485C354.389 184.291 354.891 184.701 354.743 184.946C354.564 185.165 354.39 185.442 354.186 185.693C354.083 185.818 353.981 185.944 353.822 186.075C353.719 186.2 353.56 186.332 353.426 186.431C353.165 186.688 352.815 186.925 352.496 187.188C352.146 187.424 351.771 187.693 351.358 187.878C349.693 188.767 347.356 189.263 344.727 189.155C342.098 189.048 339.158 188.426 335.995 187.308C332.75 186.228 329.364 184.615 325.73 182.539Z" fill="#080C0D"/>
<path d="M352.641 177.277C351.907 175.999 351.065 174.79 350.178 173.7C349.259 172.585 348.321 171.559 347.388 170.589C345.497 168.68 343.692 167.051 342.15 165.741C339.033 163.094 336.883 161.758 337.045 161.368C337.142 161.185 337.811 161.261 338.945 161.664C340.079 162.067 341.627 162.859 343.411 164.001C345.196 165.144 347.249 166.662 349.342 168.578C350.389 169.536 351.447 170.608 352.459 171.8C353.472 172.992 354.44 174.304 355.31 175.797C355.901 176.802 356.327 177.881 356.634 178.914C356.914 179.979 357.055 181.086 356.906 182.166C356.782 183.214 356.368 184.234 355.811 184.981C355.254 185.728 354.591 186.285 353.974 186.721C352.702 187.512 351.529 187.861 350.572 188.073C349.616 188.286 348.813 188.31 348.212 188.342C348.041 188.359 347.915 187.681 348.054 187.639C348.575 187.384 349.266 187.113 350.086 186.684C350.88 186.287 351.802 185.733 352.644 184.958C353.486 184.182 354.102 183.17 354.146 181.9C354.164 180.661 353.623 179.018 352.641 177.277Z" fill="#080C0D"/>
<path d="M138.744 55.915C134.666 52.5888 130.643 49.516 127.042 46.6306C123.415 43.7766 120.21 41.1098 117.584 38.7584C112.331 34.0555 109.601 30.679 109.862 30.4223C110.175 30.1028 113.423 32.9091 118.971 37.1216C121.745 39.2279 125.047 41.7122 128.745 44.4152C132.448 47.1752 136.522 50.1853 140.694 53.5882C146.34 58.1937 150.472 62.3485 153.323 65.7705C154.067 66.5867 154.672 67.4459 155.266 68.1912C155.833 68.9679 156.364 69.662 156.801 70.2794C157.654 71.6025 158.339 72.6837 158.856 73.5231C158.993 73.7393 158.458 74.1388 158.296 73.954C157.62 73.2458 156.75 72.3272 155.686 71.1981C155.141 70.6492 154.534 70.0492 153.889 69.3666C153.244 68.684 152.537 67.9503 151.716 67.2281C148.59 64.2082 144.352 60.4379 138.744 55.915Z" fill="#080C0D"/>
<path d="M176.01 101.673C172.889 97.5593 170.12 93.5249 167.703 89.8289C165.254 86.1073 163.155 82.7242 161.4 79.8816C157.914 74.1651 155.875 70.517 156.225 70.2801C156.575 70.0432 159.231 73.2547 163.175 78.6658C167.119 84.0769 172.325 91.7189 178.443 99.8438C182.6 105.377 186.024 109.633 188.712 112.87C189.342 113.697 189.993 114.437 190.58 115.125C191.168 115.814 191.693 116.451 192.155 117.037C193.131 118.146 193.918 119.102 194.512 119.847C194.674 120.032 194.208 120.54 194.02 120.386C193.273 119.829 192.332 119.062 191.14 118.089C190.544 117.603 189.942 117.06 189.247 116.44C188.582 115.846 187.824 115.175 187.085 114.416C183.99 111.421 180.231 107.257 176.01 101.673Z" fill="#080C0D"/>
<path d="M180.605 156.874C183.665 151.587 186.671 146.621 189.073 141.947C191.482 137.33 193.312 132.972 194.081 129.212C194.466 127.332 194.577 125.594 194.401 124.145C194.251 122.664 193.839 121.44 193.368 120.481C193.145 119.986 192.877 119.61 192.665 119.229C192.429 118.879 192.229 118.612 192.06 118.37C191.698 117.918 191.524 117.619 191.632 117.55C191.709 117.456 192.011 117.598 192.507 117.951C192.783 118.124 193.04 118.385 193.385 118.667C193.679 119.011 194.061 119.375 194.398 119.859C195.071 120.826 195.754 122.166 196.098 123.858C196.468 125.517 196.462 127.446 196.215 129.542C195.631 133.715 193.912 138.32 191.584 143.159C189.256 147.999 186.287 153.047 183.227 158.334C179.037 165.52 175.785 171.172 174.179 175.765C173.405 178.059 173.007 180.085 173.2 181.705C173.281 182.502 173.527 183.225 173.818 183.829C173.892 183.994 173.992 184.127 174.035 184.267C174.135 184.401 174.203 184.509 174.303 184.642C174.472 184.884 174.666 185.095 174.86 185.305C175.054 185.516 174.619 186.049 174.368 185.844C174.148 185.665 173.872 185.492 173.615 185.23C173.489 185.128 173.358 184.968 173.233 184.866C173.133 184.732 173.002 184.573 172.87 184.414C172.402 183.771 172.005 182.977 171.762 181.995C171.281 180.087 171.442 177.712 172.074 175.145C173.342 170.068 176.415 164.06 180.605 156.874Z" fill="#080C0D"/>
<path d="M198.74 173.705C197.467 175.905 196.132 178.054 194.722 180.039C193.312 182.023 191.86 183.868 190.213 185.502C188.624 187.131 186.84 188.549 184.859 189.44C183.869 189.886 182.835 190.192 181.779 190.27C180.722 190.349 179.674 190.225 178.779 189.913C176.958 189.264 175.692 188.126 174.779 187.068C173.867 186.01 173.244 184.98 172.816 184.16C172.356 183.315 172.084 182.624 171.95 182.148C171.815 181.673 171.786 181.388 171.869 181.351C171.952 181.314 172.171 181.493 172.496 181.863C172.796 182.264 173.252 182.793 173.814 183.512C174.377 184.232 175.121 185.048 176.011 185.879C176.901 186.709 178.075 187.51 179.406 187.865C180.762 188.187 182.294 187.974 183.793 187.16C185.324 186.372 186.804 185.071 188.202 183.548C191.026 180.471 193.612 176.469 196.112 172.188C197.828 169.252 199.251 166.547 200.563 164.17C201.844 161.767 202.983 159.666 204.005 157.837C206.019 154.151 207.548 151.637 208.662 150.143C208.815 149.955 209.394 150.27 209.303 150.51C208.585 152.222 207.598 154.969 206.006 158.842C205.197 160.794 204.241 162.991 203.054 165.471C201.861 167.893 200.476 170.68 198.74 173.705Z" fill="#080C0D"/>
<path d="M222.542 133.833C219.51 136.269 217.23 139.32 215.343 142.273C213.457 145.226 211.957 148.025 210.613 150.377C209.301 152.754 208.139 154.627 207.261 155.895C206.383 157.164 205.751 157.746 205.6 157.675C205.418 157.578 205.679 156.746 206.229 155.367C206.805 153.957 207.608 151.948 208.681 149.48C209.754 147.012 211.091 144.028 212.929 140.878C214.767 137.729 217.183 134.319 220.585 131.557C222.898 129.683 225.331 128.429 227.551 127.628C229.803 126.853 231.873 126.557 233.613 126.409C237.155 126.164 239.565 126.668 241.092 126.973C241.269 127.013 241.25 127.676 241.022 127.7C239.51 127.824 237.107 127.953 233.895 128.624C232.292 128.988 230.467 129.432 228.506 130.235C226.685 130.996 224.619 132.183 222.542 133.833Z" fill="#080C0D"/>
<path d="M301.615 226.7C305.857 220.027 310.385 213.9 314.986 208.773C319.586 203.645 324.373 199.506 328.838 196.723C333.328 193.908 337.444 192.512 340.325 191.99C340.692 191.924 341.003 191.863 341.345 191.829C341.686 191.794 341.971 191.765 342.256 191.736C342.825 191.678 343.312 191.658 343.685 191.649C344.463 191.656 344.873 191.73 344.885 191.843C344.908 192.071 343.319 192.29 340.617 193.168C337.91 193.99 334.133 195.61 330.028 198.529C325.891 201.423 321.446 205.528 317.073 210.632C312.7 215.736 308.363 221.758 304.172 228.368C301.291 232.861 298.887 236.96 296.728 240.631C294.569 244.302 292.743 247.566 291.129 250.376C287.908 256.054 285.601 259.971 284.067 262.428C283.868 262.736 283.264 262.452 283.431 262.119C284.569 259.443 286.36 255.262 289.185 249.365C290.585 246.433 292.286 243.067 294.32 239.293C296.348 235.463 298.714 231.281 301.615 226.7Z" fill="#080C0D"/>
<path d="M344.557 211.583C346.272 208.072 347.791 204.61 348.535 201.456C348.923 199.892 349.057 198.382 348.873 197.135C348.689 195.888 348.104 194.94 347.212 194.369C346.345 193.767 345.28 193.472 344.314 193.311C343.348 193.15 342.477 193.066 341.782 193.021C340.335 192.938 339.526 192.905 339.503 192.677C339.454 192.481 340.254 192.141 341.749 191.845C342.483 191.713 343.42 191.589 344.545 191.619C345.67 191.649 346.952 191.806 348.38 192.553C349.078 192.914 349.768 193.477 350.273 194.202C350.804 194.897 351.181 195.779 351.356 196.653C351.769 198.452 351.606 200.252 351.273 202.07C350.575 205.679 349.042 209.287 347.256 212.949C346.012 215.435 344.816 217.541 343.686 219.439C342.58 221.306 341.535 222.908 340.58 224.271C338.701 227.022 337.306 228.861 336.447 230.041C336.319 230.198 335.741 229.883 335.806 229.675C336.325 228.27 337.23 226.136 338.681 223.14C340.132 220.145 342.166 216.371 344.557 211.583Z" fill="#080C0D"/>
<path d="M326.56 273.795C326.091 270.016 325.911 266.266 326.003 262.632C326.126 259.023 326.519 255.531 327.138 252.275C327.757 249.019 328.627 245.967 329.526 243.201C330.019 241.827 330.456 240.459 330.993 239.225C331.245 238.596 331.498 237.966 331.725 237.368C332.009 236.763 332.267 236.191 332.525 235.618C334.598 231.092 336.635 227.635 338.092 225.271C339.612 222.96 340.553 221.742 340.736 221.839C340.918 221.935 340.316 223.377 339.098 225.831C337.943 228.336 336.202 231.879 334.477 236.427C334.276 236.994 334.018 237.566 333.791 238.165C333.564 238.763 333.368 239.387 333.141 239.986C332.693 241.239 332.307 242.544 331.871 243.912C331.086 246.667 330.375 249.587 329.833 252.749C328.774 259.042 328.568 266.083 329.542 273.406C330.19 278.375 331.102 282.828 332.019 286.762C332.936 290.697 333.832 294.144 334.6 297.174C336.13 303.175 337.138 307.445 337.675 310.181C337.741 310.549 337.126 310.726 336.978 310.396C335.997 307.82 334.462 303.747 332.508 297.817C331.518 294.868 330.451 291.438 329.357 287.464C328.206 283.496 327.2 278.966 326.56 273.795Z" fill="#080C0D"/>
<path d="M273.232 290.887C274.259 284.569 275.908 278.705 277.797 273.508C278.018 272.852 278.271 272.223 278.523 271.593C278.776 270.963 278.972 270.339 279.255 269.735C279.766 268.532 280.252 267.361 280.743 266.247C281.234 265.132 281.756 264.044 282.259 263.043C282.523 262.528 282.73 262.017 282.969 261.533C283.207 261.048 283.477 260.59 283.716 260.105C284.198 259.193 284.656 258.312 285.087 257.463C285.55 256.639 285.962 255.878 286.38 255.174C286.797 254.47 287.189 253.797 287.53 253.187C287.871 252.577 288.249 252.05 288.545 251.56C289.815 249.618 290.602 248.589 290.785 248.686C290.967 248.782 290.544 250.005 289.608 252.114C289.375 252.655 289.117 253.228 288.807 253.863C288.529 254.524 288.194 255.191 287.896 255.941C287.541 256.696 287.218 257.477 286.811 258.295C286.437 259.138 286.068 260.039 285.648 261.002C285.435 261.455 285.228 261.965 285.015 262.419C284.808 262.929 284.6 263.439 284.393 263.949C283.979 264.969 283.513 266.052 283.079 267.16C282.645 268.269 282.217 269.434 281.763 270.631C281.536 271.229 281.309 271.828 281.113 272.452C280.918 273.076 280.665 273.706 280.47 274.33C278.803 279.447 277.256 285.185 276.262 291.27C274.893 299.608 274.652 306.307 274.66 311.484C274.663 311.8 274.667 312.116 274.613 312.438C274.616 312.754 274.62 313.071 274.648 313.355C274.681 313.956 274.682 314.532 274.651 315.081C274.677 315.625 274.647 316.175 274.668 316.662C274.663 317.18 274.683 317.667 274.698 318.097C274.769 319.931 274.805 321.423 274.839 322.6C274.842 322.916 274.19 323.011 274.13 322.7C273.9 321.573 273.605 320.078 273.274 318.242C273.171 317.792 273.119 317.279 273.042 316.798C272.99 316.285 272.906 315.747 272.823 315.209C272.765 314.64 272.707 314.07 272.618 313.475C272.589 313.19 272.554 312.849 272.494 312.538C272.491 312.222 272.431 311.912 272.427 311.596C271.958 306.407 271.834 299.515 273.232 290.887Z" fill="#080C0D"/>
<path d="M230.579 219.265C231.437 220.07 232.295 220.875 233.154 221.68C234.012 222.484 234.839 223.263 235.717 223.98C236.131 224.369 236.57 224.728 236.984 225.117C237.397 225.507 237.862 225.834 238.301 226.192C239.179 226.908 240.026 227.599 240.93 228.284C244.431 231.036 247.878 233.534 251.199 235.93C257.842 240.722 263.915 244.997 268.822 248.843C273.754 252.657 277.547 256.013 280.039 258.464C281.311 259.658 282.219 260.659 282.838 261.373C283.425 262.062 283.725 262.463 283.648 262.557C283.31 262.908 277.689 257.695 267.56 250.582C262.536 247.006 256.367 242.914 249.591 238.222C246.218 235.889 242.683 233.371 239.099 230.656C238.195 229.971 237.317 229.255 236.413 228.57C235.974 228.212 235.51 227.885 235.065 227.47C234.626 227.111 234.181 226.696 233.742 226.338C232.858 225.565 231.999 224.76 231.115 223.987C230.231 223.213 229.398 222.377 228.509 221.547C223.797 217.077 219.733 213.03 215.986 209.555C212.238 206.08 208.814 203.235 205.7 200.904C199.474 196.242 194.597 193.831 191.431 192.398C191.009 192.211 191.23 191.555 191.678 191.711C192.51 191.972 193.436 192.309 194.539 192.687C194.835 192.772 195.074 192.862 195.376 193.004C195.647 193.121 195.918 193.237 196.245 193.348C196.818 193.606 197.448 193.859 198.109 194.137C198.77 194.415 199.412 194.781 200.104 195.085C200.438 195.253 200.802 195.446 201.167 195.639C201.35 195.735 201.532 195.832 201.714 195.929C201.897 196.025 202.079 196.122 202.262 196.218C202.997 196.661 203.758 197.073 204.582 197.536C205.38 198.031 206.153 198.556 206.982 199.076C210.312 201.27 213.933 204.067 217.845 207.468C221.72 210.786 225.899 214.821 230.579 219.265Z" fill="#080C0D"/>
<path d="M172.107 194.186C172.304 192.728 172.957 191.223 174.055 190.134C175.184 189.07 176.561 188.47 177.86 188.223C179.184 187.945 180.448 187.931 181.636 188.012C182.824 188.093 183.966 188.294 185.026 188.531C189.328 189.533 192.833 191.191 195.72 192.711C198.576 194.205 200.763 195.623 202.251 196.68C203.708 197.712 204.441 198.414 204.37 198.565C204.273 198.747 203.316 198.384 201.691 197.686C200.067 196.988 197.738 195.872 194.823 194.643C191.939 193.44 188.431 192.041 184.469 191.263C182.506 190.916 180.384 190.7 178.528 191.118C177.571 191.33 176.777 191.727 176.203 192.304C175.628 192.88 175.248 193.666 175.144 194.626C174.96 195.939 175.244 197.32 175.605 198.607C175.997 199.919 176.549 201.1 177.12 202.193C178.294 204.404 179.655 206.194 180.899 207.679C183.418 210.674 185.531 212.502 186.86 213.691C187.048 213.844 186.644 214.403 186.462 214.306C185.644 213.9 184.638 213.341 183.432 212.514C182.226 211.687 180.795 210.624 179.297 209.193C177.8 207.763 176.18 205.971 174.73 203.587C174.033 202.391 173.293 201.057 172.821 199.522C172.286 197.937 171.879 196.195 172.107 194.186Z" fill="#080C0D"/>
<path d="M231.663 252.067C224.555 246.373 217.951 240.829 211.943 235.771C205.935 230.713 200.497 226.173 195.938 222.349C186.85 214.727 181.142 210.07 181.366 209.731C181.622 209.418 187.76 213.484 197.237 220.693C201.975 224.297 207.541 228.68 213.651 233.613C219.762 238.545 226.474 244.02 233.525 249.72C243.143 257.461 250.804 263.502 256.76 268.047C257.507 268.604 258.197 269.167 258.913 269.699C259.597 270.205 260.281 270.711 260.909 271.222C262.157 272.189 263.369 273.073 264.43 273.886C266.577 275.48 268.29 276.774 269.627 277.76C269.972 278.041 269.626 278.594 269.229 278.376C267.764 277.546 265.929 276.467 263.603 275.092C262.465 274.373 261.208 273.608 259.883 272.736C259.204 272.287 258.5 271.869 257.759 271.369C257.049 270.895 256.277 270.369 255.504 269.843C249.266 265.643 241.312 259.833 231.663 252.067Z" fill="#080C0D"/>
<path d="M217.606 262.383C218.713 259.681 220.53 257.454 222.473 255.905C224.416 254.356 226.448 253.402 228.235 252.875C230.023 252.348 231.51 252.255 232.521 252.296C233.039 252.301 233.449 252.375 233.689 252.466C233.954 252.525 234.079 252.627 234.091 252.741C234.137 253.197 231.979 253.473 228.987 254.899C227.508 255.624 225.823 256.601 224.273 258.053C222.692 259.479 221.296 261.318 220.402 263.566C219.185 266.596 219.083 269.281 219.152 271.375C219.22 273.468 219.459 274.968 219.557 275.936C219.569 276.05 218.96 276.285 218.891 276.177C218.374 275.337 217.541 273.926 216.993 271.651C216.707 270.529 216.511 269.168 216.552 267.582C216.567 266.027 216.874 264.241 217.606 262.383Z" fill="#080C0D"/>
<path d="M238.9 310.625C230.814 300.686 224.904 290.641 221.373 283.059C219.608 279.268 218.444 276.021 217.839 273.752C217.235 271.483 217.128 270.141 217.324 270.093C217.521 270.044 218.015 271.231 218.949 273.351C219.884 275.472 221.309 278.463 223.26 282.091C227.186 289.316 233.289 298.996 241.213 308.75C246.63 315.364 251.325 320.238 255.374 323.28C257.427 324.798 259.288 325.846 260.915 326.285C262.573 326.75 263.954 326.466 264.839 325.829C265.08 325.661 265.562 326.159 265.269 326.39C264.854 326.835 264.206 327.246 263.4 327.529C262.594 327.812 261.652 327.879 260.629 327.724C258.59 327.47 256.393 326.514 254.092 325.107C249.537 322.175 244.418 317.372 238.9 310.625Z" fill="#080C0D"/>
<path d="M266.882 311.094C267.73 312.36 268.52 313.632 269.197 314.915C269.874 316.198 270.5 317.545 270.872 318.945C271.03 319.648 271.162 320.383 271.18 321.129C271.198 321.875 271.102 322.633 270.83 323.351C270.583 324.038 270.16 324.685 269.688 325.136C269.247 325.612 268.738 325.98 268.248 326.26C267.238 326.794 266.344 327.057 265.527 327.226C264.71 327.396 264.026 327.465 263.451 327.466C262.332 327.493 261.714 327.354 261.665 327.158C261.642 326.93 262.22 326.67 263.222 326.338C263.723 326.172 264.332 325.938 264.992 325.641C265.652 325.344 266.421 324.978 267.064 324.51C267.732 324.011 268.244 323.383 268.422 322.589C268.632 321.819 268.502 320.826 268.165 319.767C267.827 318.708 267.25 317.558 266.585 316.388C265.92 315.219 265.166 314.029 264.324 312.82C262.092 309.537 260.265 306.845 259.066 304.666C257.841 302.517 257.155 300.861 256.761 299.808C256.718 299.668 257.258 299.326 257.384 299.428C258.128 300.244 259.292 301.507 260.893 303.387C262.519 305.236 264.55 307.677 266.882 311.094Z" fill="#080C0D"/>
<path d="M251.551 291.85C248.51 285.973 245.734 280.731 243.513 276.987C242.513 275.074 241.56 273.617 241.014 272.493C240.443 271.401 240.203 270.734 240.393 270.629C240.584 270.523 241.086 270.933 241.982 271.82C242.82 272.713 244.047 274.027 245.351 275.822C248.036 279.318 251.21 284.52 254.258 290.453C256.337 294.5 257.766 297.807 258.746 300.383C259.753 302.928 260.348 304.824 260.697 305.997C260.74 306.136 260.168 306.453 260.068 306.319C259.306 305.332 258.222 303.716 256.803 301.357C255.352 298.973 253.625 295.84 251.551 291.85Z" fill="#080C0D"/>
<path d="M204.801 292.681C204.305 290.919 204.007 289.108 204.024 287.294C204.016 285.511 204.355 283.75 204.976 282.22C205.566 280.664 206.407 279.313 207.391 278.235C208.344 277.132 209.408 276.276 210.438 275.653C212.492 274.352 214.362 273.788 215.629 273.516C216.275 273.364 216.762 273.343 217.136 273.334C217.483 273.356 217.66 273.396 217.697 273.478C217.708 273.592 217.58 273.749 217.282 273.923C216.983 274.097 216.545 274.314 215.998 274.6C214.905 275.171 213.292 275.997 211.673 277.34C210.055 278.684 208.411 280.635 207.572 283.136C207.155 284.416 206.952 285.817 206.957 287.284C206.962 288.751 207.232 290.277 207.679 291.842C208.297 293.966 209.114 295.782 209.94 297.396C210.765 299.009 211.567 300.395 212.264 301.59C213.714 303.975 214.862 305.642 215.521 306.754C215.621 306.888 215.123 307.37 214.966 307.242C213.963 306.423 212.395 305.144 210.469 302.894C209.519 301.753 208.463 300.422 207.487 298.738C206.485 297.084 205.505 295.084 204.801 292.681Z" fill="#080C0D"/>
<path d="M235.998 331.921C227.684 323.99 220.951 316.043 216.374 310.063C211.798 304.083 209.408 300.097 209.701 299.865C210.051 299.629 213.052 303.122 217.993 308.719C222.959 314.285 229.86 321.899 238.048 329.728C243.623 335.06 248.206 339.111 251.793 342.142C253.561 343.689 255.124 344.911 256.415 346.017C257.701 347.066 258.793 347.905 259.583 348.601C259.803 348.78 259.456 349.333 259.185 349.217C258.242 348.709 257.028 348.084 255.588 347.223C254.174 346.331 252.401 345.302 250.474 343.887C246.549 341.207 241.667 337.329 235.998 331.921Z" fill="#080C0D"/>
<path d="M267.029 347.414C267.74 346.478 268.056 345.065 268.177 343.701C268.297 342.337 268.21 340.907 268.02 339.603C267.666 336.963 266.936 334.592 266.196 332.682C264.684 328.837 262.83 327.011 263.086 326.697C263.213 326.541 263.9 326.787 264.847 327.612C265.819 328.405 267.026 329.807 268.12 331.797C269.208 333.729 270.239 336.242 270.768 339.18C271.032 340.649 271.194 342.244 271.108 343.95C271.049 344.79 270.939 345.693 270.684 346.582C270.429 347.471 270.061 348.372 269.432 349.27C269.003 349.86 268.48 350.373 267.857 350.753C267.234 351.133 266.568 351.373 265.947 351.493C264.649 351.74 263.481 351.571 262.535 351.322C260.58 350.772 259.166 349.88 257.992 349.079C255.668 347.444 254.399 345.991 253.586 345.067C253.486 344.933 253.895 344.431 254.046 344.502C255.11 345.056 256.763 346.039 259.091 347.155C260.268 347.697 261.653 348.304 263.149 348.584C263.881 348.711 264.664 348.775 265.336 348.592C265.977 348.383 266.549 348.066 267.029 347.414Z" fill="#080C0D"/>
<path d="M343.424 352.377C341.555 345.576 340.252 338.976 339.355 332.969C338.401 326.966 337.763 321.536 337.161 317.023C336.585 312.479 336.101 308.845 335.619 306.363C335.163 303.848 334.796 302.505 335.018 302.425C335.183 302.35 335.943 303.597 336.741 306.076C337.565 308.524 338.427 312.205 339.257 316.695C340.979 325.727 342.68 338.241 346.334 351.564C347.599 356.096 348.87 360.11 350.151 363.662C351.4 367.189 352.686 370.223 353.844 372.839C356.215 378.064 358.154 381.579 359.391 383.841C359.565 384.14 358.998 384.514 358.799 384.246C357.187 382.252 354.696 378.966 351.874 373.844C350.489 371.252 348.975 368.241 347.549 364.674C346.123 361.108 344.701 357.023 343.424 352.377Z" fill="#080C0D"/>
<path d="M200.233 314.865C199.659 313.456 199.198 312.036 198.966 310.592C198.701 309.123 198.639 307.662 198.899 306.255C199.128 304.822 199.741 303.494 200.586 302.459C201.43 301.424 202.46 300.801 203.419 300.33C203.667 300.219 203.889 300.139 204.136 300.027C204.358 299.947 204.612 299.893 204.834 299.812C205.056 299.732 205.284 299.709 205.48 299.661C205.676 299.612 205.904 299.589 206.075 299.571C206.867 299.434 207.53 299.453 208.074 299.426C209.174 299.487 209.766 299.657 209.758 299.859C209.781 300.087 209.197 300.29 208.221 300.591C207.276 300.917 205.824 301.352 204.444 302.211C203.77 302.653 203.081 303.241 202.607 303.951C202.107 304.692 201.795 305.587 201.697 306.604C201.475 308.669 202.076 311.197 203.102 313.653C203.794 315.367 204.577 316.841 205.285 318.15C205.993 319.459 206.684 320.597 207.3 321.57C208.508 323.548 209.424 324.922 210.004 325.813C210.072 325.921 209.631 326.397 209.48 326.326C208.588 325.755 207.188 324.717 205.537 322.9C204.698 322.007 203.811 320.917 202.9 319.6C201.939 318.346 201.031 316.769 200.233 314.865Z" fill="#080C0D"/>
<path d="M221.435 340.936C215.167 335.3 210.476 329.332 207.294 324.908C204.138 320.453 202.516 317.51 202.809 317.279C203.159 317.042 205.424 319.517 208.944 323.59C212.49 327.632 217.348 333.267 223.422 338.692C227.534 342.359 231.024 344.997 233.807 346.901C234.146 347.126 234.459 347.382 234.799 347.606C235.138 347.831 235.446 348.03 235.754 348.229C236.369 348.626 236.922 348.973 237.418 349.325C238.456 349.911 239.285 350.431 239.933 350.854C240.115 350.951 239.862 351.58 239.654 351.515C238.942 351.3 237.965 351.025 236.774 350.628C236.175 350.401 235.571 350.117 234.885 349.87C234.525 349.734 234.192 349.567 233.802 349.405C233.437 349.212 233.072 349.018 232.682 348.857C229.581 347.215 225.735 344.757 221.435 340.936Z" fill="#080C0D"/>
<path d="M247.692 347.938C247.537 348.96 247.211 350 246.5 350.935C245.815 351.839 244.76 352.493 243.772 352.679C242.758 352.897 241.887 352.813 241.123 352.661C240.738 352.556 240.385 352.476 240.057 352.366C239.906 352.295 239.73 352.255 239.579 352.184C239.428 352.113 239.277 352.042 239.157 351.997C238.068 351.475 237.264 350.923 236.757 350.457C236.249 349.991 236.044 349.666 236.14 349.484C236.237 349.301 236.667 349.287 237.285 349.425C237.929 349.532 238.761 349.793 239.815 349.974C239.96 349.988 240.08 350.033 240.225 350.047C240.37 350.061 240.49 350.107 240.635 350.121C240.9 350.18 241.191 350.208 241.45 350.211C242 350.241 242.569 350.184 243.044 350.049C243.488 349.889 243.838 349.652 244.14 349.219C244.415 348.817 244.642 348.218 244.744 347.517C244.879 346.583 244.869 345.635 244.84 344.775C244.81 343.915 244.703 343.149 244.634 342.465C244.47 341.13 244.309 340.111 244.245 339.484C244.234 339.37 244.837 339.079 244.874 339.161C245.356 339.659 246.069 340.45 246.758 341.847C247.086 342.533 247.401 343.364 247.619 344.378C247.748 345.371 247.926 346.562 247.692 347.938Z" fill="#080C0D"/>
<path d="M250.877 383.863C242.027 377.166 234.148 370.111 227.564 363.07C224.273 359.549 221.354 356.019 218.763 352.599C218.127 351.714 217.496 350.886 216.891 350.027C216.286 349.168 215.738 348.303 215.196 347.495C214.922 347.062 214.653 346.687 214.379 346.254C214.137 345.848 213.863 345.415 213.62 345.008C213.135 344.194 212.649 343.381 212.17 342.624C211.716 341.835 211.319 341.041 210.896 340.279C210.685 339.897 210.473 339.516 210.294 339.16C210.114 338.805 209.928 338.392 209.748 338.036C209.414 337.293 209.054 336.582 208.694 335.87C208.365 335.185 208.119 334.462 207.822 333.801C207.551 333.11 207.285 332.475 207.019 331.84C206.81 331.2 206.576 330.591 206.373 330.007C206.17 329.424 205.998 328.866 205.826 328.308C205.629 327.781 205.546 327.243 205.411 326.768C205.168 325.785 204.936 324.917 204.772 324.157C204.634 323.365 204.539 322.713 204.456 322.175C204.321 321.124 204.263 320.555 204.377 320.543C204.491 320.532 204.688 321.058 205.02 322.06C205.186 322.561 205.394 323.202 205.584 323.931C205.83 324.654 206.144 325.485 206.47 326.43C207.831 330.204 210.151 335.492 213.931 341.553C214.411 342.31 214.947 343.061 215.458 343.844C215.726 344.219 215.969 344.626 216.237 345.001C216.505 345.377 216.805 345.778 217.073 346.154C217.641 346.93 218.215 347.764 218.814 348.566C219.413 349.368 220.07 350.165 220.7 350.993C223.305 354.267 226.269 357.677 229.549 361.084C236.135 367.867 243.946 374.813 252.696 381.377C258.621 385.896 264.123 389.653 269.143 392.913C274.131 396.146 278.581 398.888 282.523 401.163C290.382 405.746 296.025 408.625 299.662 410.443C300.146 410.681 299.862 411.285 299.383 411.104C295.585 409.677 289.646 407.288 281.481 403.082C277.411 400.963 272.808 398.409 267.685 395.276C262.48 392.179 256.89 388.402 250.877 383.863Z" fill="#080C0D"/>
<path d="M317.787 430.87C311.057 424.649 305.176 418.859 300.795 414.815C299.712 413.775 298.753 412.836 297.869 412.063C297.011 411.258 296.278 410.556 295.671 409.956C294.487 408.781 293.894 408.036 294.021 407.879C294.149 407.722 294.999 408.154 296.413 409.046C297.122 409.521 297.958 410.098 298.95 410.803C299.942 411.507 301.003 412.32 302.189 413.236C306.964 416.922 313.138 422.481 319.837 428.677C322.125 430.804 324.155 432.669 325.94 434.387C327.726 436.105 329.311 437.555 330.657 438.914C331.008 439.252 331.328 439.565 331.647 439.878C331.967 440.191 332.255 440.478 332.568 440.734C333.144 441.308 333.683 441.8 334.165 442.298C335.124 443.236 335.894 444.021 336.444 444.627C336.576 444.787 336.198 445.314 335.984 445.192C335.248 444.749 334.356 444.177 333.213 443.402C332.629 443.029 332.038 442.6 331.36 442.151C331.021 441.927 330.682 441.702 330.336 441.421C329.991 441.139 329.621 440.889 329.244 440.582C327.745 439.411 326 438.092 324.081 436.474C322.219 434.851 320.074 432.997 317.787 430.87Z" fill="#080C0D"/>
<path d="M313.137 122.798C312.96 120.774 312.448 118.84 312.184 117.371C311.888 115.877 311.847 114.903 312.203 114.723C312.59 114.568 313.323 115.271 314.145 116.568C314.556 117.217 314.99 118.093 315.379 119.09C315.768 120.086 316.06 121.265 316.161 122.549C316.283 124.32 315.91 125.739 315.401 126.682C315.31 126.922 315.131 127.141 315.035 127.324C314.881 127.512 314.785 127.694 314.657 127.851C314.37 128.139 314.159 128.333 313.974 128.496C313.923 128.558 313.344 128.243 313.339 128.186C313.316 127.958 313.312 127.642 313.309 127.326C313.292 127.155 313.3 126.953 313.282 126.782C313.291 126.58 313.299 126.378 313.276 126.15C313.24 125.233 313.244 124.139 313.137 122.798Z" fill="#080C0D"/>
<path d="M224.935 268.831C224.173 267.844 223.733 266.911 223.436 266.251C223.313 265.889 223.196 265.584 223.167 265.3C223.138 265.015 223.172 264.781 223.3 264.625C223.428 264.468 223.65 264.388 223.94 264.416C224.231 264.444 224.616 264.549 224.986 264.799C225.779 265.236 226.611 266.072 227.311 267.008C227.547 267.358 227.716 267.6 227.859 267.873C228.001 268.146 228.113 268.394 228.167 268.647C228.302 269.123 228.374 269.547 228.377 269.863C228.383 269.92 227.973 270.422 227.916 270.428C227.6 270.431 227.139 270.42 226.566 270.162C226.295 270.046 226.019 269.872 225.737 269.642C225.486 269.437 225.198 269.15 224.935 268.831Z" fill="#080C0D"/>
<path d="M214.482 291.699C213.432 290.424 212.741 289.286 212.193 288.421C212.056 288.205 211.976 287.983 211.871 287.792C211.765 287.602 211.691 287.437 211.673 287.266C211.582 286.93 211.584 286.671 211.712 286.514C211.84 286.357 212.093 286.302 212.447 286.382C212.623 286.421 212.8 286.461 213.039 286.552C213.159 286.597 213.279 286.642 213.373 286.719C213.492 286.765 213.587 286.841 213.738 286.912C214.744 287.472 215.833 288.57 216.846 289.761C217.177 290.188 217.471 290.532 217.682 290.914C217.919 291.264 218.093 291.562 218.21 291.867C218.502 292.47 218.668 292.971 218.734 293.339C218.74 293.396 218.33 293.897 218.273 293.903C217.926 293.881 217.37 293.793 216.678 293.49C216.344 293.322 216.005 293.098 215.603 292.822C215.221 292.458 214.839 292.094 214.482 291.699Z" fill="#080C0D"/>
<path d="M301.298 86.0823C300.527 84.1468 299.829 82.3764 299.317 81.0186C299.243 80.8535 299.226 80.6827 299.152 80.5176C299.109 80.3781 299.034 80.2131 298.991 80.0736C298.906 79.7946 298.825 79.5726 298.802 79.3448C298.731 78.9206 298.759 78.63 298.918 78.4988C299.077 78.3675 299.373 78.4525 299.77 78.6712C299.983 78.7934 300.172 78.9469 300.423 79.1516C300.548 79.254 300.673 79.3563 300.773 79.49C300.873 79.6237 301.03 79.7516 301.13 79.8853C302.194 81.0144 303.27 82.8327 304.122 84.9903C304.702 86.4561 304.881 87.6463 304.979 88.6145C305.046 89.557 304.944 90.2578 304.877 90.7249C304.882 90.7819 304.242 90.9907 304.179 90.9396C303.86 90.6267 303.403 90.0977 302.892 89.3153C302.35 88.5072 301.81 87.44 301.298 86.0823Z" fill="#080C0D"/>
<path d="M204.537 311.638C204.483 311.384 204.511 311.094 204.514 310.835C204.516 310.575 204.575 310.31 204.666 310.071C204.731 309.863 204.822 309.624 204.919 309.441C204.939 309.353 205.015 309.259 205.035 309.171C205.086 309.108 205.106 309.02 205.157 308.957C205.53 308.372 205.862 307.965 206.175 307.645C206.801 307.006 207.335 306.607 207.726 306.769C208.116 306.93 208.268 307.577 208.082 308.574C207.988 309.072 207.813 309.608 207.662 310.112L207.623 310.289L207.583 310.466C207.538 310.585 207.543 310.642 207.524 310.731C207.51 310.876 207.496 311.021 207.539 311.161C207.585 311.616 207.799 312.314 207.883 312.852C207.941 313.421 208.018 313.902 207.939 314.256C207.945 314.313 207.41 314.712 207.379 314.687C207.051 314.576 206.578 314.451 206.019 314.048C205.743 313.874 205.48 313.556 205.186 313.212C205.049 312.995 204.912 312.779 204.801 312.532C204.695 312.341 204.578 312.036 204.537 311.638Z" fill="#080C0D"/>
<path d="M327.172 364.872C327.495 364.091 327.762 363.316 328.091 362.592C328.42 361.869 328.724 361.176 329.059 360.509C329.369 359.874 329.678 359.238 329.994 358.659C330.309 358.081 330.63 357.559 330.931 357.126C332.15 355.247 333.083 354.232 333.448 354.425C333.812 354.618 333.578 355.994 332.863 358.023C332.506 359.037 332.083 360.26 331.641 361.571C331.394 362.257 331.148 362.944 330.875 363.662C330.603 364.38 330.336 365.155 330.038 365.905C329.655 366.95 329.261 367.882 328.88 368.669C328.531 369.481 328.202 370.205 327.861 370.815C327.236 372.029 326.628 372.839 326.25 373.366C326.199 373.429 325.575 373.233 325.538 373.151C325.531 372.518 325.572 371.507 325.775 370.106C325.877 369.405 326.03 368.642 326.285 367.753C326.457 366.901 326.789 365.918 327.172 364.872Z" fill="#080C0D"/>
<path d="M88.1996 256.017L70.642 259.494C68.6718 258.219 66.8175 256.249 65.0792 253.584C63.3408 250.918 62.4716 247.789 62.4716 244.196C62.4716 240.604 63.3987 237.938 65.253 236.2C67.2232 234.345 70.0625 232.955 73.7711 232.028L87.3304 228.725C90.3436 227.798 92.5456 226.639 93.9363 225.248C95.327 223.857 96.0223 221.887 96.0223 219.337C96.0223 217.135 94.9213 215.107 92.7194 213.253C90.6333 211.283 86.9827 210.298 81.7676 210.298C77.1319 210.298 72.6701 210.877 68.3821 212.036C64.21 213.195 60.8491 214.644 58.2995 216.382C56.4452 214.876 54.7648 213.021 53.2582 210.819C51.8675 208.617 51.1721 206.068 51.1721 203.171C51.1721 197.028 54.4171 192.566 60.907 189.785C67.5129 186.888 75.8571 185.439 85.9397 185.439C95.0952 185.439 102.744 186.888 108.886 189.785C115.029 192.682 119.664 196.681 122.793 201.78C125.922 206.879 127.487 212.732 127.487 219.337C127.487 229.42 124.184 237.417 117.578 243.327C111.088 249.122 101.295 253.352 88.1996 256.017ZM64.9053 282.614C64.9053 277.863 66.4119 273.981 69.4251 270.967C72.4383 267.838 76.4945 266.274 81.5938 266.274C86.693 266.274 90.7492 267.838 93.7624 270.967C96.7756 273.981 98.2822 277.863 98.2822 282.614C98.2822 287.366 96.7756 291.306 93.7624 294.435C90.7492 297.449 86.693 298.955 81.5938 298.955C76.4945 298.955 72.4383 297.449 69.4251 294.435C66.4119 291.306 64.9053 287.366 64.9053 282.614Z" fill="black"/>
</g>
</svg>
